<?xml version="1.0" encoding="UTF-8" standalone="no" ?>
<!DOCTYPE svg PUBLIC "-//W3C//DTD SVG 1.1//EN" "http://www.w3.org/Graphics/SVG/1.1/DTD/svg11.dtd">
<svg xmlns="http://www.w3.org/2000/svg" xmlns:xlink="http://www.w3.org/1999/xlink" version="1.1" width="1080" height="1080" viewBox="0 0 1080 1080" xml:space="preserve">
<desc>Created with Fabric.js 5.2.4</desc>
<defs>
</defs>
<g transform="matrix(1 0 0 1 540 540)" id="84389e58-bc0f-4063-b32f-5a0eb8177a5e"  >
<rect style="stroke: none; stroke-width: 1; stroke-dasharray: none; stroke-linecap: butt; stroke-dashoffset: 0; stroke-linejoin: miter; stroke-miterlimit: 4; fill: rgb(255,255,255); fill-rule: nonzero; opacity: 1; visibility: hidden;" vector-effect="non-scaling-stroke"  x="-540" y="-540" rx="0" ry="0" width="1080" height="1080" />
</g>
<g transform="matrix(1 0 0 1 540 540)" id="4866f75c-4f08-4f65-80b7-16d86f770574"  >
</g>
<g transform="matrix(1 0 0 1 540 540)" id="f7ef2e15-a6af-46e5-8deb-a9b8af38482b"  >
<path style="stroke: rgb(0,0,0); stroke-width: 0; stroke-dasharray: none; stroke-linecap: butt; stroke-dashoffset: 0; stroke-linejoin: miter; stroke-miterlimit: 4; fill: rgb(0,255,253); fill-rule: nonzero; opacity: 1;" vector-effect="non-scaling-stroke"  transform=" translate(-149.76, -149.67)" d="M 288.9 113.8 C 287.5 117.3 286.4 120.89999999999999 285 124.39999999999999 C 284 109.69999999999999 281.6 95.1 276.9 81.19999999999999 C 273.7 72.6 270 63.999999999999986 263.59999999999997 57.29999999999999 C 264.49999999999994 65.49999999999999 266.59999999999997 73.49999999999999 266.4 81.79999999999998 C 264.59999999999997 75.49999999999999 262.5 69.09999999999998 258.7 63.69999999999998 C 250.5 50.999999999999986 237.2 42.39999999999998 223 37.79999999999998 C 219.3 36.59999999999998 215.4 35.899999999999984 212.1 33.899999999999984 C 191.7 21.999999999999986 167.89999999999998 16.099999999999984 144.3 16.699999999999985 C 113.60000000000001 17.099999999999984 83.4 29.199999999999985 60.900000000000006 49.999999999999986 C 57.400000000000006 53.29999999999998 54.2 56.899999999999984 50.7 60.29999999999998 C 44.6 53.19999999999998 41.5 44.19999999999998 41.1 34.899999999999984 C 35.6 39.59999999999999 32.400000000000006 46.399999999999984 30.1 53.09999999999998 C 26.900000000000002 62.49999999999998 25.200000000000003 72.49999999999997 26.200000000000003 82.39999999999998 C 26.300000000000004 84.59999999999998 26.900000000000002 86.99999999999997 25.400000000000002 88.89999999999998 C 17.6 100.29999999999998 11.300000000000002 113.29999999999998 9.800000000000002 127.19999999999997 C 12.300000000000002 125.49999999999997 14.700000000000003 123.69999999999997 17.200000000000003 121.99999999999997 C 16.200000000000003 126.99999999999997 14.800000000000002 131.99999999999997 14.000000000000004 137.09999999999997 C 10.500000000000004 161.59999999999997 15.000000000000004 187.09999999999997 26.700000000000003 208.99999999999997 C 39.5 232.59999999999997 59.300000000000004 252.09999999999997 82.6 265.4 C 108.8 280.29999999999995 140.1 285.79999999999995 169.89999999999998 281 C 195.89999999999998 276.7 221.09999999999997 265.3 239.7 246.4 C 252.89999999999998 233 264.4 217.9 272.7 201 C 286.3 174.2 292 143.5 288.9 113.8 M 240.2 152.2 C 237.5 146.7 236.1 140.2 230.89999999999998 136.39999999999998 C 232.2 150.2 232.79999999999998 164.2 229.7 177.79999999999998 C 227.79999999999998 186.99999999999997 223.7 195.89999999999998 217 202.6 C 218.2 196 219.3 189.29999999999998 218.9 182.6 C 209.20000000000002 195.7 197.5 207.79999999999998 182.60000000000002 214.89999999999998 C 170.00000000000003 220.99999999999997 155.10000000000002 220.7 141.90000000000003 216.59999999999997 C 129.90000000000003 212.69999999999996 119.50000000000003 205.29999999999995 110.30000000000004 196.89999999999998 L 113.50000000000004 196.89999999999998 C 122.50000000000004 197.49999999999997 131.60000000000005 196.2 140.20000000000005 193.7 C 148.80000000000004 191.2 155.20000000000005 184.79999999999998 162.70000000000005 180.29999999999998 C 166.20000000000005 178.2 170.60000000000005 179.1 174.40000000000003 177.99999999999997 C 176.80000000000004 176.69999999999996 177.60000000000002 173.19999999999996 175.40000000000003 171.29999999999998 C 169.80000000000004 165.2 161.70000000000005 160.29999999999998 153.20000000000005 161.29999999999998 C 145.00000000000006 162.49999999999997 138.30000000000004 168.1 130.20000000000005 169.99999999999997 C 124.40000000000005 170.99999999999997 118.50000000000004 169.19999999999996 113.40000000000005 166.59999999999997 C 106.10000000000005 162.89999999999998 100.60000000000005 156.69999999999996 95.40000000000005 150.59999999999997 L 93.10000000000005 148.69999999999996 C 93.10000000000005 147.79999999999995 93.10000000000005 146.79999999999995 93.20000000000005 145.89999999999995 C 93.70000000000005 143.39999999999995 95.10000000000005 141.19999999999996 96.30000000000004 138.89999999999995 L 97.70000000000005 136.09999999999994 C 105.80000000000004 136.69999999999993 113.80000000000004 137.99999999999994 121.70000000000005 139.99999999999994 C 121.60000000000005 132.49999999999994 121.10000000000005 123.99999999999994 116.50000000000004 117.79999999999994 L 118.10000000000004 116.59999999999994 C 123.20000000000003 112.59999999999994 127.90000000000003 107.89999999999993 133.60000000000002 104.79999999999994 C 135.90000000000003 103.59999999999994 138.00000000000003 101.99999999999994 139.70000000000002 100.09999999999994 L 140.10000000000002 96.69999999999993 L 140.00000000000003 96.69999999999993 C 140.10000000000002 95.39999999999993 139.90000000000003 93.99999999999993 139.90000000000003 92.69999999999993 C 137.10000000000002 92.39999999999993 134.30000000000004 92.19999999999993 131.40000000000003 92.19999999999993 L 123.60000000000004 91.69999999999993 C 123.00000000000004 91.29999999999993 122.40000000000003 90.89999999999993 121.80000000000004 90.59999999999994 C 116.50000000000004 87.29999999999994 111.90000000000003 82.89999999999993 106.90000000000003 79.19999999999993 L 104.90000000000003 77.39999999999993 L 105.20000000000003 74.69999999999993 C 107.10000000000004 62.19999999999993 116.30000000000003 52.399999999999935 125.90000000000003 44.899999999999935 C 119.10000000000004 45.899999999999935 112.40000000000003 47.79999999999993 106.30000000000004 50.899999999999935 C 99.9 54 94.4 58.7 89 63.3 C 78.1 60.5 66.4 62.199999999999996 56 66.2 C 50.9 68.5 46.3 71.9 41.3 74.5 C 44.5 71.3 48.199999999999996 68.8 51.8 66 C 55 63.6 57.4 60.3 60.199999999999996 57.5 C 81 36.1 110.1 23.200000000000003 139.79999999999998 21.700000000000003 C 159.49999999999997 20.700000000000003 179.79999999999998 23.800000000000004 197.59999999999997 32.5 C 192.79999999999995 32.3 188.09999999999997 32 183.29999999999995 32.1 C 193.99999999999994 35.300000000000004 206.49999999999994 38.7 212.49999999999994 49.1 C 206.99999999999994 49.300000000000004 201.39999999999995 49.4 196.09999999999994 51.2 C 211.39999999999995 57.1 226.79999999999993 64.4 238.19999999999993 76.6 C 244.99999999999994 83.89999999999999 249.69999999999993 93.39999999999999 249.49999999999994 103.6 C 245.89999999999995 100.89999999999999 242.19999999999993 98.39999999999999 238.19999999999993 96.39999999999999 C 242.49999999999994 114.5 245.19999999999993 133.79999999999998 240.19999999999993 152.2" stroke-linecap="round" />
</g>
</svg>