<?xml version="1.0" encoding="UTF-8" standalone="no" ?>
<!DOCTYPE svg PUBLIC "-//W3C//DTD SVG 1.1//EN" "http://www.w3.org/Graphics/SVG/1.1/DTD/svg11.dtd">
<svg xmlns="http://www.w3.org/2000/svg" xmlns:xlink="http://www.w3.org/1999/xlink" version="1.1" width="1080" height="1080" viewBox="0 0 1080 1080" xml:space="preserve">
<desc>Created with Fabric.js 5.2.4</desc>
<defs>
</defs>
<rect x="0" y="0" width="100%" height="100%" fill="transparent"></rect>
<g transform="matrix(1 0 0 1 540 540)" id="dfaa207a-b1af-42b0-9da3-41c66b0a6bfd"  >
<rect style="stroke: none; stroke-width: 1; stroke-dasharray: none; stroke-linecap: butt; stroke-dashoffset: 0; stroke-linejoin: miter; stroke-miterlimit: 4; fill: rgb(255,255,255); fill-rule: nonzero; opacity: 1; visibility: hidden;" vector-effect="non-scaling-stroke"  x="-540" y="-540" rx="0" ry="0" width="1080" height="1080" />
</g>
<g transform="matrix(1 0 0 1 540 540)" id="e3ba1dfb-dee1-4292-89c4-8b34a492b29e"  >
</g>
<g transform="matrix(1 0 0 1 540 540)"  >
<g style="" vector-effect="non-scaling-stroke"   >
		<g transform="matrix(0.13 0 0 -0.13 40.9 0)"  >
<path style="stroke: none; stroke-width: 1; stroke-dasharray: none; stroke-linecap: butt; stroke-dashoffset: 0; stroke-linejoin: miter; stroke-miterlimit: 4; fill: rgb(0,255,254); fill-rule: nonzero; opacity: 1;" vector-effect="non-scaling-stroke"  transform=" translate(-3222.12, -2223.35)" d="M 2652 3439 C 2612 3434 2565 3426 2547 3420 C 2515 3410 2515 3410 2545 3415 C 2630 3429 2794 3432 2870 3421 C 2976 3405 3114 3360 3197 3313 C 3274 3270 3385 3184 3454 3112 C 3482 3084 3508 3064 3513 3067 C 3519 3070 3520 3068 3516 3062 C 3513 3056 3528 3024 3551 2990 C 3635 2863 3678 2716 3652 2641 C 3642 2613 3645 2602 3675 2547 C 3781 2351 3753 2188 3599 2110 C 3550 2085 3549 2085 3556 2119 C 3574 2210 3428 2332 3205 2411 C 3130 2438 2948 2448 2857 2431 C 2682 2397 2501 2255 2422 2090 C 2344 1926 2332 1760 2385 1577 C 2414 1475 2455 1391 2516 1302 C 2540 1267 2560 1237 2560 1235 C 2560 1213 2409 1284 2358 1329 C 2338 1346 2319 1360 2316 1360 C 2312 1360 2326 1327 2347 1288 C 2391 1201 2508 1078 2590 1032 C 2638 1004 2688 986 2651 1009 C 2642 1015 2641 1020 2649 1024 C 2656 1029 2656 1039 2649 1058 C 2635 1094 2631 1112 2620 1200 C 2615 1241 2607 1299 2602 1328 C 2595 1369 2596 1380 2606 1380 C 2616 1380 2611 1397 2591 1434 C 2553 1503 2525 1594 2543 1587 C 2552 1584 2556 1593 2556 1619 C 2557 1658 2614 1816 2637 1838 C 2644 1845 2650 1868 2650 1889 C 2650 1957 2701 2097 2722 2084 C 2726 2081 2733 2086 2736 2094 C 2739 2103 2746 2107 2751 2104 C 2756 2101 2760 2105 2760 2112 C 2760 2122 2763 2121 2771 2110 C 2779 2099 2780 2102 2776 2125 C 2772 2144 2773 2150 2778 2142 C 2785 2132 2790 2137 2800 2160 C 2807 2177 2814 2189 2816 2187 C 2818 2185 2808 2157 2795 2124 C 2750 2015 2766 1851 2833 1740 C 2899 1631 3012 1537 3140 1487 C 3439 1370 3790 1474 3975 1735 C 4093 1901 4136 2056 4128 2284 C 4123 2401 4119 2427 4086 2528 C 3887 3134 3291 3513 2652 3439 z M 3250 2384 C 3250 2382 3233 2380 3213 2380 C 3189 2380 3180 2383 3188 2389 C 3200 2396 3250 2393 3250 2384 z" stroke-linecap="round" />
</g>
		<g transform="matrix(0.13 0 0 -0.13 73.77 -68.94)"  >
<path style="stroke: none; stroke-width: 1; stroke-dasharray: none; stroke-linecap: butt; stroke-dashoffset: 0; stroke-linejoin: miter; stroke-miterlimit: 4; fill: rgb(0,255,254); fill-rule: nonzero; opacity: 1;" vector-effect="non-scaling-stroke"  transform=" translate(-3468.69, -2740.36)" d="M 3442 2795 C 3446 2791 3445 2781 3439 2773 C 3430 2764 3431 2760 3439 2760 C 3446 2760 3448 2750 3445 2733 L 3439 2705 L 3454 2735 L 3469 2765 L 3463 2733 C 3459 2708 3462 2700 3480 2690 C 3510 2674 3512 2679 3490 2728 C 3477 2756 3466 2769 3458 2764 C 3450 2759 3449 2762 3453 2773 C 3456 2782 3454 2792 3447 2796 C 3440 2800 3438 2800 3442 2795 z" stroke-linecap="round" />
</g>
		<g transform="matrix(0.13 0 0 -0.13 -84.81 21.63)"  >
<path style="stroke: none; stroke-width: 1; stroke-dasharray: none; stroke-linecap: butt; stroke-dashoffset: 0; stroke-linejoin: miter; stroke-miterlimit: 4; fill: rgb(0,255,254); fill-rule: nonzero; opacity: 1;" vector-effect="non-scaling-stroke"  transform=" translate(-2279.32, -2061.1)" d="M 2605 2454 C 2395 2417 2201 2326 2041 2191 L 1987 2145 L 1992 2206 C 1998 2273 2029 2351 2063 2389 L 2085 2413 L 2055 2397 C 1949 2343 1840 2228 1779 2105 C 1720 1985 1700 1891 1702 1746 C 1702 1679 1705 1640 1707 1659 C 1710 1685 1714 1690 1721 1679 C 1728 1668 1730 1670 1730 1686 C 1730 1698 1736 1710 1743 1713 C 1750 1716 1769 1749 1784 1788 C 1800 1826 1823 1869 1837 1884 C 1850 1898 1858 1910 1854 1910 C 1850 1910 1856 1919 1869 1931 C 1881 1943 1893 1950 1894 1949 C 1896 1947 1902 1936 1908 1925 C 1914 1914 1920 1911 1920 1918 C 1920 1925 1924 1929 1929 1926 C 1934 1922 1953 1939 1972 1962 C 2035 2043 2045 2055 2117 2127 C 2158 2168 2197 2198 2207 2198 C 2217 2197 2248 2212 2275 2231 C 2303 2251 2346 2273 2373 2280 C 2399 2288 2420 2298 2420 2302 C 2420 2306 2427 2310 2436 2310 C 2444 2310 2449 2314 2446 2319 C 2442 2324 2449 2326 2460 2323 C 2471 2320 2480 2322 2480 2328 C 2480 2339 2559 2362 2572 2354 C 2576 2351 2588 2356 2597 2366 C 2613 2382 2613 2382 2590 2376 C 2570 2372 2571 2373 2595 2385 C 2612 2393 2636 2400 2650 2400 C 2675 2402 2675 2402 2646 2412 C 2612 2425 2628 2440 2675 2439 C 2705 2437 2705 2437 2670 2430 C 2642 2424 2647 2423 2696 2424 C 2744 2425 2754 2427 2741 2437 C 2729 2446 2737 2449 2785 2455 C 2882 2465 2881 2468 2780 2468 C 2728 2468 2649 2462 2605 2454 z" stroke-linecap="round" />
</g>
		<g transform="matrix(0.13 0 0 -0.13 -38.73 -17.56)"  >
<path style="stroke: none; stroke-width: 1; stroke-dasharray: none; stroke-linecap: butt; stroke-dashoffset: 0; stroke-linejoin: miter; stroke-miterlimit: 4; fill: rgb(0,255,254); fill-rule: nonzero; opacity: 1;" vector-effect="non-scaling-stroke"  transform=" translate(-2624.9, -2355.02)" d="M 2619 2353 C 2606 2337 2607 2336 2623 2349 C 2639 2362 2644 2370 2636 2370 C 2634 2370 2626 2362 2619 2353 z" stroke-linecap="round" />
</g>
</g>
</g>
</svg>