<?xml version="1.0" encoding="utf-8"?>
<!-- Generator: Adobe Illustrator 27.5.0, SVG Export Plug-In . SVG Version: 6.00 Build 0)  -->
<svg version="1.1" xmlns="http://www.w3.org/2000/svg" xmlns:xlink="http://www.w3.org/1999/xlink" x="0px" y="0px"
	 viewBox="0 0 500 500" style="enable-background:new 0 0 500 500;" xml:space="preserve">
<g id="Background_Complete">
	<g>
		<rect y="382.398" style="fill:#EBEBEB;" width="500" height="0.25"/>
		<rect x="52.459" y="391.922" style="fill:#EBEBEB;" width="77.908" height="0.25"/>
		<rect x="412" y="399.528" style="fill:#EBEBEB;" width="37.901" height="0.25"/>
		<rect x="131.368" y="401.208" style="fill:#EBEBEB;" width="19.192" height="0.25"/>
		<rect x="202.167" y="389.208" style="fill:#EBEBEB;" width="43.193" height="0.25"/>
		<rect x="254.263" y="389.208" style="fill:#EBEBEB;" width="6.333" height="0.25"/>
		<rect x="327.667" y="395.306" style="fill:#EBEBEB;" width="43.222" height="0.25"/>
		<path style="fill:#EBEBEB;" d="M237.014,337.8H43.915c-3.147,0-5.708-2.561-5.708-5.708V60.66c0-3.147,2.561-5.708,5.708-5.708
			h193.099c3.146,0,5.707,2.561,5.707,5.708v271.432C242.721,335.239,240.16,337.8,237.014,337.8z M43.915,55.203
			c-3.01,0-5.458,2.448-5.458,5.458v271.432c0,3.01,2.448,5.458,5.458,5.458h193.099c3.009,0,5.457-2.448,5.457-5.458V60.66
			c0-3.009-2.448-5.458-5.457-5.458H43.915z"/>
		<path style="fill:#EBEBEB;" d="M453.31,337.8H260.212c-3.147,0-5.707-2.561-5.707-5.708V60.66c0-3.147,2.561-5.708,5.707-5.708
			H453.31c3.148,0,5.708,2.561,5.708,5.708v271.432C459.019,335.239,456.458,337.8,453.31,337.8z M260.212,55.203
			c-3.009,0-5.457,2.448-5.457,5.458v271.432c0,3.01,2.448,5.458,5.457,5.458H453.31c3.01,0,5.458-2.448,5.458-5.458V60.66
			c0-3.009-2.448-5.458-5.458-5.458H260.212z"/>
	</g>
	<g>
		<g>
			<path style="fill:#F0F0F0;" d="M132.867,359.538H83.735c-2.19,0-4.049-1.607-4.366-3.774L67.07,271.691
				c-0.389-2.663,1.675-5.051,4.366-5.051h49.132c2.19,0,4.049,1.607,4.366,3.774l12.298,84.073
				C137.622,357.149,135.558,359.538,132.867,359.538z"/>
			<path style="fill:#FAFAFA;" d="M89.579,359.538H66.412c-2.19,0-4.049-1.607-4.366-3.774l-12.298-84.072
				c-0.389-2.663,1.675-5.051,4.366-5.051H77.28c2.19,0,4.049,1.607,4.366,3.774l12.298,84.073
				C94.334,357.149,92.27,359.538,89.579,359.538z"/>
			<path style="fill:#E0E0E0;" d="M382.824,245.333H144.019c-6.065,0-11.403,4.548-11.922,10.158l-6.01,64.911
				c-0.52,5.61,3.976,10.158,10.041,10.158h238.805c6.065,0,11.403-4.548,11.922-10.158l6.01-64.911
				C393.384,249.881,388.889,245.333,382.824,245.333z"/>
			<path style="fill:#E6E6E6;" d="M366.614,245.333H127.809c-6.065,0-11.403,4.548-11.922,10.158l-6.01,64.911
				c-0.52,5.61,3.976,10.158,10.041,10.158h238.805c6.065,0,11.403-4.548,11.922-10.158l6.01-64.911
				C377.174,249.881,372.679,245.333,366.614,245.333z"/>
			<path style="fill:#EBEBEB;" d="M97.661,352.343v-23.111c0-3.974,3.221-7.195,7.195-7.195h89.944c3.973,0,7.195,3.221,7.195,7.195
				v23.111c0,3.974-3.221,7.195-7.195,7.195h-89.944C100.882,359.538,97.661,356.317,97.661,352.343z"/>
			<path style="fill:#E0E0E0;" d="M227.717,352.954v-24.332c0-3.636,2.948-6.584,6.584-6.584h104.973
				c3.636,0,6.584,2.948,6.584,6.584v24.332c0,3.636-2.948,6.584-6.584,6.584H234.301
				C230.665,359.538,227.717,356.59,227.717,352.954z"/>
			<path style="fill:#EBEBEB;" d="M201.994,352.954v-24.332c0-3.636,2.948-6.584,6.584-6.584h104.973
				c3.636,0,6.584,2.948,6.584,6.584v24.332c0,3.636-2.948,6.584-6.584,6.584H208.578
				C204.942,359.538,201.994,356.59,201.994,352.954z"/>
			<path style="fill:#F0F0F0;" d="M382.166,359.538h-36.55c-2.691,0-4.451-2.388-3.722-5.051l23.019-84.073
				c0.593-2.167,2.657-3.774,4.847-3.774h36.55c2.691,0,4.451,2.388,3.722,5.051l-23.019,84.072
				C386.42,357.931,384.356,359.538,382.166,359.538z"/>
			<path style="fill:#FAFAFA;" d="M351.459,359.538h-23.166c-2.691,0-4.451-2.388-3.722-5.051l23.019-84.073
				c0.593-2.167,2.657-3.774,4.847-3.774h23.166c2.691,0,4.451,2.388,3.722,5.051l-23.019,84.072
				C355.713,357.931,353.65,359.538,351.459,359.538z"/>
			<polygon style="fill:#E0E0E0;" points="332.077,382.398 328.561,382.398 320.135,359.538 328.845,359.538 			"/>
			<polygon style="fill:#E0E0E0;" points="376.696,382.398 373.18,382.398 364.754,359.538 373.464,359.538 			"/>
			<polygon style="fill:#E0E0E0;" points="123.072,382.398 126.588,382.398 135.013,359.538 126.304,359.538 			"/>
			<polygon style="fill:#E0E0E0;" points="78.453,382.398 81.969,382.398 90.395,359.538 81.685,359.538 			"/>
		</g>
		<g>
			<rect x="116.669" y="97.667" style="fill:#E0E0E0;" width="266.662" height="95.111"/>
			<rect x="114.225" y="97.667" style="fill:#F0F0F0;" width="266.662" height="95.111"/>
			
				<rect x="208" y="19.891" transform="matrix(-1.836970e-16 1 -1 -1.836970e-16 392.7776 -102.3332)" style="fill:#FAFAFA;" width="79.111" height="250.662"/>
			<circle style="fill:#F0F0F0;" cx="247.555" cy="145.222" r="23.722"/>
			<polygon style="fill:#FFFFFF;" points="162.915,184.778 179.529,105.667 216.195,105.667 199.582,184.778 			"/>
			<polygon style="fill:#FFFFFF;" points="215.053,184.778 231.667,105.667 250,105.667 233.387,184.778 			"/>
			<polygon style="fill:#FFFFFF;" points="326.994,184.778 343.608,105.667 361.941,105.667 345.328,184.778 			"/>
		</g>
		<g>
			<path style="fill:#F0F0F0;" d="M442.278,251.762c-6.222,26.963,8.998,54.813,2.776,81.776c-2.054-0.085-4.107-0.171-6.161-0.256
				c-2.054-0.085-4.108-0.171-6.161-0.256C443.061,306.234,431.948,278.554,442.278,251.762z"/>
			<path style="fill:#F0F0F0;" d="M426.333,263.455c5.098,25.778-11.264,51.555-6.167,77.333c2.056,0,4.111,0,6.167,0
				c2.055,0,4.111,0,6.167,0C423.291,315.009,435.542,289.233,426.333,263.455z"/>
			<path style="fill:#E6E6E6;" d="M437.715,242.021c-8.156,27.491,7.005,57.158-1.15,84.649c-2.233-0.209-4.467-0.417-6.7-0.626
				c-2.233-0.209-4.467-0.417-6.7-0.626C435.787,298.345,425.093,269.095,437.715,242.021z"/>
			<path style="fill:#E6E6E6;" d="M449.729,281.607c2.631,14.865-12.038,26.554-9.407,41.419c1.657,0.304,3.314,0.608,4.971,0.913
				c1.657,0.304,3.314,0.608,4.971,0.913C444.32,309.378,455.674,297.081,449.729,281.607z"/>
			<path style="fill:#E0E0E0;" d="M455.167,322.038c-13.429,0-26.858,0-40.287,0c-9.327,19.039-9.327,41.321,0,60.36
				c13.429,0,26.858,0,40.287,0C464.494,363.359,464.494,341.077,455.167,322.038z"/>
		</g>
	</g>
</g>
<g id="Background_Simple" style="display:none;">
	<g style="display:inline;">
		<path style="fill:#407BFF;" d="M79.599,156.072c49.01-113.982,324.805-95.522,245.365,52.115
			c-30.405,56.506-100.605,90.403-164.48,81.515C89.326,279.802,48.648,228.056,79.599,156.072z"/>
		<path style="opacity:0.9;fill:#FFFFFF;" d="M79.599,156.072c49.01-113.982,324.805-95.522,245.365,52.115
			c-30.405,56.506-100.605,90.403-164.48,81.515C89.326,279.802,48.648,228.056,79.599,156.072z"/>
	</g>
</g>
<g id="Shadow_1_">
	<ellipse id="_x3C_Path_x3E__124_" style="fill:#F5F5F5;" cx="250" cy="416.238" rx="193.889" ry="11.323"/>
</g>
<g id="Board">
	<g>
		<g>
			<path style="fill:#263238;" d="M383.796,274.594H167.699c-2.33,0-4.131-1.906-4.003-4.236l7.278-132.485
				c0.128-2.33,2.139-4.236,4.469-4.236h216.097c2.33,0,4.131,1.906,4.003,4.236l-7.278,132.485
				C388.137,272.688,386.126,274.594,383.796,274.594z"/>
			<path style="fill:#263238;" d="M292.894,156.168h-20.889c-6.965,0-12.352-5.69-11.97-12.645l0.212-3.865
				c0.37-6.739,6.195-12.252,12.944-12.252h20.875c6.973,0,12.365,5.696,11.982,12.659l-0.211,3.852
				C305.468,150.655,299.643,156.168,292.894,156.168z"/>
			<polygon style="fill:#263238;" points="311.91,412.062 305.217,412.062 286.792,130.357 293.485,130.357 			"/>
			<polygon style="fill:#263238;" points="261.674,412.062 268.367,412.062 286.792,130.357 280.099,130.357 			"/>
			<path style="fill:#407BFF;" d="M382.646,274.594H166.549c-2.33,0-4.131-1.906-4.003-4.236l7.278-132.485
				c0.128-2.33,2.139-4.236,4.468-4.236h216.097c2.33,0,4.131,1.906,4.003,4.236l-7.278,132.485
				C386.986,272.688,384.975,274.594,382.646,274.594z"/>
			<path style="opacity:0.4;fill:#263238;" d="M169.978,270.535c-1.865,0-3.3-1.517-3.197-3.383l6.925-126.072
				c0.102-1.865,1.703-3.383,3.569-3.383H386.96c1.865,0,3.299,1.518,3.197,3.383l-6.925,126.072
				c-0.103,1.865-1.703,3.383-3.568,3.383H169.978z"/>
			<path style="opacity:0.1;fill:#FFFFFF;" d="M380.963,203.71h-63.117c-1.587,0-2.803-1.287-2.716-2.874l3.152-57.386
				c0.012-0.224-0.159-0.406-0.384-0.406s-0.416,0.182-0.428,0.406l-3.152,57.386c-0.087,1.587-1.445,2.874-3.032,2.874h-65.591
				c-1.587,0-2.803-1.287-2.716-2.874l3.152-57.386c0.012-0.224-0.159-0.406-0.384-0.406s-0.416,0.182-0.428,0.406l-3.152,57.386
				c-0.087,1.587-1.444,2.874-3.032,2.874h-63.117c-0.224,0-0.416,0.182-0.428,0.406c-0.012,0.224,0.159,0.406,0.384,0.406h63.117
				c1.587,0,2.803,1.287,2.716,2.874l-3.152,57.386c-0.012,0.224,0.159,0.406,0.384,0.406c0.224,0,0.416-0.182,0.428-0.406
				l3.152-57.386c0.087-1.587,1.445-2.874,3.032-2.874h65.591c1.587,0,2.803,1.287,2.716,2.874l-3.152,57.386
				c-0.012,0.224,0.159,0.406,0.384,0.406c0.224,0,0.416-0.182,0.428-0.406l3.152-57.386c0.087-1.587,1.445-2.874,3.032-2.874
				h63.117c0.224,0,0.416-0.182,0.428-0.406C381.359,203.892,381.187,203.71,380.963,203.71z"/>
		</g>
		<g>
			<polygon style="opacity:0.4;fill:#263238;" points="278.054,153.445 252.702,153.445 251.285,179.229 276.601,179.906 			"/>
			<path style="fill:#FFFFFF;" d="M275.305,178.798c-8.481-0.413-16.963-0.827-25.446-1.24c1.408-8.764,2.291-17.549,2.647-26.31
				c8.533,0.413,17.065,0.826,25.595,1.24C277.696,161.249,276.763,170.036,275.305,178.798z"/>
		</g>
		<g>
			<polygon style="opacity:0.4;fill:#263238;" points="308.617,170.67 283.232,172.606 283.789,198.315 309.188,197.054 			"/>
			<path style="fill:#407BFF;" d="M307.806,196.052c-8.523,0.237-17.048,0.474-25.573,0.711c0.739-8.809,0.95-17.599,0.635-26.325
				c8.575-0.241,17.15-0.483,25.722-0.723C308.855,178.446,308.594,187.242,307.806,196.052z"/>
		</g>
		<g>
			<polygon style="opacity:0.4;fill:#263238;" points="234.477,217.563 187.675,215.776 183.475,257.411 230.167,260.291 			"/>
			<path style="fill:#FFFFFF;" d="M227.844,258.406c-15.631-1.267-31.264-2.535-46.898-3.802c3.139-14.086,5.309-28.244,6.504-42.4
				c15.727,1.27,31.451,2.54,47.173,3.811C233.336,230.17,231.073,244.327,227.844,258.406z"/>
		</g>
		<g style="opacity:0.3;">
			<path style="fill:#263238;" d="M186.307,159.271L186.307,159.271c-1.451,0-2.573-1.187-2.494-2.639l0,0
				c0.08-1.451,1.332-2.639,2.784-2.639l0,0c1.451,0,2.573,1.187,2.494,2.639l0,0C189.011,158.084,187.758,159.271,186.307,159.271z
				"/>
			<path style="opacity:0.8;fill:#263238;" d="M227.663,159.271h-32.474c-1.451,0-2.573-1.187-2.494-2.639l0,0
				c0.08-1.451,1.332-2.639,2.784-2.639h32.474c1.451,0,2.573,1.187,2.494,2.639l0,0
				C230.367,158.084,229.114,159.271,227.663,159.271z"/>
			<path style="fill:#263238;" d="M185.675,170.777L185.675,170.777c-1.451,0-2.573-1.187-2.494-2.638l0,0
				c0.08-1.451,1.332-2.639,2.783-2.639l0,0c1.451,0,2.573,1.187,2.494,2.639l0,0C188.379,169.59,187.126,170.777,185.675,170.777z"
				/>
			<path style="opacity:0.8;fill:#263238;" d="M232.782,170.777h-38.225c-1.451,0-2.573-1.187-2.493-2.638l0,0
				c0.08-1.451,1.332-2.639,2.783-2.639h38.225c1.451,0,2.573,1.187,2.494,2.639l0,0
				C235.485,169.59,234.233,170.777,232.782,170.777z"/>
			<path style="fill:#263238;" d="M185.043,182.284L185.043,182.284c-1.451,0-2.573-1.187-2.494-2.639l0,0
				c0.08-1.451,1.332-2.639,2.784-2.639l0,0c1.451,0,2.573,1.187,2.494,2.639l0,0C187.747,181.097,186.494,182.284,185.043,182.284z
				"/>
			<path style="opacity:0.8;fill:#263238;" d="M212.53,182.284h-18.605c-1.451,0-2.573-1.187-2.494-2.639l0,0
				c0.08-1.451,1.332-2.639,2.783-2.639h18.605c1.451,0,2.573,1.187,2.494,2.639l0,0
				C215.233,181.097,213.981,182.284,212.53,182.284z"/>
			<path style="opacity:0.8;fill:#263238;" d="M229.758,193.791h-18.605c-1.451,0-2.573-1.187-2.494-2.639l0,0
				c0.08-1.451,1.332-2.639,2.784-2.639h18.605c1.451,0,2.573,1.187,2.494,2.639l0,0
				C232.462,192.604,231.21,193.791,229.758,193.791z"/>
			<path style="fill:#263238;" d="M184.411,193.791L184.411,193.791c-1.451,0-2.573-1.187-2.494-2.639l0,0
				c0.08-1.451,1.332-2.639,2.783-2.639l0,0c1.451,0,2.573,1.187,2.494,2.639l0,0C187.115,192.604,185.862,193.791,184.411,193.791z
				"/>
			<path style="opacity:0.8;fill:#263238;" d="M201.885,193.791h-8.592c-1.451,0-2.573-1.187-2.494-2.639l0,0
				c0.08-1.451,1.332-2.639,2.783-2.639h8.592c1.451,0,2.573,1.187,2.494,2.639l0,0
				C204.588,192.604,203.336,193.791,201.885,193.791z"/>
		</g>
		<g>
			<polygon style="fill:#407BFF;" points="265.145,228.031 252.552,228.031 250.821,259.539 263.414,259.539 			"/>
			<polygon style="fill:#407BFF;" points="284.245,234.526 271.652,234.526 270.279,259.539 282.871,259.539 			"/>
			<polygon style="fill:#407BFF;" points="304.624,217.747 292.031,217.747 289.736,259.539 302.328,259.539 			"/>
			<g>
				<path style="fill:#FFFFFF;" d="M255.355,245.81c-1.247,0-2.504-0.033-3.776-0.098c-2.199-0.113-5.052-0.391-7.618-1.545
					c-0.409-0.184-0.591-0.665-0.407-1.074c0.184-0.409,0.664-0.591,1.073-0.408c2.319,1.043,4.978,1.298,7.035,1.404
					c15.109,0.777,28.34-3.158,41.656-12.383c3.175-2.199,7.915-6.268,10.828-10.496c0.254-0.37,0.76-0.462,1.129-0.208
					c0.369,0.254,0.462,0.76,0.208,1.129c-3.033,4.405-7.795,8.524-11.24,10.91C281.736,241.706,269.286,245.81,255.355,245.81z"/>
				<path style="fill:#FFFFFF;" d="M307.358,227.432c-0.103,0-0.208-0.02-0.31-0.062c-0.415-0.171-0.611-0.646-0.44-1.06
					c1.15-2.784,1.392-5.914,0.699-8.746c-3.165,2.128-6.544,3.923-10.06,5.341c-0.417,0.167-0.889-0.033-1.057-0.449
					c-0.168-0.416,0.033-0.889,0.449-1.057c3.748-1.512,7.337-3.465,10.666-5.804c0.209-0.147,0.476-0.187,0.719-0.107
					c0.244,0.08,0.435,0.269,0.517,0.512c1.167,3.457,1.009,7.441-0.433,10.931C307.979,227.243,307.677,227.432,307.358,227.432z"
					/>
			</g>
		</g>
		<g>
			<path style="fill:#407BFF;" d="M373.669,196.369h-46.844c-0.795,0-1.527-0.311-2.061-0.875c-0.535-0.565-0.806-1.315-0.762-2.111
				l2.175-39.601c0.089-1.622,1.482-2.941,3.104-2.941h46.844c0.795,0,1.527,0.311,2.061,0.875c0.535,0.565,0.806,1.315,0.762,2.111
				l-2.175,39.6C376.684,195.049,375.291,196.369,373.669,196.369z M329.282,151.653c-1.198,0-2.227,0.975-2.293,2.174l-2.175,39.6
				c-0.031,0.571,0.161,1.107,0.54,1.509c0.379,0.4,0.901,0.621,1.471,0.621h46.844c1.198,0,2.227-0.975,2.293-2.174l2.175-39.601
				c0.031-0.571-0.161-1.107-0.54-1.508c-0.379-0.4-0.901-0.621-1.471-0.621H329.282z"/>
			<path style="fill:#407BFF;" d="M378.103,162.203h-51.959c-0.224,0-0.406-0.182-0.406-0.406c0-0.224,0.182-0.406,0.406-0.406
				h51.959c0.224,0,0.406,0.182,0.406,0.406C378.509,162.021,378.328,162.203,378.103,162.203z"/>
			<path style="fill:#407BFF;" d="M336.536,196.369c-0.008,0-0.015,0-0.023-0.001c-0.224-0.012-0.395-0.204-0.383-0.428
				l1.877-34.165c0.012-0.224,0.201-0.399,0.428-0.383c0.224,0.012,0.395,0.204,0.383,0.428l-1.877,34.166
				C336.929,196.201,336.75,196.369,336.536,196.369z"/>
			<g>
				<path style="fill:#407BFF;" d="M372.152,166.262h-28.209c-0.224,0-0.406-0.182-0.406-0.406s0.182-0.406,0.406-0.406h28.209
					c0.224,0,0.406,0.182,0.406,0.406S372.376,166.262,372.152,166.262z"/>
				<path style="fill:#407BFF;" d="M367.902,171.244h-24.233c-0.224,0-0.406-0.182-0.406-0.406c0-0.224,0.182-0.406,0.406-0.406
					h24.233c0.224,0,0.406,0.182,0.406,0.406C368.308,171.062,368.126,171.244,367.902,171.244z"/>
				<path style="fill:#407BFF;" d="M357.492,176.385h-14.105c-0.224,0-0.406-0.182-0.406-0.406s0.182-0.406,0.406-0.406h14.105
					c0.224,0,0.406,0.182,0.406,0.406S357.716,176.385,357.492,176.385z"/>
				<path style="fill:#407BFF;" d="M360.054,186.417h-17.218c-0.224,0-0.406-0.182-0.406-0.406c0-0.224,0.182-0.406,0.406-0.406
					h17.218c0.224,0,0.406,0.182,0.406,0.406C360.46,186.236,360.278,186.417,360.054,186.417z"/>
				<path style="fill:#407BFF;" d="M356.658,191.558h-14.105c-0.224,0-0.406-0.182-0.406-0.406c0-0.224,0.182-0.406,0.406-0.406
					h14.105c0.224,0,0.406,0.182,0.406,0.406C357.064,191.376,356.882,191.558,356.658,191.558z"/>
				<path style="fill:#407BFF;" d="M364.915,191.558h-4.52c-0.224,0-0.406-0.182-0.406-0.406c0-0.224,0.182-0.406,0.406-0.406h4.52
					c0.224,0,0.406,0.182,0.406,0.406C365.321,191.376,365.139,191.558,364.915,191.558z"/>
				<path style="fill:#407BFF;" d="M369.527,181.366h-26.414c-0.224,0-0.406-0.182-0.406-0.406s0.182-0.406,0.406-0.406h26.414
					c0.224,0,0.406,0.182,0.406,0.406S369.751,181.366,369.527,181.366z"/>
			</g>
		</g>
		<path style="fill:#FFFFFF;" d="M344.904,253.981c-6.12,0-11.134-1.809-14.249-5.173c-3.325-3.591-4.704-9.239-3.785-15.495
			c0.563-3.832,1.815-7.047,3.722-9.557c1.914-2.518,4.682-4.594,8.228-6.171c7.824-3.48,16.88-3.358,24.226,0.327
			c3.292,1.651,5.354,3.74,6.131,6.208c0.135,0.427-0.103,0.883-0.531,1.018c-0.428,0.135-0.883-0.103-1.018-0.531
			c-0.64-2.033-2.427-3.798-5.311-5.244c-6.915-3.469-15.453-3.578-22.838-0.294c-3.293,1.465-5.848,3.372-7.595,5.67
			c-1.739,2.288-2.886,5.253-3.409,8.81c-0.848,5.768,0.38,10.928,3.37,14.156c4.155,4.488,11.034,4.809,14.765,4.604
			c6.936-0.384,12.903-2.807,16.802-6.822c4.56-4.695,5.839-11.719,2.974-16.338c-0.555-0.895-1.749-2.422-3.503-2.597
			c-0.446-0.044-0.772-0.442-0.727-0.888c0.044-0.446,0.445-0.769,0.888-0.727c1.815,0.181,3.491,1.373,4.722,3.357
			c3.246,5.233,1.875,13.111-3.188,18.326c-4.185,4.308-10.533,6.904-17.877,7.312C346.093,253.964,345.493,253.981,344.904,253.981
			z"/>
	</g>
</g>
<g id="Character_1_">
	<g>
		<path style="fill:#FFC3BD;" d="M137.319,169.335l-2.884,5.026l-2.826,5.132c-1.861,3.429-3.639,6.886-5.262,10.36
			c-0.808,1.742-1.577,3.476-2.279,5.219l-0.13,0.315c-0.011,0.025-0.025,0.05-0.042,0.075c-0.045,0.051-0.06,0.095-0.086,0.138
			c-0.054,0.088-0.089,0.173-0.136,0.287c-0.075,0.225-0.046,0.61,0.12,1.121c0.318,1.038,1.257,2.392,2.409,3.651
			c1.129,1.268,2.59,2.564,3.905,3.701l-2.344,4.993c-1.191-0.34-2.182-0.683-3.232-1.142c-1.038-0.438-2.047-0.968-3.053-1.566
			c-1.987-1.227-3.983-2.744-5.636-5.227c-0.804-1.243-1.493-2.781-1.763-4.561c-0.123-0.886-0.167-1.814-0.053-2.718
			c0.051-0.454,0.117-0.905,0.23-1.333l0.163-0.65l0.123-0.395c0.643-2.045,1.308-4.068,2.089-6.019
			c1.52-3.925,3.232-7.718,5.1-11.41c0.933-1.847,1.901-3.672,2.92-5.469c1.025-1.812,2.023-3.561,3.196-5.387L137.319,169.335z"/>
		<path style="fill:#FFC3BD;" d="M127.599,203.796l5.255-1.366l0.301,8.483c0,0-4.11,0.611-6.627-1.904L127.599,203.796z"/>
		<polygon style="fill:#FFC3BD;" points="140.299,201 139.114,208.448 133.154,210.913 132.853,202.43 		"/>
		<path style="fill:#263238;" d="M162.033,129.357c0.118,0.581,0.521,0.989,0.901,0.912c0.38-0.077,0.591-0.61,0.473-1.191
			c-0.118-0.581-0.521-0.989-0.901-0.912C162.127,128.244,161.915,128.777,162.033,129.357z"/>
		<path style="fill:#ED847E;" d="M162.501,130.357c0,0,2.001,3.082,3.783,4.402c-0.832,1.168-2.668,1.085-2.668,1.085
			L162.501,130.357z"/>
		<path style="fill:#263238;" d="M159.252,126.565c-0.084,0-0.169-0.031-0.236-0.092c-0.141-0.131-0.15-0.351-0.019-0.492
			c1.307-1.414,2.892-1.163,2.96-1.151c0.189,0.032,0.317,0.212,0.285,0.401c-0.033,0.189-0.214,0.315-0.4,0.285l0,0
			c-0.052-0.008-1.292-0.19-2.335,0.937C159.439,126.528,159.346,126.565,159.252,126.565z"/>
		<path style="fill:#FFC3BD;" d="M145.492,137.525c1.054,5.374,2.105,15.222-1.655,18.808c0,0,1.469,5.452,11.455,5.452
			c10.981,0,5.248-5.451,5.248-5.451c-5.993-1.431-5.838-5.878-4.794-10.053L145.492,137.525z"/>
		<path style="fill:#263238;" d="M141.671,157.33c-0.803-1.493-1.687-3.202,0.142-3.737c2.012-0.589,14.936-1.681,18.733-0.576
			c-1.167,2.075,0.808,4.625,0.808,4.625L141.671,157.33z"/>
		<path style="fill:#407BFF;" d="M109.138,407.882c0.737,0.159,1.474,0.202,1.829-0.1c0.149-0.127,0.299-0.37,0.169-0.808
			c-0.068-0.23-0.219-0.403-0.448-0.512c-0.992-0.474-3.271,0.456-3.369,0.495c-0.063,0.026-0.105,0.087-0.107,0.156
			c-0.002,0.069,0.036,0.132,0.098,0.162C107.658,407.442,108.398,407.721,109.138,407.882z M110.333,406.707
			c0.075,0.016,0.144,0.039,0.204,0.068c0.138,0.066,0.225,0.163,0.265,0.297c0.093,0.313-0.023,0.412-0.061,0.444
			c-0.395,0.336-1.862,0.026-2.895-0.387C108.547,406.882,109.681,406.566,110.333,406.707z"/>
		<path style="fill:#407BFF;" d="M107.349,407.287c0.028,0.006,0.057,0.005,0.086-0.003c0.83-0.243,2.607-1.505,2.629-2.338
			c0.004-0.151-0.049-0.425-0.445-0.563c-0.257-0.09-0.516-0.068-0.771,0.062c-0.982,0.501-1.602,2.536-1.628,2.622
			c-0.018,0.061-0.002,0.127,0.043,0.173C107.286,407.264,107.316,407.28,107.349,407.287z M109.428,404.69
			c0.025,0.005,0.051,0.013,0.076,0.022c0.215,0.075,0.212,0.18,0.211,0.225c-0.012,0.492-1.185,1.483-2.045,1.884
			c0.215-0.587,0.706-1.745,1.335-2.066C109.149,404.681,109.288,404.66,109.428,404.69z"/>
		<path style="fill:#407BFF;" d="M163.377,409.114c0.943,0,1.854-0.13,2.159-0.553c0.107-0.148,0.191-0.401-0.015-0.76
			c-0.115-0.202-0.301-0.339-0.551-0.407c-1.223-0.332-3.79,1.131-3.899,1.193c-0.063,0.036-0.097,0.107-0.085,0.179
			c0.012,0.072,0.067,0.128,0.138,0.143C161.592,409.001,162.498,409.114,163.377,409.114z M164.542,407.689
			c0.123,0,0.236,0.012,0.336,0.04c0.161,0.044,0.272,0.123,0.341,0.243c0.123,0.216,0.078,0.323,0.034,0.385
			c-0.342,0.475-2.199,0.486-3.564,0.293C162.369,408.3,163.683,407.689,164.542,407.689z"/>
		<path style="fill:#407BFF;" d="M161.158,408.911c0.024,0,0.048-0.005,0.071-0.015c0.887-0.398,2.643-1.987,2.509-2.817
			c-0.032-0.195-0.17-0.438-0.648-0.486c-0.357-0.036-0.68,0.064-0.965,0.298c-0.935,0.767-1.132,2.746-1.141,2.83
			c-0.006,0.061,0.021,0.122,0.072,0.158C161.086,408.9,161.122,408.911,161.158,408.911z M162.95,405.933
			c0.034,0,0.069,0.002,0.105,0.005c0.313,0.032,0.333,0.155,0.339,0.196c0.081,0.498-1.113,1.747-2.018,2.291
			c0.094-0.578,0.356-1.762,0.97-2.265C162.531,406.007,162.729,405.933,162.95,405.933z"/>
		<polygon style="fill:#FFC3BD;" points="153.079,408.737 160.426,408.737 161.157,391.724 153.811,391.724 		"/>
		<polygon style="fill:#FFC3BD;" points="99.16,405.336 106.34,406.891 113.548,391.045 106.368,389.49 		"/>
		<path style="fill:#263238;" d="M107.03,406.17l-8.066-1.746c-0.294-0.064-0.592,0.085-0.717,0.358l-2.8,6.075
			c-0.29,0.63,0.094,1.369,0.775,1.504c2.826,0.561,4.23,0.692,7.778,1.46c2.182,0.472,7.109,1.673,10.123,2.325
			c2.948,0.638,4.052-2.242,2.877-2.779c-5.27-2.408-7.472-4.528-8.898-6.504C107.843,406.507,107.459,406.263,107.03,406.17z"/>
		<path style="fill:#263238;" d="M160.377,407.886h-8.023c-0.3,0-0.56,0.209-0.626,0.502l-1.451,6.53
			c-0.15,0.677,0.364,1.319,1.057,1.307c2.894-0.049,7.076-0.219,10.713-0.219c4.253,0,7.926,0.232,12.914,0.232
			c3.016,0,3.853-3.049,2.59-3.325c-5.747-1.257-10.439-1.392-15.406-4.454C161.607,408.126,161.011,407.886,160.377,407.886z"/>
		<g>
			<path style="fill:#407BFF;" d="M130.684,157.994c-6.885,1.579-12.562,19.156-12.562,19.156l13.827,10.539
				c0,0,5.075-4.785,7.333-13.577C141.648,164.899,137.724,156.38,130.684,157.994z"/>
			<path style="opacity:0.2;fill:#FAFAFA;" d="M130.684,157.994c-6.885,1.579-12.562,19.156-12.562,19.156l13.827,10.539
				c0,0,5.075-4.785,7.333-13.577C141.648,164.899,137.724,156.38,130.684,157.994z"/>
		</g>
		<path style="opacity:0.2;" d="M136.585,170.92c-3.74,3.7-4.96,10.44-5.25,16.3l0.61,0.47c0,0,5.08-4.79,7.34-13.58
			c0.14-0.55,0.26-1.1,0.36-1.64L136.585,170.92z"/>
		<g>
			<path style="fill:#407BFF;" d="M171.84,158.372c0,0,7.819,8.832,0.435,63.497c-11.839,0-33.532,0-39.293,0
				c-0.271-6.032,3.519-35.456-2.298-63.876c0,0,6.735-1.352,13.154-1.661c5.021-0.242,12.289-0.402,16.703,0.001
				C166.359,156.864,171.84,158.372,171.84,158.372z"/>
			<path style="opacity:0.2;fill:#FAFAFA;" d="M171.84,158.372c0,0,7.819,8.832,0.435,63.497c-11.839,0-33.532,0-39.293,0
				c-0.271-6.032,3.519-35.456-2.298-63.876c0,0,6.735-1.352,13.154-1.661c5.021-0.242,12.289-0.402,16.703,0.001
				C166.359,156.864,171.84,158.372,171.84,158.372z"/>
		</g>
		<path style="opacity:0.2;" d="M175.275,175.08l-0.15-0.13l-8.93,2.14c-0.51,6.04,5.7,13.26,8.9,16.56
			C175.535,185.94,175.525,179.86,175.275,175.08z"/>
		<g>
			<polygon style="opacity:0.2;" points="161.156,391.729 160.78,400.498 153.43,400.498 153.806,391.729 			"/>
			<polygon style="opacity:0.2;" points="106.365,389.494 113.548,391.049 109.828,399.216 102.646,397.661 			"/>
		</g>
		<path style="fill:#FFC3BD;" d="M142.415,132.063c1.887,7.042,2.634,11.26,6.98,14.188c6.537,4.405,14.676-0.65,14.931-8.115
			c0.229-6.719-2.896-17.107-10.453-18.526C146.427,118.213,140.528,125.021,142.415,132.063z"/>
		<path style="fill:#263238;" d="M145.649,143.547c2.994,1.714,13.911-4.013,11.669-12.693c0,0,4.159-5.001,3.689-10.52
			c-0.47-5.519-4.258-7.622-8.288-6.438c-3.552,1.044-3.449,2.989-3.449,2.989s-16.788,1.976-13.205,8.8
			C129.232,133.135,141.912,141.408,145.649,143.547z"/>
		<path style="fill:#263238;" d="M136.536,126.253c0,0-2-3.461-4.917-1.523C132.995,124.75,135.245,124.985,136.536,126.253z"/>
		<path style="fill:#263238;" d="M160.472,123.971c0,0,3.659-8.259-2.045-10.918C160.35,115.729,161.396,120.049,160.472,123.971z"
			/>
		<path style="fill:#FFC3BD;" d="M154.398,132.358c0.479,1.848,1.694,3.438,2.965,4.383c1.912,1.422,3.34,0.022,3.204-2.141
			c-0.122-1.947-1.264-5.034-3.373-5.611C155.115,128.421,153.85,130.245,154.398,132.358z"/>
		<path style="fill:#263238;" d="M158.336,221.87c0,0-8.337,56.142-12.914,77.175c-5.012,23.033-31.888,99.236-31.888,99.236
			l-13.151-2.847c0,0,18.793-62.101,23-94.301c3.231-24.734,9.599-79.263,9.599-79.263H158.336z"/>
		<path style="fill:#407BFF;" d="M116.683,393.891c0.056,0.012-2.451,4.756-2.451,4.756l-14.796-3.203l1.247-4.448L116.683,393.891z
			"/>
		<path style="opacity:0.3;" d="M153.067,241.873c-9.64,1.89-8.62,37.84-7.46,56.33c2.78-13.07,6.85-38.22,9.63-56.07
			C154.597,241.813,153.877,241.713,153.067,241.873z"/>
		<path style="fill:#263238;" d="M172.275,221.87c0,0,1.012,54.927,0.213,77.33c-0.831,23.302-8.97,99.601-8.97,99.601h-12.445
			c0,0-0.457-74.937-1.01-97.822c-0.604-24.949-3.616-79.108-3.616-79.108H172.275z"/>
		<polygon style="opacity:0.4;fill:#263238;" points="241.363,183.146 216.011,183.146 214.595,208.93 239.91,209.607 		"/>
		<path style="fill:#407BFF;" d="M228.037,199.735c-8.463-1.044-16.926-2.089-25.391-3.133c2.052-8.599,3.579-17.258,4.577-25.932
			c8.514,1.048,17.028,2.095,25.54,3.143C231.716,182.486,230.139,191.143,228.037,199.735z"/>
		<path style="fill:#407BFF;" d="M165.912,393.843c0.057,0-0.702,5.167-0.702,5.167h-15.139l-0.409-4.611L165.912,393.843z"/>
		<path style="fill:#FFC3BD;" d="M175.464,165.074c1.129,1.759,2.417,3.735,3.702,5.56c1.311,1.841,2.62,3.682,3.999,5.451
			c2.733,3.542,5.631,6.945,8.752,9.769c0.773,0.715,1.564,1.377,2.363,1.988l0.6,0.452c-0.054-0.032-0.245-0.096-0.352-0.121
			c-0.261-0.05-0.388-0.005-0.318,0.031c0.152,0.079,0.883-0.047,1.646-0.378c0.775-0.329,1.656-0.775,2.529-1.313
			c3.517-2.18,7.149-5.226,10.563-8.186l4.291,3.466c-2.662,4.289-5.592,8.168-9.617,11.733c-1.023,0.879-2.118,1.752-3.437,2.529
			c-1.326,0.765-2.833,1.548-5.045,1.874c-1.105,0.144-2.443,0.116-3.824-0.324c-0.674-0.2-1.386-0.556-1.943-0.898l-0.867-0.549
			c-1.145-0.741-2.234-1.522-3.268-2.337c-4.135-3.276-7.587-6.97-10.771-10.812c-1.567-1.938-3.086-3.899-4.494-5.936
			c-1.425-2.058-2.763-4.026-4.089-6.318L175.464,165.074z"/>
		<g>
			<path style="fill:#407BFF;" d="M161.033,169.484c-2.35,9.849,15.471,19.494,15.471,19.494l11.575-13.562
				c0,0-5.27-7.986-11.826-14.278C168.155,153.366,162.821,161.987,161.033,169.484z"/>
			<path style="opacity:0.2;fill:#FAFAFA;" d="M161.033,169.484c-2.35,9.849,15.471,19.494,15.471,19.494l11.575-13.562
				c0,0-5.27-7.986-11.826-14.278C168.155,153.366,162.821,161.987,161.033,169.484z"/>
		</g>
		<path style="fill:#FFC3BD;" d="M207.784,180.376l2.732-8.773l7.19,3.583c0,0-1.048,6.401-6.281,7.511L207.784,180.376z"/>
		<polygon style="fill:#FFC3BD;" points="213.399,169.171 219.883,170.955 217.705,175.185 210.515,171.603 		"/>
	</g>
</g>
</svg>
