<?xml version="1.0" encoding="utf-8"?>
<!-- Generator: Adobe Illustrator 27.5.0, SVG Export Plug-In . SVG Version: 6.00 Build 0)  -->
<svg version="1.1" xmlns="http://www.w3.org/2000/svg" xmlns:xlink="http://www.w3.org/1999/xlink" x="0px" y="0px"
	 viewBox="0 0 500 500" style="enable-background:new 0 0 500 500;" xml:space="preserve">
<g id="BACKGROUND">
	<rect style="fill:#FAFAFA;" width="500" height="500"/>
</g>
<g id="OBJECTS">
	<g>
		<g>
			
				<line style="fill:none;stroke:#E0E0E0;stroke-width:0.7941;stroke-linecap:round;stroke-linejoin:round;stroke-miterlimit:10;" x1="46.5" y1="359" x2="453.5" y2="359"/>
			
				<line style="fill:none;stroke:#E0E0E0;stroke-width:0.7941;stroke-linecap:round;stroke-linejoin:round;stroke-miterlimit:10;" x1="46.5" y1="347" x2="453.5" y2="347"/>
			
				<line style="fill:none;stroke:#E0E0E0;stroke-width:0.7941;stroke-linecap:round;stroke-linejoin:round;stroke-miterlimit:10;" x1="46.5" y1="335" x2="453.5" y2="335"/>
			
				<line style="fill:none;stroke:#E0E0E0;stroke-width:0.7941;stroke-linecap:round;stroke-linejoin:round;stroke-miterlimit:10;" x1="46.5" y1="323" x2="453.5" y2="323"/>
			
				<line style="fill:none;stroke:#E0E0E0;stroke-width:0.7941;stroke-linecap:round;stroke-linejoin:round;stroke-miterlimit:10;" x1="46.5" y1="311" x2="453.5" y2="311"/>
			
				<line style="fill:none;stroke:#E0E0E0;stroke-width:0.7941;stroke-linecap:round;stroke-linejoin:round;stroke-miterlimit:10;" x1="46.5" y1="299" x2="453.5" y2="299"/>
			
				<line style="fill:none;stroke:#E0E0E0;stroke-width:0.7941;stroke-linecap:round;stroke-linejoin:round;stroke-miterlimit:10;" x1="46.5" y1="287" x2="453.5" y2="287"/>
			
				<line style="fill:none;stroke:#E0E0E0;stroke-width:0.7941;stroke-linecap:round;stroke-linejoin:round;stroke-miterlimit:10;" x1="46.5" y1="275" x2="453.5" y2="275"/>
			
				<line style="fill:none;stroke:#E0E0E0;stroke-width:0.7941;stroke-linecap:round;stroke-linejoin:round;stroke-miterlimit:10;" x1="46.5" y1="263" x2="453.5" y2="263"/>
			
				<line style="fill:none;stroke:#E0E0E0;stroke-width:0.7941;stroke-linecap:round;stroke-linejoin:round;stroke-miterlimit:10;" x1="46.5" y1="251" x2="453.5" y2="251"/>
			
				<line style="fill:none;stroke:#E0E0E0;stroke-width:0.7941;stroke-linecap:round;stroke-linejoin:round;stroke-miterlimit:10;" x1="46.5" y1="239" x2="453.5" y2="239"/>
			
				<line style="fill:none;stroke:#E0E0E0;stroke-width:0.7941;stroke-linecap:round;stroke-linejoin:round;stroke-miterlimit:10;" x1="46.5" y1="227" x2="453.5" y2="227"/>
			
				<line style="fill:none;stroke:#E0E0E0;stroke-width:0.7941;stroke-linecap:round;stroke-linejoin:round;stroke-miterlimit:10;" x1="46.5" y1="215" x2="453.5" y2="215"/>
			
				<line style="fill:none;stroke:#E0E0E0;stroke-width:0.7941;stroke-linecap:round;stroke-linejoin:round;stroke-miterlimit:10;" x1="46.5" y1="203" x2="453.5" y2="203"/>
			
				<line style="fill:none;stroke:#E0E0E0;stroke-width:0.7941;stroke-linecap:round;stroke-linejoin:round;stroke-miterlimit:10;" x1="46.5" y1="191" x2="453.5" y2="191"/>
			
				<line style="fill:none;stroke:#E0E0E0;stroke-width:0.7941;stroke-linecap:round;stroke-linejoin:round;stroke-miterlimit:10;" x1="46.5" y1="179" x2="453.5" y2="179"/>
			
				<line style="fill:none;stroke:#E0E0E0;stroke-width:0.7941;stroke-linecap:round;stroke-linejoin:round;stroke-miterlimit:10;" x1="46.5" y1="167" x2="453.5" y2="167"/>
			
				<line style="fill:none;stroke:#E0E0E0;stroke-width:0.7941;stroke-linecap:round;stroke-linejoin:round;stroke-miterlimit:10;" x1="46.5" y1="155" x2="453.5" y2="155"/>
			
				<line style="fill:none;stroke:#E0E0E0;stroke-width:0.7941;stroke-linecap:round;stroke-linejoin:round;stroke-miterlimit:10;" x1="46.5" y1="143" x2="453.5" y2="143"/>
			
				<line style="fill:none;stroke:#E0E0E0;stroke-width:0.7941;stroke-linecap:round;stroke-linejoin:round;stroke-miterlimit:10;" x1="46.5" y1="131" x2="453.5" y2="131"/>
			
				<line style="fill:none;stroke:#E0E0E0;stroke-width:0.7941;stroke-linecap:round;stroke-linejoin:round;stroke-miterlimit:10;" x1="46.5" y1="119" x2="453.5" y2="119"/>
			
				<line style="fill:none;stroke:#E0E0E0;stroke-width:0.7941;stroke-linecap:round;stroke-linejoin:round;stroke-miterlimit:10;" x1="46.5" y1="107" x2="453.5" y2="107"/>
			
				<line style="fill:none;stroke:#E0E0E0;stroke-width:0.7941;stroke-linecap:round;stroke-linejoin:round;stroke-miterlimit:10;" x1="46.5" y1="95" x2="453.5" y2="95"/>
			
				<line style="fill:none;stroke:#E0E0E0;stroke-width:0.7941;stroke-linecap:round;stroke-linejoin:round;stroke-miterlimit:10;" x1="46.5" y1="83" x2="453.5" y2="83"/>
			
				<line style="fill:none;stroke:#E0E0E0;stroke-width:0.7941;stroke-linecap:round;stroke-linejoin:round;stroke-miterlimit:10;" x1="46.5" y1="71" x2="453.5" y2="71"/>
		</g>
		<g>
			<path style="fill:#4C4F60;" d="M453.5,361.594h-407c-0.828,0-1.5-0.672-1.5-1.5c0-0.828,0.672-1.5,1.5-1.5h407
				c0.828,0,1.5,0.672,1.5,1.5C455,360.922,454.328,361.594,453.5,361.594z"/>
		</g>
	</g>
	<g>
		<linearGradient id="SVGID_1_" gradientUnits="userSpaceOnUse" x1="86.7679" y1="307.8343" x2="113.7631" y2="377.947">
			<stop  offset="0" style="stop-color:#FDC830"/>
			<stop  offset="1" style="stop-color:#F37335"/>
		</linearGradient>
		<polygon style="fill:url(#SVGID_1_);" points="130.575,323 99.538,299 68.5,323 68.5,359 130.575,359 		"/>
		<g>
			<rect x="68.5" y="370.972" style="fill:#FBB831;" width="62.075" height="13"/>
			<text transform="matrix(1 0 0 1 83.667 380.4434)" style="fill:#FFFFFF; font-family:'Montserrat-Regular'; font-size:8px;">January</text>
			<rect x="69.538" y="391.148" style="fill:none;" width="64.492" height="20.602"/>
			<text transform="matrix(1 0 0 1 69.5376 394.858)"><tspan x="0" y="0" style="fill:#BDBDBD; font-family:'Montserrat-Regular'; font-size:5px;">Lorem</tspan><tspan x="16.409" y="0" style="fill:#BDBDBD; font-family:'Montserrat-Regular'; font-size:5px; letter-spacing:3;"> </tspan><tspan x="20.875" y="0" style="fill:#BDBDBD; font-family:'Montserrat-Regular'; font-size:5px;">ipsum</tspan><tspan x="36.725" y="0" style="fill:#BDBDBD; font-family:'Montserrat-Regular'; font-size:5px; letter-spacing:3;"> </tspan><tspan x="41.191" y="0" style="fill:#BDBDBD; font-family:'Montserrat-Regular'; font-size:5px;">dolor</tspan><tspan x="54.2" y="0" style="fill:#BDBDBD; font-family:'Montserrat-Regular'; font-size:5px; letter-spacing:3;"> </tspan><tspan x="58.666" y="0" style="fill:#BDBDBD; font-family:'Montserrat-Regular'; font-size:5px;">sit </tspan><tspan x="0" y="7" style="fill:#BDBDBD; font-family:'Montserrat-Regular'; font-size:5px;">amet,</tspan><tspan x="14.364" y="7" style="fill:#BDBDBD; font-family:'Montserrat-Regular'; font-size:5px;"> </tspan><tspan x="16.353" y="7" style="fill:#BDBDBD; font-family:'Montserrat-Regular'; font-size:5px;">consectetu</tspan><tspan x="44.411" y="7" style="fill:#BDBDBD; font-family:'Montserrat-Regular'; font-size:5px;"> </tspan><tspan x="46.4" y="7" style="fill:#BDBDBD; font-family:'Montserrat-Regular'; font-size:5px;">er</tspan><tspan x="51.425" y="7" style="fill:#BDBDBD; font-family:'Montserrat-Regular'; font-size:5px;"> </tspan><tspan x="53.413" y="7" style="fill:#BDBDBD; font-family:'Montserrat-Regular'; font-size:5px;">adip </tspan><tspan x="7.047" y="14" style="fill:#BDBDBD; font-family:'Montserrat-Regular'; font-size:5px;">iscing elit, sed diam.</tspan></text>
		</g>
		<text transform="matrix(1 0 0 1 80.5449 287)" style="fill:#FDC730; font-family:'BebasNeueRegular'; font-size:22.8968px;">+12.2</text>
	</g>
	<g>
		
			<linearGradient id="SVGID_00000170263025122397612080000017730827672783276221_" gradientUnits="userSpaceOnUse" x1="154.6203" y1="264.135" x2="196.6936" y2="374.5256">
			<stop  offset="0" style="stop-color:#FF839D"/>
			<stop  offset="1" style="stop-color:#F50B9A"/>
		</linearGradient>
		<polygon style="fill:url(#SVGID_00000170263025122397612080000017730827672783276221_);" points="205.806,275 174.769,251 
			143.731,275 143.731,359 205.806,359 		"/>
		<g>
			<rect x="143.731" y="370.972" style="fill:#FB569C;" width="62.075" height="13"/>
			<text transform="matrix(1 0 0 1 156.6814 380.4434)" style="fill:#FFFFFF; font-family:'Montserrat-Regular'; font-size:8px;">February</text>
			<rect x="142.523" y="391.148" style="fill:none;" width="64.492" height="20.602"/>
			<text transform="matrix(1 0 0 1 142.5226 394.858)"><tspan x="0" y="0" style="fill:#BDBDBD; font-family:'Montserrat-Regular'; font-size:5px;">Lorem</tspan><tspan x="16.409" y="0" style="fill:#BDBDBD; font-family:'Montserrat-Regular'; font-size:5px; letter-spacing:3;"> </tspan><tspan x="20.875" y="0" style="fill:#BDBDBD; font-family:'Montserrat-Regular'; font-size:5px;">ipsum</tspan><tspan x="36.725" y="0" style="fill:#BDBDBD; font-family:'Montserrat-Regular'; font-size:5px; letter-spacing:3;"> </tspan><tspan x="41.191" y="0" style="fill:#BDBDBD; font-family:'Montserrat-Regular'; font-size:5px;">dolor</tspan><tspan x="54.2" y="0" style="fill:#BDBDBD; font-family:'Montserrat-Regular'; font-size:5px; letter-spacing:3;"> </tspan><tspan x="58.666" y="0" style="fill:#BDBDBD; font-family:'Montserrat-Regular'; font-size:5px;">sit </tspan><tspan x="0" y="7" style="fill:#BDBDBD; font-family:'Montserrat-Regular'; font-size:5px;">amet,</tspan><tspan x="14.364" y="7" style="fill:#BDBDBD; font-family:'Montserrat-Regular'; font-size:5px;"> </tspan><tspan x="16.353" y="7" style="fill:#BDBDBD; font-family:'Montserrat-Regular'; font-size:5px;">consectetu</tspan><tspan x="44.411" y="7" style="fill:#BDBDBD; font-family:'Montserrat-Regular'; font-size:5px;"> </tspan><tspan x="46.4" y="7" style="fill:#BDBDBD; font-family:'Montserrat-Regular'; font-size:5px;">er</tspan><tspan x="51.425" y="7" style="fill:#BDBDBD; font-family:'Montserrat-Regular'; font-size:5px;"> </tspan><tspan x="53.413" y="7" style="fill:#BDBDBD; font-family:'Montserrat-Regular'; font-size:5px;">adip </tspan><tspan x="7.047" y="14" style="fill:#BDBDBD; font-family:'Montserrat-Regular'; font-size:5px;">iscing elit, sed diam.</tspan></text>
		</g>
		<text transform="matrix(1 0 0 1 155.2155 239)" style="fill:#FF819D; font-family:'BebasNeueRegular'; font-size:22.8968px;">+23.5</text>
	</g>
	<g>
		
			<linearGradient id="SVGID_00000030488430584172402600000003379119327675780284_" gradientUnits="userSpaceOnUse" x1="235.2493" y1="255.891" x2="270.2947" y2="372.5665">
			<stop  offset="0" style="stop-color:#FF63DE"/>
			<stop  offset="1" style="stop-color:#B122E5"/>
		</linearGradient>
		<polygon style="fill:url(#SVGID_00000030488430584172402600000003379119327675780284_);" points="281.038,251 250.238,227 
			218.962,251 218.962,359 281.038,359 		"/>
		<g>
			<rect x="218.962" y="370.972" style="fill:#E850E0;" width="62.075" height="13"/>
			<text transform="matrix(1 0 0 1 237.2567 380.4434)" style="fill:#FFFFFF; font-family:'Montserrat-Regular'; font-size:8px;">March</text>
			<rect x="217.754" y="391.148" style="fill:none;" width="64.492" height="20.602"/>
			<text transform="matrix(1 0 0 1 217.7538 394.858)"><tspan x="0" y="0" style="fill:#BDBDBD; font-family:'Montserrat-Regular'; font-size:5px;">Lorem</tspan><tspan x="16.409" y="0" style="fill:#BDBDBD; font-family:'Montserrat-Regular'; font-size:5px; letter-spacing:3;"> </tspan><tspan x="20.875" y="0" style="fill:#BDBDBD; font-family:'Montserrat-Regular'; font-size:5px;">ipsum</tspan><tspan x="36.725" y="0" style="fill:#BDBDBD; font-family:'Montserrat-Regular'; font-size:5px; letter-spacing:3;"> </tspan><tspan x="41.191" y="0" style="fill:#BDBDBD; font-family:'Montserrat-Regular'; font-size:5px;">dolor</tspan><tspan x="54.2" y="0" style="fill:#BDBDBD; font-family:'Montserrat-Regular'; font-size:5px; letter-spacing:3;"> </tspan><tspan x="58.666" y="0" style="fill:#BDBDBD; font-family:'Montserrat-Regular'; font-size:5px;">sit </tspan><tspan x="0" y="7" style="fill:#BDBDBD; font-family:'Montserrat-Regular'; font-size:5px;">amet,</tspan><tspan x="14.364" y="7" style="fill:#BDBDBD; font-family:'Montserrat-Regular'; font-size:5px;"> </tspan><tspan x="16.353" y="7" style="fill:#BDBDBD; font-family:'Montserrat-Regular'; font-size:5px;">consectetu</tspan><tspan x="44.411" y="7" style="fill:#BDBDBD; font-family:'Montserrat-Regular'; font-size:5px;"> </tspan><tspan x="46.4" y="7" style="fill:#BDBDBD; font-family:'Montserrat-Regular'; font-size:5px;">er</tspan><tspan x="51.425" y="7" style="fill:#BDBDBD; font-family:'Montserrat-Regular'; font-size:5px;"> </tspan><tspan x="53.413" y="7" style="fill:#BDBDBD; font-family:'Montserrat-Regular'; font-size:5px;">adip </tspan><tspan x="7.047" y="14" style="fill:#BDBDBD; font-family:'Montserrat-Regular'; font-size:5px;">iscing elit, sed diam.</tspan></text>
		</g>
		<text transform="matrix(1 0 0 1 230.4467 215)" style="fill:#FF63DE; font-family:'BebasNeueRegular'; font-size:22.8968px;">+32.5</text>
	</g>
	<g>
		
			<linearGradient id="SVGID_00000178167495962545401920000006654540390899377055_" gradientUnits="userSpaceOnUse" x1="298.7362" y1="211.0477" x2="358.2494" y2="381.6519">
			<stop  offset="0" style="stop-color:#8E2DE2"/>
			<stop  offset="1" style="stop-color:#4A00E0"/>
		</linearGradient>
		<polygon style="fill:url(#SVGID_00000178167495962545401920000006654540390899377055_);" points="356.269,215 325.231,191 
			294.194,215 294.194,359 356.269,359 		"/>
		<g>
			<rect x="294.194" y="370.972" style="fill:#8225E2;" width="62.075" height="13"/>
			<text transform="matrix(1 0 0 1 315.8953 380.4434)" style="fill:#FFFFFF; font-family:'Montserrat-Regular'; font-size:8px;">April</text>
			<rect x="292.985" y="391.148" style="fill:none;" width="64.492" height="20.602"/>
			<text transform="matrix(1 0 0 1 292.985 394.858)"><tspan x="0" y="0" style="fill:#BDBDBD; font-family:'Montserrat-Regular'; font-size:5px;">Lorem</tspan><tspan x="16.409" y="0" style="fill:#BDBDBD; font-family:'Montserrat-Regular'; font-size:5px; letter-spacing:3;"> </tspan><tspan x="20.875" y="0" style="fill:#BDBDBD; font-family:'Montserrat-Regular'; font-size:5px;">ipsum</tspan><tspan x="36.725" y="0" style="fill:#BDBDBD; font-family:'Montserrat-Regular'; font-size:5px; letter-spacing:3;"> </tspan><tspan x="41.191" y="0" style="fill:#BDBDBD; font-family:'Montserrat-Regular'; font-size:5px;">dolor</tspan><tspan x="54.2" y="0" style="fill:#BDBDBD; font-family:'Montserrat-Regular'; font-size:5px; letter-spacing:3;"> </tspan><tspan x="58.666" y="0" style="fill:#BDBDBD; font-family:'Montserrat-Regular'; font-size:5px;">sit </tspan><tspan x="0" y="7" style="fill:#BDBDBD; font-family:'Montserrat-Regular'; font-size:5px;">amet,</tspan><tspan x="14.364" y="7" style="fill:#BDBDBD; font-family:'Montserrat-Regular'; font-size:5px;"> </tspan><tspan x="16.353" y="7" style="fill:#BDBDBD; font-family:'Montserrat-Regular'; font-size:5px;">consectetu</tspan><tspan x="44.411" y="7" style="fill:#BDBDBD; font-family:'Montserrat-Regular'; font-size:5px;"> </tspan><tspan x="46.4" y="7" style="fill:#BDBDBD; font-family:'Montserrat-Regular'; font-size:5px;">er</tspan><tspan x="51.425" y="7" style="fill:#BDBDBD; font-family:'Montserrat-Regular'; font-size:5px;"> </tspan><tspan x="53.413" y="7" style="fill:#BDBDBD; font-family:'Montserrat-Regular'; font-size:5px;">adip </tspan><tspan x="7.047" y="14" style="fill:#BDBDBD; font-family:'Montserrat-Regular'; font-size:5px;">iscing elit, sed diam.</tspan></text>
		</g>
		<text transform="matrix(1 0 0 1 305.529 179)" style="fill:#8E2DE2; font-family:'BebasNeueRegular'; font-size:22.8968px;">+43.3</text>
	</g>
	<g>
		
			<linearGradient id="SVGID_00000051349354189331901040000018296466823240279431_" gradientUnits="userSpaceOnUse" x1="380.6899" y1="187.651" x2="430.8222" y2="378.695">
			<stop  offset="0" style="stop-color:#9C27B0"/>
			<stop  offset="1" style="stop-color:#4A148C"/>
		</linearGradient>
		<polygon style="fill:url(#SVGID_00000051349354189331901040000018296466823240279431_);" points="431.5,167 400.462,143 
			369.425,167 369.425,359 431.5,359 		"/>
		<g>
			<rect x="369.425" y="370.972" style="fill:#9C27B0;" width="62.075" height="13"/>
			<text transform="matrix(1 0 0 1 390.6639 380.4434)" style="fill:#FFFFFF; font-family:'Montserrat-Regular'; font-size:8px;">June</text>
			<rect x="368.216" y="391.148" style="fill:none;" width="64.492" height="20.602"/>
			<text transform="matrix(1 0 0 1 368.2162 394.858)"><tspan x="0" y="0" style="fill:#BDBDBD; font-family:'Montserrat-Regular'; font-size:5px;">Lorem</tspan><tspan x="16.409" y="0" style="fill:#BDBDBD; font-family:'Montserrat-Regular'; font-size:5px; letter-spacing:3;"> </tspan><tspan x="20.875" y="0" style="fill:#BDBDBD; font-family:'Montserrat-Regular'; font-size:5px;">ipsum</tspan><tspan x="36.725" y="0" style="fill:#BDBDBD; font-family:'Montserrat-Regular'; font-size:5px; letter-spacing:3;"> </tspan><tspan x="41.191" y="0" style="fill:#BDBDBD; font-family:'Montserrat-Regular'; font-size:5px;">dolor</tspan><tspan x="54.2" y="0" style="fill:#BDBDBD; font-family:'Montserrat-Regular'; font-size:5px; letter-spacing:3;"> </tspan><tspan x="58.666" y="0" style="fill:#BDBDBD; font-family:'Montserrat-Regular'; font-size:5px;">sit </tspan><tspan x="0" y="7" style="fill:#BDBDBD; font-family:'Montserrat-Regular'; font-size:5px;">amet,</tspan><tspan x="14.364" y="7" style="fill:#BDBDBD; font-family:'Montserrat-Regular'; font-size:5px;"> </tspan><tspan x="16.353" y="7" style="fill:#BDBDBD; font-family:'Montserrat-Regular'; font-size:5px;">consectetu</tspan><tspan x="44.411" y="7" style="fill:#BDBDBD; font-family:'Montserrat-Regular'; font-size:5px;"> </tspan><tspan x="46.4" y="7" style="fill:#BDBDBD; font-family:'Montserrat-Regular'; font-size:5px;">er</tspan><tspan x="51.425" y="7" style="fill:#BDBDBD; font-family:'Montserrat-Regular'; font-size:5px;"> </tspan><tspan x="53.413" y="7" style="fill:#BDBDBD; font-family:'Montserrat-Regular'; font-size:5px;">adip </tspan><tspan x="7.047" y="14" style="fill:#BDBDBD; font-family:'Montserrat-Regular'; font-size:5px;">iscing elit, sed diam.</tspan></text>
		</g>
		<text transform="matrix(1 0 0 1 380.9091 131)" style="fill:#9C27B0; font-family:'BebasNeueRegular'; font-size:22.8968px;">+55.5</text>
	</g>
	<g>
		<path style="fill:none;stroke:#BDBDBD;stroke-width:2;stroke-linecap:round;stroke-linejoin:round;stroke-miterlimit:10;" d="
			M69.538,243.688c0,0,33.992-36,105.231-48c52.028-8.764,102.608-26.422,154.761-75.333c26.369-24.73,50.305-41.115,70.942-49.643"
			/>
		
			<linearGradient id="SVGID_00000143596169774893319240000000171002349776624032_" gradientUnits="userSpaceOnUse" x1="97.1775" y1="215.545" x2="102.9275" y2="230.045">
			<stop  offset="0" style="stop-color:#FDC830"/>
			<stop  offset="1" style="stop-color:#F37335"/>
		</linearGradient>
		<circle style="fill:url(#SVGID_00000143596169774893319240000000171002349776624032_);" cx="99.613" cy="221.688" r="5.5"/>
		
			<linearGradient id="SVGID_00000152246814053874683620000002412593320690982800_" gradientUnits="userSpaceOnUse" x1="171.0005" y1="187.7977" x2="179.0005" y2="204.5477">
			<stop  offset="0" style="stop-color:#FF839D"/>
			<stop  offset="1" style="stop-color:#F50B9A"/>
		</linearGradient>
		<circle style="fill:url(#SVGID_00000152246814053874683620000002412593320690982800_);" cx="174.769" cy="195.688" r="5.5"/>
		
			<linearGradient id="SVGID_00000149366313062580571150000005114524275964080527_" gradientUnits="userSpaceOnUse" x1="246.4922" y1="167.8772" x2="254.7422" y2="182.1272">
			<stop  offset="0" style="stop-color:#FF63DE"/>
			<stop  offset="1" style="stop-color:#B122E5"/>
		</linearGradient>
		<circle style="fill:url(#SVGID_00000149366313062580571150000005114524275964080527_);" cx="250.001" cy="173.938" r="5.5"/>
		
			<linearGradient id="SVGID_00000152250392551731375990000014101825034410319244_" gradientUnits="userSpaceOnUse" x1="321.354" y1="116.0714" x2="328.354" y2="129.8214">
			<stop  offset="0" style="stop-color:#8E2DE2"/>
			<stop  offset="1" style="stop-color:#4A00E0"/>
		</linearGradient>
		<circle style="fill:url(#SVGID_00000152250392551731375990000014101825034410319244_);" cx="325.231" cy="123.688" r="5.5"/>
		
			<linearGradient id="SVGID_00000133531013078677676910000002307108729691207816_" gradientUnits="userSpaceOnUse" x1="397.3841" y1="62.1078" x2="405.1719" y2="82.0966">
			<stop  offset="0" style="stop-color:#9C27B0"/>
			<stop  offset="1" style="stop-color:#4A148C"/>
		</linearGradient>
		<circle style="fill:url(#SVGID_00000133531013078677676910000002307108729691207816_);" cx="400.483" cy="70.063" r="5.5"/>
	</g>
	<text transform="matrix(1 0 0 1 188.4568 50.0684)"><tspan x="0" y="0" style="fill:#757575; font-family:'Montserrat-Bold'; font-size:18.2808px;">BAR </tspan><tspan x="50.253" y="0" style="fill:#757575; font-family:'Montserrat-Regular'; font-size:18.2808px;">GRAPH</tspan></text>
</g>
<g id="DESIGNED_BY_FREEPIK">
	<g>
		<g id="XMLID_29_">
			<g id="XMLID_48_">
				<path id="XMLID_56_" style="fill:#1D262D;" d="M260.104,465.465c-0.432,0.443-0.803,0.931-1.108,1.453l-0.465-0.241
					c-0.067-0.298-0.349-0.503-0.659-0.466c-0.331,0.039-0.568,0.339-0.529,0.67c0.039,0.331,0.339,0.568,0.67,0.529
					c0.066-0.008,0.127-0.026,0.184-0.052l0.451,0.234c-0.251,0.554-0.433,1.139-0.539,1.744l0.746,0.132
					c0.23-1.306,0.85-2.507,1.792-3.473L260.104,465.465z"/>
				<path id="XMLID_55_" style="fill:#1D262D;" d="M265.592,463.163c-0.171,0-0.341,0.006-0.51,0.017l-0.074-0.626
					c0.188-0.149,0.296-0.389,0.266-0.645c-0.046-0.393-0.402-0.674-0.795-0.628c-0.393,0.046-0.674,0.402-0.628,0.795
					c0.03,0.254,0.189,0.461,0.404,0.564l0.074,0.624c-0.714,0.116-1.403,0.332-2.06,0.646l0.327,0.684
					c0.934-0.447,1.942-0.673,2.995-0.673c0.496,0,0.993,0.053,1.475,0.158l0.161-0.741
					C266.692,463.222,266.142,463.163,265.592,463.163z"/>
				<path id="XMLID_54_" style="fill:#1D262D;" d="M272.194,465.711c0.331-0.04,0.566-0.341,0.525-0.672
					c-0.04-0.331-0.341-0.566-0.672-0.526c-0.309,0.038-0.535,0.304-0.53,0.609l-0.416,0.363c-0.418-0.43-0.889-0.813-1.408-1.139
					l-0.404,0.641c1.134,0.715,2.021,1.726,2.563,2.925l0.69-0.313c-0.251-0.554-0.568-1.072-0.942-1.545l0.402-0.351
					C272.065,465.716,272.129,465.719,272.194,465.711z"/>
				<path id="XMLID_53_" style="fill:#1D262D;" d="M265.044,473.372c-0.386,0.023-0.775,0.035-1.157,0.035
					c-0.88,0-1.733-0.061-2.478-0.179c-0.39-0.062-0.846-0.155-1.27-0.292c1.046,1.861,3.069,3.125,5.388,3.125
					c2.855,0,5.262-1.916,5.95-4.504c-0.682,0.449-1.505,0.825-2.459,1.123C267.839,473.047,266.463,473.286,265.044,473.372z"/>
				<path id="XMLID_49_" style="fill:#1D262D;" d="M265.592,464.68c-3.352,0-6.08,2.666-6.08,5.943c0,0.426,0.046,0.849,0.137,1.261
					c0.673,0.483,2.706,0.89,5.347,0.731c2.879-0.173,5.297-0.957,6.672-2.159c-0.006-0.195-0.021-0.39-0.045-0.582
					C271.244,466.913,268.65,464.68,265.592,464.68z M263.432,471.194c-1.02,0-1.85-0.83-1.85-1.85c0-1.02,0.83-1.85,1.85-1.85
					c1.02,0,1.85,0.83,1.85,1.85C265.282,470.365,264.452,471.194,263.432,471.194z M268.17,470.286c-0.75,0-1.36-0.61-1.36-1.36
					s0.61-1.361,1.36-1.361c0.75,0,1.361,0.61,1.361,1.361S268.92,470.286,268.17,470.286z"/>
			</g>
			<path id="XMLID_46_" style="fill:#1D262D;" d="M281.595,466.547c-0.295-0.116-0.806-0.309-1.382-0.237
				c-0.551,0.069-0.844,0.341-0.844,1.007v0.866h2.228v1.717h-2.228v5.455h-1.932v-5.455h-1.34v-1.717h1.34v-0.888
				c0-1.68,0.895-2.783,2.568-2.783c0.642,0,1.157,0.122,1.59,0.308L281.595,466.547z"/>
			<path id="XMLID_44_" style="fill:#1D262D;" d="M286.298,469.879c-0.177-0.03-0.358-0.046-0.526-0.046
				c-0.896,0-1.51,0.548-1.51,1.614v3.908h-1.932v-7.172h1.873v0.785c0.451-0.673,1.14-0.977,2.021-0.977
				c0.414,0,0.848,0.128,1.094,0.337L286.298,469.879z"/>
			<path id="XMLID_41_" style="fill:#1D262D;" d="M293.965,471.757c0,0.222-0.015,0.489-0.037,0.651h-5.085
				c0.207,1.036,0.933,1.488,1.843,1.488c0.622,0,1.295-0.252,1.813-0.688l1.133,1.243c-0.814,0.748-1.85,1.088-3.057,1.088
				c-2.198,0-3.723-1.495-3.723-3.753c0-2.258,1.48-3.797,3.627-3.797C292.544,467.99,293.958,469.522,293.965,471.757z
				 M288.851,471.091h3.175c-0.178-0.918-0.733-1.436-1.562-1.436C289.554,469.655,289.021,470.203,288.851,471.091z"/>
			<path id="XMLID_38_" style="fill:#1D262D;" d="M301.618,471.757c0,0.222-0.015,0.489-0.037,0.651h-5.085
				c0.207,1.036,0.932,1.488,1.843,1.488c0.622,0,1.295-0.252,1.814-0.688l1.132,1.243c-0.814,0.748-1.85,1.088-3.057,1.088
				c-2.198,0-3.723-1.495-3.723-3.753c0-2.258,1.48-3.797,3.627-3.797C300.197,467.99,301.611,469.522,301.618,471.757z
				 M296.504,471.091h3.175c-0.178-0.918-0.733-1.436-1.562-1.436C297.207,469.655,296.674,470.203,296.504,471.091z"/>
			<path id="XMLID_35_" style="fill:#1D262D;" d="M309.964,471.764c0,2.154-1.495,3.775-3.471,3.775
				c-0.962,0-1.643-0.378-2.109-0.933v3.708h-1.924v-10.133h1.887v0.792c0.466-0.585,1.155-0.984,2.139-0.984
				C308.469,467.99,309.964,469.61,309.964,471.764z M304.287,471.764c0,1.132,0.747,1.976,1.843,1.976
				c1.14,0,1.85-0.881,1.85-1.976c0-1.095-0.711-1.976-1.85-1.976C305.035,469.788,304.287,470.632,304.287,471.764z"/>
			<path id="XMLID_32_" style="fill:#1D262D;" d="M313.067,465.836c0,0.696-0.54,1.229-1.236,1.229
				c-0.696,0-1.229-0.533-1.229-1.229c0-0.696,0.533-1.243,1.229-1.243C312.527,464.592,313.067,465.14,313.067,465.836z
				 M312.808,475.354h-1.932v-7.172h1.932V475.354z"/>
			<path id="XMLID_30_" style="fill:#1D262D;" d="M316.032,470.736l2.702-2.554h2.368l-3.479,3.375l3.501,3.797h-2.376l-2.716-2.901
				v2.901H314.1v-10.658h1.932V470.736z"/>
		</g>
		<g>
			<path style="fill:#1D262D;" d="M184.412,475.289v-1.055c-0.527,0.718-1.391,1.23-2.388,1.23c-1.846,0-3.149-1.406-3.149-3.706
				c0-2.256,1.289-3.721,3.149-3.721c0.952,0,1.816,0.469,2.388,1.245v-3.765h1.099v9.77H184.412z M184.412,473.37v-3.208
				c-0.395-0.615-1.245-1.143-2.124-1.143c-1.421,0-2.27,1.172-2.27,2.739c0,1.567,0.85,2.724,2.27,2.724
				C183.168,474.483,184.017,473.986,184.412,473.37z"/>
			<path style="fill:#1D262D;" d="M186.932,471.744c0-2.051,1.465-3.706,3.486-3.706c2.139,0,3.398,1.67,3.398,3.794v0.279h-5.727
				c0.088,1.333,1.025,2.446,2.549,2.446c0.805,0,1.626-0.322,2.182-0.894l0.527,0.718c-0.703,0.703-1.655,1.084-2.812,1.084
				C188.44,475.465,186.932,473.956,186.932,471.744z M190.403,468.947c-1.509,0-2.256,1.274-2.314,2.358h4.643
				C192.718,470.25,192.015,468.947,190.403,468.947z"/>
			<path style="fill:#1D262D;" d="M194.607,474.351l0.571-0.791c0.469,0.542,1.362,1.011,2.329,1.011c1.084,0,1.67-0.513,1.67-1.216
				c0-1.714-4.38-0.659-4.38-3.281c0-1.098,0.952-2.036,2.636-2.036c1.201,0,2.051,0.454,2.622,1.026l-0.513,0.762
				c-0.424-0.513-1.201-0.894-2.109-0.894c-0.967,0-1.567,0.483-1.567,1.113c0,1.552,4.38,0.527,4.38,3.281
				c0,1.187-0.952,2.138-2.783,2.138C196.306,475.465,195.325,475.113,194.607,474.351z"/>
			<path style="fill:#1D262D;" d="M201.477,466.471c0-0.41,0.337-0.747,0.732-0.747c0.41,0,0.747,0.337,0.747,0.747
				c0,0.41-0.337,0.732-0.747,0.732C201.814,467.203,201.477,466.881,201.477,466.471z M201.667,475.289v-7.075h1.099v7.075H201.667
				z"/>
			<path style="fill:#1D262D;" d="M204.582,477.105l0.556-0.82c0.586,0.703,1.289,0.967,2.3,0.967c1.172,0,2.27-0.571,2.27-2.124
				v-1.011c-0.513,0.718-1.377,1.26-2.373,1.26c-1.845,0-3.149-1.377-3.149-3.662c0-2.27,1.289-3.677,3.149-3.677
				c0.952,0,1.802,0.469,2.373,1.245v-1.069h1.098v6.87c0,2.344-1.641,3.076-3.369,3.076
				C206.237,478.16,205.417,477.926,204.582,477.105z M209.709,473.253v-3.091c-0.381-0.615-1.23-1.143-2.109-1.143
				c-1.421,0-2.27,1.128-2.27,2.695c0,1.553,0.849,2.695,2.27,2.695C208.478,474.41,209.328,473.868,209.709,473.253z"/>
			<path style="fill:#1D262D;" d="M217.413,475.289v-4.629c0-1.245-0.63-1.641-1.582-1.641c-0.865,0-1.685,0.527-2.095,1.099v5.17
				h-1.099v-7.075h1.099v1.025c0.498-0.586,1.465-1.201,2.519-1.201c1.48,0,2.256,0.747,2.256,2.285v4.966H217.413z"/>
			<path style="fill:#1D262D;" d="M219.932,471.744c0-2.051,1.465-3.706,3.486-3.706c2.139,0,3.398,1.67,3.398,3.794v0.279h-5.727
				c0.088,1.333,1.025,2.446,2.549,2.446c0.806,0,1.626-0.322,2.183-0.894l0.527,0.718c-0.703,0.703-1.655,1.084-2.812,1.084
				C221.441,475.465,219.932,473.956,219.932,471.744z M223.404,468.947c-1.509,0-2.256,1.274-2.314,2.358h4.643
				C225.718,470.25,225.015,468.947,223.404,468.947z"/>
			<path style="fill:#1D262D;" d="M233.35,475.289v-1.055c-0.527,0.718-1.392,1.23-2.388,1.23c-1.846,0-3.149-1.406-3.149-3.706
				c0-2.256,1.289-3.721,3.149-3.721c0.952,0,1.817,0.469,2.388,1.245v-3.765h1.098v9.77H233.35z M233.35,473.37v-3.208
				c-0.396-0.615-1.245-1.143-2.124-1.143c-1.421,0-2.27,1.172-2.27,2.739c0,1.567,0.849,2.724,2.27,2.724
				C232.105,474.483,232.954,473.986,233.35,473.37z"/>
			<path style="fill:#1D262D;" d="M239.692,475.289v-9.77h1.098v3.765c0.572-0.776,1.421-1.245,2.388-1.245
				c1.845,0,3.149,1.465,3.149,3.721c0,2.299-1.304,3.706-3.149,3.706c-0.996,0-1.86-0.513-2.388-1.23v1.055H239.692z
				 M242.9,474.483c1.436,0,2.285-1.157,2.285-2.724c0-1.568-0.85-2.739-2.285-2.739c-0.864,0-1.728,0.527-2.109,1.143v3.208
				C241.171,473.986,242.036,474.483,242.9,474.483z"/>
			<path style="fill:#1D262D;" d="M247.528,477.061c0.161,0.073,0.425,0.117,0.601,0.117c0.483,0,0.805-0.161,1.055-0.747
				l0.469-1.069l-2.959-7.148h1.187l2.358,5.8l2.344-5.8h1.201l-3.545,8.51c-0.425,1.025-1.143,1.421-2.08,1.435
				c-0.234,0-0.601-0.044-0.805-0.103L247.528,477.061z"/>
		</g>
	</g>
</g>
</svg>
