<?xml version="1.0" encoding="utf-8"?>
<!-- Generator: Adobe Illustrator 27.5.0, SVG Export Plug-In . SVG Version: 6.00 Build 0)  -->
<svg version="1.1" xmlns="http://www.w3.org/2000/svg" xmlns:xlink="http://www.w3.org/1999/xlink" x="0px" y="0px"
	 viewBox="0 0 500 500" style="enable-background:new 0 0 500 500;" xml:space="preserve">
<g id="Floor">
	<ellipse id="Floor_2_" style="fill:#F5F5F5;" cx="247" cy="344.302" rx="234.589" ry="140.399"/>
</g>
<g id="Shadows">
	<path id="Shadow_4_" style="fill:#E0E0E0;" d="M288.54,281.747l-4.246-2.452c-2.88-1.663-7.55-1.663-10.431,0L49.468,408.85
		c-2.868,1.656-2.868,4.366,0,6.022l4.246,2.452c2.868,1.656,7.562,1.656,10.43,0l68.168-39.357l30.332,17.513
		c7.817,4.513,20.609,4.513,28.426,0l47.032-27.154c6.676-3.854,6.676-10.161,0-14.015l-32.407-18.712l82.845-47.83
		C291.409,286.113,291.409,283.403,288.54,281.747z"/>
	<path id="Shadow_51_" style="fill:#E0E0E0;" d="M370.201,440.833c23.415,13.519,61.378,13.519,84.793,0
		c23.415-13.518,23.415-35.436,0-48.955c-23.415-13.519-61.378-13.519-84.793,0C346.787,405.397,346.787,427.315,370.201,440.833z"
		/>
</g>
<g id="Clouds">
	<g id="Clouds_1_">
		<g id="XMLID_634_">
			<path id="XMLID_635_" style="fill:#EBEBEB;" d="M140.824,86.462l3.768-2.279c-0.032-0.251-0.054-0.51-0.054-0.789V81.53
				c0-3.317,2.329-7.35,5.201-9.008c1.163-0.672,2.233-0.843,3.1-0.599c0.47-4.714,3.743-10.046,7.717-12.34
				c4.297-2.481,7.781-0.47,7.781,4.492v2.788c0,1.285-0.238,2.642-0.659,3.991l5.344-3.086c1.593-0.92,2.885-0.174,2.885,1.666
				s-1.292,4.077-2.885,4.997l-32.197,18.693c-1.593,0.92-2.885,0.174-2.885-1.666C137.94,89.619,139.231,87.382,140.824,86.462z"/>
		</g>
		<g id="XMLID_338_">
			<path id="XMLID_632_" style="fill:#EBEBEB;" d="M108.538,78.859l-3.95,1.519v-8.701c0-6.897-5.502-8.551-11.475-5.103l0,0
				c-5.973,3.449-10.816,11.836-10.816,18.733v1.264c-1.355-0.541-3.105-0.331-5.019,0.774l0,0
				c-4.299,2.482-7.783,8.517-7.783,13.481v0.574l-5.507,3.18c-2.831,1.634-5.125,5.609-5.125,8.877
				c0,3.269,2.295,4.593,5.125,2.959l44.55-25.721c2.831-1.635,5.126-5.609,5.126-8.878
				C113.664,78.549,111.369,77.225,108.538,78.859z"/>
		</g>
	</g>
</g>
<g id="Device">
	<g id="Monitor_2_">
		<g id="XMLID_552_">
			<g id="XMLID_582_">
				<path id="XMLID_583_" style="fill:#263238;" d="M191.614,388.504l38.904-22.494c4.01-2.315,6.015-5.349,6.016-8.383
					c0-3.035,0.017-5.412,0.017-5.412l-36.608-20.778c-2.138-1.235-3.872-4.238-3.872-6.708v-47.965l-67.951,39.266l-0.002,47.965
					c0,2.469,1.733,5.473,3.872,6.707l30.58,17.803C170.59,393.134,183.594,393.134,191.614,388.504z"/>
			</g>
			<path id="XMLID_576_" style="opacity:0.15;" d="M144.433,372.487v5.388l-12.454-7.177c-2.124-1.23-3.868-4.226-3.868-6.708
				v-47.96l12.946-7.468c0.268,3.287,0.558,6.686,0.827,9.995l-9.077,5.254v37.473c0,2.482,1.722,5.478,3.869,6.707L144.433,372.487
				z"/>
			<path id="XMLID_560_" style="fill:#455A64;" d="M132.804,361.294c0,2.47,1.734,5.473,3.872,6.708l25.887,15.093
				c8.021,4.631,21.025,4.632,29.047,0.003l38.923-22.493c8.022-4.628,8.022-12.135,0.002-16.765l-25.906-15.105
				c-2.139-1.235-3.873-4.238-3.873-6.708l0-37.478l-67.953,39.265V361.294z"/>
			<path id="XMLID_557_" style="opacity:0.3;" d="M212.518,333.294v-0.006l-7.888-4.554c-2.139-1.235-3.873-4.238-3.873-6.708
				v-37.478l-67.953,39.265v37.48c0,2.47,1.734,5.473,3.873,6.708l7.752,4.475L212.518,333.294z"/>
		</g>
		<path id="XMLID_546_" style="fill:#455A64;" d="M51.858,390.87c2.508,1.448,6.709,1.37,9.382-0.173
			c33.408-19.287,190.164-109.789,223.566-129.073c2.674-1.544,4.839-5.297,4.839-8.384V49.557c0-3.087-2.033-6.764-4.541-8.211
			c-2.508-1.448-6.708-1.37-9.382,0.173L52.161,170.592c-2.673,1.544-4.841,5.298-4.841,8.385l-0.003,203.682
			C47.317,385.746,49.35,389.422,51.858,390.87z"/>
		<path id="XMLID_536_" style="fill:#37474F;" d="M61.241,390.69l223.564-129.072c2.674-1.544,4.841-5.298,4.841-8.385V49.55
			c0-3.087-2.167-4.338-4.841-2.795L61.245,175.829c-2.674,1.544-4.841,5.297-4.841,8.385L56.4,387.896
			C56.4,390.983,58.568,392.234,61.241,390.69z"/>
		<path id="XMLID_522_" style="fill:#BA68C8;" d="M62.797,356.108L62.8,186.372c0-1.898,1.333-4.207,2.976-5.156L280.264,57.38
			c1.644-0.949,2.977-0.18,2.977,1.719l0.009,169.74c0,1.898-1.332,4.207-2.977,5.156L65.774,357.827
			C64.13,358.776,62.797,358.006,62.797,356.108z"/>
		<path id="XMLID_584_" style="opacity:0.7;fill:#FFFFFF;" d="M62.797,356.108L62.8,186.372c0-1.898,1.333-4.207,2.976-5.156
			L280.264,57.38c1.644-0.949,2.977-0.18,2.977,1.719l0.009,169.74c0,1.898-1.332,4.207-2.977,5.156L65.774,357.827
			C64.13,358.776,62.797,358.006,62.797,356.108z"/>
		<path style="fill:#263238;" d="M48.745,174.193l9.078,5.232c-0.872,1.521-1.409,3.242-1.431,4.785v181.09l0.007,22.596
			c0,2.817,1.906,4.391,4.839,2.801c-2.931,1.704-7.101,1.493-9.382,0.173c-2.505-1.453-4.543-4.519-4.543-7.626v-23.199V178.977
			C47.315,177.434,47.874,175.713,48.745,174.193z"/>
		<path style="fill:#BA68C8;" d="M168.784,315.736l10.949-6.285c0.98-0.566,1.775-0.164,1.775,0.898
			c0,1.062-0.795,2.382-1.775,2.948l-10.949,6.285c-0.98,0.566-1.775,0.164-1.775-0.898S167.804,316.302,168.784,315.736z"/>
	</g>
</g>
<g id="Plants">
	<g id="Plants_1_">
		<g id="XMLID_620_">
			<g id="XMLID_629_">
				<path id="XMLID_630_" style="fill:#BA68C8;" d="M114.906,422.79l7.637-4.413c0,0,4.546-18.887,2.734-35.882
					c-2.547-23.894-18.275-32.885-24.256-30.824c-5.981,2.061-7.713,9.013,2.183,23.244
					C109.043,383.312,116.216,400.8,114.906,422.79z"/>
			</g>
			<g id="XMLID_626_" style="opacity:0.3;">
				<path id="XMLID_628_" style="fill:#FFFFFF;" d="M114.906,422.79l7.637-4.413c0,0,4.546-18.887,2.734-35.882
					c-2.547-23.894-18.275-32.885-24.256-30.824c-5.981,2.061-7.713,9.013,2.183,23.244
					C109.043,383.312,116.216,400.8,114.906,422.79z"/>
			</g>
			<g id="XMLID_622_">
				<path id="XMLID_625_" style="fill:#FFFFFF;" d="M118.071,413.511c-0.025-0.001-0.049-0.004-0.073-0.009
					c-0.287-0.055-0.476-0.332-0.422-0.619c4.186-22.039-3.512-46.804-13.046-57.109c-0.198-0.214-0.186-0.55,0.029-0.748
					c0.215-0.196,0.55-0.186,0.748,0.029c9.708,10.493,17.557,35.662,13.309,58.025C118.567,413.344,118.33,413.524,118.071,413.511
					z"/>
			</g>
		</g>
		<g id="XMLID_585_">
			<g id="XMLID_611_">
				<path id="XMLID_613_" style="fill:#BA68C8;" d="M95.685,433.888c-1.141,0.581-4.175-2.016-5.021-2.648
					c-1.448-1.081-2.59-2.566-3.316-4.217c-0.844-1.921-0.979-3.942-0.581-6c0.207-1.068,0.561-2.1,0.913-3.129
					c0.346-1.01,0.692-2.02,1.039-3.029c0.342-0.997,0.688-2.027,0.607-3.078c-0.163-2.116-1.955-3.683-3.587-5.039
					c-1.805-1.499-3.665-3.452-3.527-5.983c0.107-1.952,1.209-3.715,2.497-5.187c1.288-1.472,2.792-2.753,3.967-4.316
					c0.846-1.125,1.529-2.462,1.472-3.869c-0.036-0.874-0.355-1.712-0.733-2.5c-0.811-1.693-1.914-3.262-2.441-5.064
					c-0.527-1.801-0.328-3.999,1.117-5.196c1.187-0.983,2.879-1.043,4.41-0.864c1.416,0.165,2.771,0.876,3.979,1.63
					c3.905,2.437,5.959,7.312,10.136,9.246c1.611,0.746,3.406,0.982,5.097,1.522c1.691,0.54,3.395,1.503,4.109,3.129
					c1.408,3.205-1.691,6.912-0.758,10.285c0.826,2.986,3.623,4.254,5.092,6.981c0.643,1.193,0.737,2.539,0.556,3.882
					c-0.307,2.273-0.725,3.931-1.949,6.415c-1.011,2.052-3.858,5.931-3.858,5.931S95.86,433.798,95.685,433.888z"/>
			</g>
			<g id="XMLID_596_" style="opacity:0.65;">
				<path id="XMLID_598_" style="fill:#FFFFFF;" d="M95.685,433.888c-1.141,0.581-4.175-2.016-5.021-2.648
					c-1.448-1.081-2.59-2.566-3.316-4.217c-0.844-1.921-0.979-3.942-0.581-6c0.207-1.068,0.561-2.1,0.913-3.129
					c0.346-1.01,0.692-2.02,1.039-3.029c0.342-0.997,0.688-2.027,0.607-3.078c-0.163-2.116-1.955-3.683-3.587-5.039
					c-1.805-1.499-3.665-3.452-3.527-5.983c0.107-1.952,1.209-3.715,2.497-5.187c1.288-1.472,2.792-2.753,3.967-4.316
					c0.846-1.125,1.529-2.462,1.472-3.869c-0.036-0.874-0.355-1.712-0.733-2.5c-0.811-1.693-1.914-3.262-2.441-5.064
					c-0.527-1.801-0.328-3.999,1.117-5.196c1.187-0.983,2.879-1.043,4.41-0.864c1.416,0.165,2.771,0.876,3.979,1.63
					c3.905,2.437,5.959,7.312,10.136,9.246c1.611,0.746,3.406,0.982,5.097,1.522c1.691,0.54,3.395,1.503,4.109,3.129
					c1.408,3.205-1.691,6.912-0.758,10.285c0.826,2.986,3.623,4.254,5.092,6.981c0.643,1.193,0.737,2.539,0.556,3.882
					c-0.307,2.273-0.725,3.931-1.949,6.415c-1.011,2.052-3.858,5.931-3.858,5.931S95.86,433.798,95.685,433.888z"/>
			</g>
			<g id="XMLID_588_">
				<path id="XMLID_589_" style="fill:#FFFFFF;" d="M106.74,428.126c-0.007,0-0.014-0.001-0.014-0.001
					c-0.283-0.026-0.485-0.27-0.46-0.546c1.829-19.823-6.425-42.225-12.91-48.939c-0.192-0.199-0.187-0.516,0.012-0.709
					c0.2-0.192,0.516-0.186,0.709,0.012c6.615,6.85,15.041,29.626,13.187,49.727C107.239,427.94,107.006,428.139,106.74,428.126z"/>
			</g>
			<g id="XMLID_586_">
				<path id="XMLID_587_" style="fill:#FFFFFF;" d="M104.771,403.684c-0.049-0.003-0.098-0.012-0.147-0.03
					c-6.282-2.295-14.219-3.044-14.298-3.051c-0.276-0.026-0.478-0.27-0.453-0.545c0.026-0.275,0.246-0.482,0.545-0.453
					c0.081,0.008,8.143,0.768,14.55,3.109c0.26,0.094,0.394,0.382,0.299,0.642C105.189,403.567,104.985,403.695,104.771,403.684z"/>
			</g>
		</g>
	</g>
</g>
<g id="Window">
	<g id="Window_1_">
		<g id="Window_6_">
			<g>
				<path style="fill:#FAFAFA;" d="M375.056,54.428c-0.019-0.195-0.039-0.371-0.098-0.548c0.02-0.039,0-0.078-0.02-0.117
					c-0.019-0.196-0.078-0.372-0.137-0.528c-0.078-0.274-0.195-0.529-0.352-0.764c-0.039-0.117-0.117-0.215-0.196-0.313
					c-0.058-0.078-0.097-0.156-0.176-0.215c-0.118-0.156-0.235-0.274-0.391-0.391c0,0-0.019-0.019-0.039-0.039
					c-0.157-0.117-0.333-0.215-0.509-0.294c-1.076-0.509-2.466-0.372-4.012,0.509L165.64,169.215
					c-3.288,1.898-5.969,6.537-5.969,13.179l-0.002,187.528c0,3.157,3.421,5.127,6.151,3.542l203.305-117.496
					c3.288-1.898,5.969-6.518,5.969-10.334V55.172C375.095,54.918,375.076,54.663,375.056,54.428z"/>
				<path style="fill:#E0E0E0;" d="M371.773,51.887c0.348,0,0.669,0.068,0.974,0.212c0.102,0.045,0.195,0.097,0.274,0.15
					l0.031,0.031l0.056,0.042c0.084,0.063,0.137,0.116,0.2,0.2l0.082,0.109l0.039,0.029c0.018,0.026,0.039,0.055,0.074,0.102
					c0.016,0.02,0.033,0.04,0.048,0.061l0.026,0.076l0.072,0.108c0.102,0.153,0.176,0.314,0.227,0.492l0.011,0.039l0.014,0.038
					c0.02,0.053,0.039,0.107,0.054,0.159l-0.037,0.073l0.127,0.38c0.026,0.078,0.039,0.194,0.052,0.322
					c0.018,0.21,0.035,0.437,0.035,0.664v190.461c0,3.432-2.513,7.783-5.488,9.501L165.337,372.631
					c-0.491,0.285-1.018,0.43-1.566,0.43c-1.509,0-3.139-1.2-3.139-3.138l0.001-187.528c0-6.766,2.835-10.813,5.488-12.345
					L369.602,52.564C370.392,52.114,371.122,51.887,371.773,51.887 M371.773,50.924c-0.798,0-1.693,0.26-2.647,0.804L165.64,169.215
					c-3.288,1.898-5.969,6.537-5.969,13.179l-0.002,187.528c0,2.391,1.963,4.101,4.102,4.101c0.685,0,1.388-0.175,2.05-0.56
					l203.305-117.496c3.288-1.898,5.969-6.518,5.969-10.334V55.172c0-0.254-0.019-0.509-0.039-0.744
					c-0.019-0.195-0.039-0.372-0.098-0.548c0.02-0.039,0-0.078-0.02-0.117c-0.019-0.196-0.078-0.372-0.137-0.528
					c-0.078-0.274-0.195-0.529-0.352-0.764c-0.039-0.117-0.117-0.215-0.196-0.313c-0.058-0.078-0.097-0.157-0.176-0.215
					c-0.117-0.156-0.235-0.274-0.391-0.391c0,0-0.019-0.019-0.039-0.039c-0.157-0.117-0.333-0.215-0.509-0.294
					C372.726,51.024,372.268,50.924,371.773,50.924L371.773,50.924z"/>
			</g>
			<g>
				<path style="fill:#E0E0E0;" d="M218.479,165.475l135.76-78.381v6.294l-135.76,78.381c-1.278,0.738-2.324,0.134-2.324-1.342
					l0-0.926C216.155,168.025,217.201,166.213,218.479,165.475z"/>
				<g>
					<path style="fill:#E0E0E0;" d="M365.14,80.798l-8.22,4.746v6.294l8.22-4.746c1.284-0.741,2.324-2.543,2.324-4.026V82.14
						C367.464,80.658,366.424,80.057,365.14,80.798z"/>
					<g>
						<g>
							<path style="fill:#FAFAFA;" d="M361.143,87.797c-0.165,0-0.322-0.041-0.463-0.123c-0.371-0.213-0.583-0.683-0.583-1.288
								c0-1.076,0.64-2.288,1.456-2.761c0.4-0.23,0.797-0.255,1.116-0.07c0.37,0.213,0.583,0.683,0.583,1.289
								c0,1.077-0.639,2.29-1.456,2.761C361.573,87.732,361.351,87.797,361.143,87.797z M362.204,83.915
								c-0.148,0-0.295,0.063-0.409,0.128c-0.658,0.38-1.214,1.453-1.214,2.341c0,0.422,0.128,0.747,0.34,0.87
								c0.211,0.121,0.46,0.029,0.632-0.071c0.658-0.379,1.213-1.452,1.213-2.341c0-0.422-0.128-0.747-0.34-0.87
								C362.356,83.932,362.28,83.915,362.204,83.915z"/>
						</g>
						<g>
							<path style="fill:#FAFAFA;" d="M363.691,87.38c-0.051,0-0.102-0.016-0.146-0.049l-1.072-0.811
								c-0.107-0.08-0.128-0.232-0.047-0.339c0.081-0.107,0.232-0.128,0.339-0.047l1.072,0.811c0.107,0.08,0.128,0.232,0.047,0.339
								C363.836,87.347,363.764,87.38,363.691,87.38z"/>
						</g>
					</g>
				</g>
			</g>
			<g>
				<path style="fill:#F0F0F0;" d="M165.64,169.215c-3.288,1.898-5.969,6.537-5.969,13.179l-0.002,187.528
					c0,3.157,3.421,5.127,6.151,3.542l45.164-26.102v-186.14l0.067-18.227L165.64,169.215z"/>
				<path style="fill:#E0E0E0;" d="M210.083,144.667l-0.061,16.556v185.584l-44.685,25.825c-0.491,0.285-1.018,0.43-1.566,0.43
					c-1.509,0-3.139-1.2-3.139-3.138l0.001-187.528c0-6.766,2.835-10.813,5.488-12.345L210.083,144.667 M211.052,142.995
					l-45.412,26.22c-3.288,1.898-5.969,6.537-5.969,13.179l-0.002,187.528c0,2.391,1.963,4.101,4.102,4.101
					c0.685,0,1.388-0.175,2.05-0.56l45.164-26.102v-186.14L211.052,142.995L211.052,142.995z"/>
			</g>
			<g id="XMLID_316_">
				<g id="XMLID_505_">
					<g id="XMLID_517_">
						<path id="XMLID_519_" style="fill:#E0E0E0;" d="M177.634,191.407l23.857-13.766c0.839-0.485,1.52-0.092,1.52,0.877
							l-0.001,1.979c0,0.97-0.681,2.15-1.52,2.635l-23.857,13.766c-0.839,0.485-1.52,0.093-1.52-0.878l0-1.979
							C176.113,193.072,176.794,191.892,177.634,191.407z"/>
						<path id="XMLID_518_" style="fill:#BA68C8;" d="M171.357,196.787v1.979c0,0.97-0.681,2.149-1.521,2.634l-0.605,0.373
							c-0.84,0.485-1.521,0.092-1.521-0.878v-1.979c0-0.97,0.68-2.149,1.521-2.634l0.606-0.373
							C170.676,195.424,171.357,195.817,171.357,196.787z"/>
					</g>
					<g id="XMLID_514_">
						<path id="XMLID_516_" style="fill:#E0E0E0;" d="M177.634,202.348l23.857-13.766c0.839-0.485,1.52-0.092,1.52,0.877
							l-0.001,1.979c0,0.97-0.681,2.15-1.52,2.635l-23.857,13.766c-0.839,0.485-1.52,0.093-1.52-0.877l0-1.979
							C176.113,204.013,176.794,202.833,177.634,202.348z"/>
						<path id="XMLID_515_" style="fill:#BA68C8;" d="M171.357,207.727v1.979c0,0.97-0.681,2.149-1.521,2.634l-0.605,0.373
							c-0.84,0.485-1.521,0.092-1.521-0.878v-1.979c0-0.97,0.68-2.149,1.521-2.634l0.606-0.373
							C170.676,206.365,171.357,206.758,171.357,207.727z"/>
					</g>
					<g id="XMLID_507_">
						<path id="XMLID_513_" style="fill:#E0E0E0;" d="M177.634,213.288l23.857-13.766c0.839-0.485,1.52-0.092,1.52,0.877
							l-0.001,1.979c0,0.97-0.681,2.149-1.52,2.635l-23.857,13.766c-0.839,0.485-1.52,0.093-1.52-0.877l0-1.979
							C176.113,214.954,176.794,213.774,177.634,213.288z"/>
						<path id="XMLID_511_" style="fill:#BA68C8;" d="M171.357,218.668v1.979c0,0.97-0.681,2.149-1.521,2.634l-0.605,0.373
							c-0.84,0.485-1.521,0.092-1.521-0.878v-1.979c0-0.97,0.68-2.149,1.521-2.634l0.606-0.373
							C170.676,217.306,171.357,217.699,171.357,218.668z"/>
					</g>
				</g>
				<g id="XMLID_424_">
					<g id="XMLID_496_">
						<path id="XMLID_498_" style="fill:#E0E0E0;" d="M177.634,249.568l23.857-13.766c0.839-0.485,1.52-0.092,1.52,0.877
							l-0.001,1.979c0,0.97-0.681,2.15-1.52,2.635l-23.857,13.766c-0.839,0.485-1.52,0.093-1.52-0.877l0-1.979
							C176.113,251.234,176.794,250.054,177.634,249.568z"/>
						<path id="XMLID_497_" style="fill:#BA68C8;" d="M171.357,254.948v1.979c0,0.97-0.681,2.149-1.521,2.634l-0.605,0.372
							c-0.84,0.485-1.521,0.092-1.521-0.878v-1.979c0-0.97,0.68-2.149,1.521-2.634l0.606-0.373
							C170.676,253.585,171.357,253.978,171.357,254.948z"/>
					</g>
					<g id="XMLID_460_">
						<path id="XMLID_475_" style="fill:#E0E0E0;" d="M177.634,259.258l23.857-13.766c0.839-0.485,1.52-0.092,1.52,0.877
							l-0.001,1.979c0,0.97-0.681,2.149-1.52,2.635l-23.857,13.766c-0.839,0.485-1.52,0.092-1.52-0.877l0-1.979
							C176.113,260.924,176.794,259.744,177.634,259.258z"/>
						<path id="XMLID_474_" style="fill:#BA68C8;" d="M171.357,264.638v1.979c0,0.97-0.681,2.149-1.521,2.634l-0.605,0.373
							c-0.84,0.485-1.521,0.092-1.521-0.878v-1.979c0-0.97,0.68-2.149,1.521-2.634l0.606-0.373
							C170.676,263.276,171.357,263.669,171.357,264.638z"/>
					</g>
					<g id="XMLID_429_">
						<path id="XMLID_453_" style="fill:#E0E0E0;" d="M177.634,268.949l23.857-13.766c0.839-0.486,1.52-0.093,1.52,0.877
							l-0.001,1.979c0,0.97-0.681,2.149-1.52,2.635l-23.857,13.766c-0.839,0.485-1.52,0.093-1.52-0.878l0-1.978
							C176.113,270.614,176.794,269.434,177.634,268.949z"/>
						<path id="XMLID_448_" style="fill:#BA68C8;" d="M171.357,274.328v1.979c0,0.97-0.681,2.149-1.521,2.634l-0.605,0.373
							c-0.84,0.485-1.521,0.092-1.521-0.878v-1.979c0-0.97,0.68-2.149,1.521-2.634l0.606-0.373
							C170.676,272.965,171.357,273.359,171.357,274.328z"/>
					</g>
				</g>
				<g id="XMLID_343_">
					<g id="XMLID_407_">
						<polygon id="XMLID_423_" style="fill:#BA68C8;" points="177.221,224.613 177.221,228.027 180.177,224.614 						"/>
						<path id="XMLID_415_" style="fill:#E0E0E0;" d="M181.976,223.91c0,0.633,0.454,0.885,1.015,0.563l19.006-10.944
							c0.56-0.323,1.014-1.105,1.014-1.747c0-0.642-0.454-0.901-1.014-0.578l-19.007,10.974
							C182.43,222.501,181.976,223.277,181.976,223.91z"/>
					</g>
					<g id="XMLID_365_">
						<polygon id="XMLID_368_" style="fill:#BA68C8;" points="177.221,230.103 177.221,233.516 180.177,230.103 						"/>
						<path id="XMLID_366_" style="fill:#E0E0E0;" d="M181.976,229.399c0,0.634,0.454,0.885,1.015,0.563l19.006-10.944
							c0.56-0.322,1.014-1.105,1.014-1.747c0-0.643-0.454-0.901-1.014-0.578l-19.007,10.973
							C182.43,227.99,181.976,228.766,181.976,229.399z"/>
					</g>
					<g id="XMLID_359_">
						<polygon id="XMLID_364_" style="fill:#BA68C8;" points="177.221,235.592 177.221,239.005 180.177,235.592 						"/>
						<path id="XMLID_360_" style="fill:#E0E0E0;" d="M181.976,234.889c0,0.633,0.454,0.885,1.015,0.563l19.006-10.944
							c0.56-0.322,1.014-1.105,1.014-1.747c0-0.642-0.454-0.901-1.014-0.578l-19.007,10.974
							C182.43,233.48,181.976,234.255,181.976,234.889z"/>
					</g>
					<g id="XMLID_350_">
						<polygon id="XMLID_354_" style="fill:#BA68C8;" points="177.221,241.081 177.221,244.495 180.177,241.081 						"/>
						<path id="XMLID_351_" style="fill:#E0E0E0;" d="M181.976,240.377c0,0.633,0.454,0.885,1.015,0.563l19.006-10.944
							c0.56-0.323,1.014-1.105,1.014-1.747c0-0.642-0.454-0.901-1.014-0.578l-19.007,10.974
							C182.43,238.969,181.976,239.744,181.976,240.377z"/>
					</g>
				</g>
			</g>
			<g id="XMLID_909_">
				<g id="XMLID_913_">
					<path style="fill:#BA68C8;" d="M373.138,51.218c-1.076-0.509-2.466-0.372-4.012,0.509L165.64,169.215
						c-3.288,1.898-5.97,6.537-5.97,10.334v11.567l-7.614-4.463v-11.43c0-3.797,2.662-8.416,5.95-10.315L361.512,47.421
						c1.703-0.998,3.229-1.018,4.325-0.352C366.913,47.715,371.866,50.553,373.138,51.218z"/>
				</g>
				<path id="XMLID_912_" style="fill:#BA68C8;" d="M375.081,55.132c-0.023-3.766-2.68-5.29-5.958-3.397L165.636,169.221
					c-3.293,1.902-5.963,6.525-5.963,10.327l0.006,11.577l215.401-124.35V55.132z"/>
				<g id="XMLID_911_" style="opacity:0.2;">
					<path style="fill:#FFFFFF;" d="M369.121,51.733L165.643,169.219c-1.631,0.956-3.132,2.569-4.2,4.425l-7.576-4.388
						c1.069-1.838,2.536-3.435,4.148-4.354L361.506,47.417c1.706-0.994,3.226-1.01,4.333-0.353c1.069,0.656,6.02,3.469,7.276,4.144
						C372.065,50.702,370.659,50.852,369.121,51.733z"/>
				</g>
				<path id="XMLID_910_" style="opacity:0.15;" d="M152.047,186.679l0.005-11.459c0-1.932,0.708-4.069,1.814-5.964l7.595,4.369
					c-1.106,1.875-1.781,3.995-1.781,5.926v11.573L152.047,186.679z"/>
			</g>
			<g id="XMLID_901_">
				<path id="XMLID_905_" style="fill:#37474F;" d="M351.578,67.38c-1.251,0.722-2.266,2.87-2.266,4.797
					c0,1.926,1.014,2.902,2.266,2.18c1.251-0.723,2.266-2.87,2.266-4.796C353.844,67.633,352.83,66.657,351.578,67.38z"/>
				<path id="XMLID_903_" style="fill:#37474F;" d="M359.736,62.661c-1.251,0.722-2.266,2.87-2.266,4.797
					c0,1.926,1.014,2.903,2.266,2.18c1.251-0.723,2.266-2.87,2.266-4.797C362.002,62.915,360.987,61.938,359.736,62.661z"/>
				<path id="XMLID_902_" style="fill:#37474F;" d="M367.894,57.942c-1.251,0.723-2.265,2.87-2.265,4.797
					c0,1.927,1.014,2.903,2.265,2.18c1.252-0.722,2.266-2.87,2.266-4.797S369.145,57.22,367.894,57.942z"/>
			</g>
			<path style="fill:#E0E0E0;" d="M161.504,373.35l-6.289-3.632c-1.7-0.966-2.836-2.693-3.113-4.625
				c-0.036-0.295-0.054-0.581-0.054-0.868V186.66l7.622,4.464v178.8c0,0.224,0.018,0.429,0.054,0.635
				c0.018,0.116,0.036,0.233,0.071,0.34c0,0.054,0.018,0.107,0.036,0.152c0.036,0.125,0.072,0.251,0.125,0.367
				c0,0.018,0.009,0.045,0.018,0.054c0.063,0.152,0.134,0.295,0.206,0.438c0.08,0.143,0.179,0.277,0.268,0.411
				c0.072,0.098,0.152,0.197,0.233,0.286c0.313,0.367,0.695,0.675,1.116,0.907L161.504,373.35z"/>
		</g>
	</g>
</g>
<g id="Folder">
	<g id="Folder_1_">
		<g>
			<path style="fill:#E0E0E0;" d="M227.416,448.704c-1.267,0-2.535-0.279-3.5-0.836l-42.908-24.773l2.175-1.256l-3.075-2.722
				c-0.24-0.241-0.338-0.514-0.302-0.793c0.041-0.303,0.237-0.571,0.553-0.754l19.186-11.078c0.46-0.264,1.137-0.321,1.682-0.14
				l4.874,1.832c0.259,0.084,0.628,0.061,0.843-0.063l36.266-20.938l0.252,0.145l42.104,24.309c0.845,0.489,1.349,1.363,1.349,2.339
				c0,0.975-0.504,1.848-1.35,2.336l-54.65,31.556C229.95,448.426,228.682,448.704,227.416,448.704z M183.022,423.096l41.399,23.9
				c1.622,0.938,4.368,0.939,5.99,0l54.65-31.556c0.53-0.306,0.846-0.853,0.846-1.464c0-0.612-0.317-1.159-0.846-1.465
				l-41.852-24.164l-35.762,20.647c-0.457,0.263-1.133,0.321-1.68,0.14l-4.874-1.832c-0.259-0.088-0.629-0.061-0.844,0.063
				l-19.184,11.076l3.075,2.723c0.24,0.243,0.338,0.517,0.301,0.796c-0.041,0.303-0.238,0.57-0.553,0.753L183.022,423.096z"/>
		</g>
		<g>
			<path style="fill:#BA68C8;" d="M251.961,448.719c-1.259,0-2.518-0.284-3.5-0.85l-42.908-24.773l2.174-1.255l-3.075-2.724
				c-0.24-0.24-0.338-0.513-0.302-0.792c0.041-0.303,0.237-0.571,0.553-0.754l19.187-11.078c0.46-0.264,1.135-0.321,1.681-0.14
				l4.874,1.832c0.258,0.087,0.629,0.061,0.844-0.063l36.265-20.938l0.252,0.145l32.268,18.629l-0.504,0.873l-32.016-18.484
				l-35.761,20.647c-0.46,0.263-1.137,0.32-1.682,0.14l-4.874-1.832c-0.259-0.088-0.629-0.061-0.843,0.063l-19.185,11.076
				l3.074,2.724c0.241,0.24,0.339,0.513,0.301,0.792c-0.04,0.303-0.237,0.572-0.553,0.755l-0.664,0.383l41.398,23.9
				c1.622,0.938,4.366,0.939,5.99,0l45.244-26.121l0.504,0.873l-45.244,26.121C254.478,448.435,253.219,448.719,251.961,448.719z"/>
		</g>
		<g>
			<g>
				<path style="fill:#BA68C8;" d="M311.18,424.034c-4.448,0-8.887-0.973-12.257-2.917l0,0c-3.39-1.959-5.233-4.596-5.188-7.428
					c0.044-2.776,1.911-5.368,5.253-7.299c6.773-3.908,17.792-3.91,24.564,0c3.377,1.951,5.229,4.57,5.216,7.374
					c-0.012,2.803-1.888,5.415-5.282,7.354C320.082,423.062,315.626,424.034,311.18,424.034z M299.428,420.244
					c6.457,3.73,17.026,3.729,23.558-0.001c3.067-1.753,4.763-4.055,4.774-6.484c0.012-2.428-1.662-4.735-4.712-6.497
					c-6.494-3.75-17.062-3.75-23.556,0c-3.025,1.746-4.711,4.033-4.75,6.442C294.703,416.155,296.367,418.478,299.428,420.244
					L299.428,420.244z"/>
			</g>
			<g>
				<g>
					<path style="fill:#BA68C8;" d="M316.842,417.982c-0.171,0-0.344-0.044-0.503-0.135l-11.183-6.457
						c-0.482-0.278-0.647-0.894-0.368-1.375c0.277-0.481,0.893-0.648,1.375-0.368l11.183,6.457c0.482,0.278,0.647,0.894,0.368,1.375
						C317.528,417.801,317.19,417.982,316.842,417.982z"/>
				</g>
				<g>
					<path style="fill:#BA68C8;" d="M305.66,417.982c-0.348,0-0.687-0.181-0.873-0.504c-0.279-0.482-0.113-1.098,0.368-1.375
						l11.183-6.457c0.483-0.279,1.099-0.112,1.375,0.368c0.279,0.482,0.113,1.098-0.368,1.375l-11.183,6.457
						C306.004,417.938,305.831,417.982,305.66,417.982z"/>
				</g>
			</g>
		</g>
	</g>
</g>
<g id="Icon">
	<g id="Duplicate_Icon">
		<g id="Box_5_">
			<path style="fill:#263238;" d="M162.901,143.413c1.013,0.63,5.751,3.324,6.936,3.936c-1.284-0.511-2.473-0.257-3.821,0.516
				l-79.39,45.86c-3.134,1.815-5.674,6.21-5.674,9.84v90.363c0.033,1.599,0.506,3.307,1.681,4.413
				c0.134,0.134,0.268,0.229,0.42,0.344c-4.528-3.219-9.269-3.168-9.362-8.884c0,0,0-90.363,0-90.363
				c-0.006-3.589,2.567-8.053,5.674-9.839c0,0,79.39-45.861,79.39-45.861C160.379,142.821,161.831,142.802,162.901,143.413z"/>
			<path id="Outline_9_" style="fill:#37474F;" d="M168.547,147.089c-0.764,0-1.624,0.249-2.536,0.776l-79.378,45.858
				c-3.137,1.811-5.679,6.215-5.679,9.837v90.361c0,2.864,1.59,5.295,3.809,5.295c0.587,0,1.218-0.171,1.876-0.549l79.479-45.886
				c3.139-1.806,5.684-6.206,5.684-9.828l-0.111-91.809C171.69,148.574,170.411,147.089,168.547,147.089L168.547,147.089z"/>
			<path style="fill:#455A64;" d="M166.009,147.862l-79.37,45.858c-1.554,0.91-2.983,2.447-4.001,4.215l-7.216-4.18
				c1.019-1.751,2.412-3.269,3.947-4.144l79.389-45.858c1.626-0.947,3.072-0.965,4.126-0.339c1.018,0.625,5.734,3.304,6.931,3.948
				C168.813,146.88,167.474,147.023,166.009,147.862z"/>
		</g>
		<path style="fill:#BA68C8;" d="M106.394,199.426l0.002,53.993c0,2.47,1.734,3.472,3.874,2.236l46.758-26.996
			c2.139-1.235,3.873-4.239,3.873-6.709l0-53.993c0-2.47-1.734-3.471-3.874-2.236l-46.76,26.997
			C108.128,193.952,106.394,196.956,106.394,199.426z"/>
		<path style="opacity:0.3;" d="M139.398,190.239c0-2.47-1.734-3.472-3.874-2.237l-29.131,16.819l0.001,48.599
			c0,2.47,1.734,3.472,3.874,2.236l29.13-16.818L139.398,190.239z"/>
		<g>
			<path style="fill:#BA68C8;" d="M91.858,224.599l0.002,53.993c0,2.47,1.734,3.472,3.874,2.236l46.758-26.997
				c2.139-1.235,3.874-4.239,3.874-6.709l0-53.993c0-2.47-1.734-3.472-3.874-2.237l-46.76,26.997
				C93.592,219.125,91.858,222.129,91.858,224.599z"/>
			<path style="opacity:0.3;fill:#FFFFFF;" d="M91.858,224.599l0.002,53.993c0,2.47,1.734,3.472,3.874,2.236l46.758-26.997
				c2.139-1.235,3.874-4.239,3.874-6.709l0-53.993c0-2.47-1.734-3.472-3.874-2.237l-46.76,26.997
				C93.592,219.125,91.858,222.129,91.858,224.599z"/>
			<path style="fill:#FFFFFF;" d="M135.465,231.565l0-5.454c0-0.988-0.694-1.389-1.55-0.895l-9.353,5.4l0.001-10.798
				c0-0.988-0.694-1.389-1.549-0.895l-4.723,2.726c-0.856,0.494-1.55,1.695-1.55,2.683v10.8l-9.352,5.399
				c-0.856,0.494-1.549,1.696-1.549,2.684l0,5.452c0,0.988,0.694,1.389,1.549,0.895l9.352-5.399v10.799
				c0,0.988,0.694,1.389,1.549,0.895l4.723-2.727c0.856-0.494,1.549-1.696,1.549-2.684v-10.796l9.352-5.399
				C134.771,233.755,135.465,232.553,135.465,231.565z"/>
		</g>
	</g>
</g>
<g id="Cursors">
	<g id="Cursor">
		<g>
			<g>
				<polygon style="fill:#E0E0E0;" points="197.525,266.607 192.005,263.42 192.005,320.396 197.525,323.584 208.244,301.099 
					223.476,292.305 				"/>
				<path style="fill:#455A64;" d="M197.525,324.065c-0.084,0-0.167-0.022-0.241-0.064l-5.52-3.187
					c-0.149-0.086-0.241-0.245-0.241-0.417v-56.977c0-0.172,0.092-0.331,0.241-0.417c0.149-0.086,0.332-0.086,0.481,0l5.52,3.188
					c0.036,0.02,0.069,0.046,0.098,0.075l25.951,25.698c0.107,0.106,0.158,0.255,0.139,0.404c-0.019,0.149-0.107,0.28-0.237,0.355
					l-15.102,8.72L197.96,323.79c-0.058,0.122-0.164,0.213-0.292,0.253C197.622,324.058,197.573,324.065,197.525,324.065z
					 M192.486,320.119l4.829,2.788l10.495-22.014c0.042-0.088,0.109-0.161,0.194-0.21l14.686-8.479l-25.458-25.21l-4.745-2.739
					V320.119z"/>
			</g>
			<g>
				<polygon style="fill:#FAFAFA;" points="197.525,266.607 197.525,323.584 208.244,301.099 223.476,292.305 				"/>
				<path style="fill:#455A64;" d="M197.525,324.065c-0.035,0-0.071-0.004-0.107-0.012c-0.219-0.05-0.375-0.245-0.375-0.47v-56.977
					c0-0.194,0.117-0.37,0.296-0.444c0.179-0.074,0.385-0.035,0.525,0.102l25.951,25.698c0.107,0.106,0.158,0.255,0.139,0.404
					c-0.019,0.149-0.107,0.28-0.237,0.355l-15.102,8.72L197.96,323.79C197.879,323.961,197.708,324.065,197.525,324.065z
					 M198.007,267.761v53.693l9.803-20.563c0.042-0.088,0.109-0.161,0.194-0.21l14.686-8.479L198.007,267.761z"/>
			</g>
		</g>
		<g>
			<polygon style="fill:#263238;" points="181.79,263.316 176.269,260.129 176.269,317.106 181.79,320.293 192.509,297.809 
				207.74,289.014 			"/>
			<polygon style="fill:#455A64;" points="181.79,263.316 181.79,320.293 192.508,297.809 207.74,289.014 			"/>
		</g>
	</g>
</g>
<g id="Duplicate">
	<g>
		<g id="Duplicated_Document">
			<g>
				<g>
					<path style="fill:#BA68C8;" d="M301.992,277.568c-0.154,0-0.305-0.08-0.387-0.224c-0.123-0.213-0.05-0.487,0.164-0.611
						l2.323-1.341c0.212-0.122,0.488-0.052,0.611,0.164c0.123,0.213,0.05,0.487-0.164,0.611l-2.323,1.341
						C302.146,277.549,302.069,277.568,301.992,277.568z M298.771,276.755c-0.248,0-0.448-0.188-0.448-0.435
						c0-0.014,0.002-0.055,0.003-0.07l-0.002-2.638c0-0.247,0.201-0.447,0.447-0.447c0.247,0,0.447,0.201,0.447,0.447v2.683
						C299.218,276.542,299.018,276.755,298.771,276.755z M308.189,273.993c-0.154,0-0.305-0.08-0.387-0.224
						c-0.123-0.213-0.05-0.487,0.164-0.611l2.323-1.341c0.212-0.124,0.488-0.051,0.611,0.164c0.124,0.213,0.05,0.487-0.164,0.611
						l-2.323,1.341C308.342,273.974,308.265,273.993,308.189,273.993z M314.385,270.418c-0.154,0-0.305-0.08-0.387-0.224
						c-0.123-0.213-0.05-0.487,0.164-0.611l2.323-1.341c0.212-0.122,0.488-0.051,0.611,0.164c0.123,0.213,0.05,0.487-0.164,0.611
						l-2.323,1.341C314.538,270.398,314.461,270.418,314.385,270.418z M298.771,269.588c-0.247,0-0.447-0.201-0.447-0.447v-2.683
						c0-0.247,0.201-0.447,0.447-0.447c0.247,0,0.447,0.201,0.447,0.447v2.683C299.218,269.388,299.018,269.588,298.771,269.588z
						 M320.581,266.842c-0.154,0-0.305-0.08-0.387-0.224c-0.123-0.213-0.05-0.487,0.164-0.611l2.324-1.341
						c0.212-0.123,0.488-0.052,0.611,0.164c0.123,0.213,0.05,0.487-0.164,0.611l-2.324,1.341
						C320.734,266.823,320.657,266.842,320.581,266.842z M326.777,263.267c-0.154,0-0.305-0.08-0.387-0.224
						c-0.123-0.213-0.05-0.487,0.164-0.61l2.324-1.341c0.211-0.122,0.487-0.051,0.611,0.164c0.123,0.213,0.05,0.487-0.164,0.611
						l-2.324,1.341C326.931,263.248,326.854,263.267,326.777,263.267z M298.771,262.435c-0.247,0-0.447-0.201-0.447-0.447v-2.683
						c0-0.247,0.201-0.447,0.447-0.447c0.247,0,0.447,0.2,0.447,0.447v2.683C299.218,262.234,299.018,262.435,298.771,262.435z
						 M332.974,259.692c-0.154,0-0.305-0.08-0.387-0.224c-0.123-0.213-0.05-0.487,0.164-0.611l2.323-1.341
						c0.212-0.122,0.487-0.051,0.611,0.164c0.123,0.213,0.05,0.487-0.164,0.611l-2.323,1.341
						C333.128,259.673,333.051,259.692,332.974,259.692z M339.171,256.116c-0.154,0-0.305-0.08-0.387-0.224
						c-0.123-0.213-0.05-0.487,0.164-0.611l2.323-1.341c0.211-0.123,0.488-0.052,0.611,0.164c0.123,0.213,0.05,0.487-0.164,0.611
						l-2.323,1.341C339.324,256.097,339.247,256.116,339.171,256.116z M298.771,255.281c-0.247,0-0.447-0.201-0.447-0.447v-2.683
						c0-0.247,0.201-0.447,0.447-0.447c0.247,0,0.447,0.2,0.447,0.447v2.683C299.218,255.08,299.018,255.281,298.771,255.281z
						 M345.367,252.541c-0.154,0-0.305-0.08-0.387-0.224c-0.123-0.213-0.05-0.487,0.164-0.611l2.323-1.341
						c0.212-0.123,0.488-0.051,0.611,0.164c0.123,0.213,0.05,0.487-0.164,0.611l-2.323,1.341
						C345.52,252.522,345.443,252.541,345.367,252.541z M351.563,248.966c-0.154,0-0.305-0.08-0.387-0.224
						c-0.123-0.214-0.05-0.487,0.164-0.61l2.323-1.34c0.211-0.122,0.487-0.051,0.611,0.164c0.123,0.214,0.05,0.487-0.164,0.611
						l-2.323,1.34C351.716,248.947,351.639,248.966,351.563,248.966z M298.771,248.128c-0.247,0-0.447-0.201-0.447-0.447v-2.683
						c0-0.247,0.201-0.447,0.447-0.447c0.247,0,0.447,0.201,0.447,0.447v2.683C299.218,247.927,299.018,248.128,298.771,248.128z
						 M357.207,244.762c-0.069,0-0.14-0.016-0.205-0.05c-0.22-0.113-0.306-0.383-0.192-0.602c0.323-0.626,0.501-1.283,0.501-1.848
						v-0.538c0-0.247,0.201-0.447,0.447-0.447c0.247,0,0.447,0.201,0.447,0.447v0.538c0,0.705-0.213,1.507-0.601,2.258
						C357.526,244.674,357.368,244.762,357.207,244.762z M298.771,240.973c-0.247,0-0.447-0.201-0.447-0.447v-2.683
						c0-0.247,0.201-0.447,0.447-0.447c0.247,0,0.447,0.201,0.447,0.447v2.683C299.218,240.773,299.018,240.973,298.771,240.973z
						 M357.757,237.699c-0.247,0-0.447-0.201-0.447-0.447l-0.001-2.683c0-0.247,0.201-0.447,0.447-0.447
						c0.247,0,0.447,0.201,0.447,0.447l0.001,2.683C358.204,237.499,358.004,237.699,357.757,237.699z M298.771,233.82
						c-0.247,0-0.447-0.201-0.447-0.447v-2.683c0-0.247,0.201-0.447,0.447-0.447c0.247,0,0.447,0.201,0.447,0.447v2.683
						C299.218,233.619,299.018,233.82,298.771,233.82z M357.755,230.545c-0.247,0-0.447-0.201-0.447-0.447v-2.683
						c0-0.247,0.201-0.447,0.447-0.447c0.247,0,0.447,0.201,0.447,0.447v2.683C358.202,230.344,358.002,230.545,357.755,230.545z
						 M298.771,226.665c-0.247,0-0.447-0.201-0.447-0.447v-2.683c0-0.247,0.201-0.447,0.447-0.447c0.247,0,0.447,0.2,0.447,0.447
						v2.683C299.218,226.465,299.018,226.665,298.771,226.665z M357.754,223.391c-0.247,0-0.447-0.201-0.447-0.447l-0.001-2.683
						c0-0.247,0.201-0.447,0.447-0.447c0.247,0,0.447,0.201,0.447,0.447l0.001,2.683
						C358.201,223.191,358.001,223.391,357.754,223.391z M298.771,219.512c-0.247,0-0.447-0.201-0.447-0.447v-2.683
						c0-0.247,0.201-0.447,0.447-0.447c0.247,0,0.447,0.201,0.447,0.447v2.683C299.218,219.312,299.018,219.512,298.771,219.512z
						 M357.752,216.237c-0.247,0-0.447-0.201-0.447-0.447v-2.683c0-0.247,0.201-0.447,0.447-0.447c0.247,0,0.447,0.201,0.447,0.447
						v2.683C358.199,216.037,357.999,216.237,357.752,216.237z M298.771,212.358c-0.247,0-0.447-0.201-0.447-0.447v-2.683
						c0-0.247,0.201-0.447,0.447-0.447c0.247,0,0.447,0.2,0.447,0.447v2.683C299.218,212.158,299.018,212.358,298.771,212.358z
						 M357.751,209.084c-0.247,0-0.447-0.201-0.447-0.447l-0.001-2.683c0-0.247,0.2-0.447,0.447-0.447
						c0.247,0,0.447,0.201,0.447,0.447l0.001,2.683C358.199,208.883,357.998,209.084,357.751,209.084z M298.771,205.205
						c-0.247,0-0.447-0.201-0.447-0.447v-2.683c0-0.247,0.201-0.447,0.447-0.447c0.247,0,0.447,0.2,0.447,0.447v2.683
						C299.218,205.004,299.018,205.205,298.771,205.205z M357.75,201.93c-0.247,0-0.447-0.201-0.447-0.447V198.8
						c0-0.247,0.201-0.447,0.447-0.447c0.247,0,0.447,0.201,0.447,0.447v2.683C358.197,201.729,357.996,201.93,357.75,201.93z
						 M298.771,198.05c-0.247,0-0.447-0.201-0.447-0.447v-2.683c0-0.247,0.201-0.447,0.447-0.447c0.247,0,0.447,0.201,0.447,0.447
						v2.683C299.218,197.85,299.018,198.05,298.771,198.05z M357.749,194.776c-0.247,0-0.447-0.201-0.447-0.447l-0.001-2.683
						c0-0.247,0.2-0.447,0.447-0.447c0.247,0,0.447,0.2,0.447,0.447l0.001,2.683C358.196,194.576,357.995,194.776,357.749,194.776z
						 M298.771,190.896c-0.247,0-0.447-0.2-0.447-0.447v-2.683c0-0.247,0.201-0.447,0.447-0.447c0.247,0,0.447,0.201,0.447,0.447
						v2.683C299.218,190.696,299.018,190.896,298.771,190.896z M357.747,187.622c-0.247,0-0.447-0.2-0.447-0.447v-2.683
						c0-0.247,0.201-0.447,0.447-0.447s0.447,0.201,0.447,0.447v2.683C358.194,187.421,357.994,187.622,357.747,187.622z
						 M298.771,183.743c-0.247,0-0.447-0.201-0.447-0.447v-2.683c0-0.247,0.201-0.447,0.447-0.447c0.247,0,0.447,0.201,0.447,0.447
						v2.683C299.218,183.542,299.018,183.743,298.771,183.743z M357.746,180.469c-0.247,0-0.447-0.201-0.447-0.447l-0.001-2.683
						c0-0.247,0.2-0.447,0.447-0.447c0.247,0,0.447,0.201,0.447,0.447l0.001,2.683C358.193,180.268,357.993,180.469,357.746,180.469
						z M299.799,176.816c-0.092,0-0.186-0.028-0.266-0.088c-0.199-0.146-0.24-0.426-0.093-0.625
						c0.419-0.568,0.914-1.026,1.431-1.324l0.781-0.452c0.214-0.122,0.489-0.051,0.612,0.163c0.123,0.214,0.05,0.488-0.163,0.611
						l-0.782,0.452c-0.412,0.237-0.813,0.611-1.16,1.081C300.071,176.754,299.936,176.816,299.799,176.816z M357.744,173.314
						c-0.247,0-0.447-0.201-0.447-0.447l-0.001-2.683c0-0.247,0.201-0.447,0.447-0.447c0.247,0,0.447,0.201,0.447,0.447l0.001,2.683
						C358.191,173.114,357.991,173.314,357.744,173.314z M305.748,172.927c-0.154,0-0.305-0.08-0.387-0.223
						c-0.123-0.214-0.05-0.488,0.163-0.611l2.323-1.342c0.214-0.122,0.488-0.051,0.612,0.163c0.123,0.214,0.05,0.488-0.163,0.611
						l-2.323,1.342C305.902,172.908,305.824,172.927,305.748,172.927z M311.944,169.35c-0.154,0-0.305-0.08-0.387-0.223
						c-0.123-0.214-0.05-0.488,0.163-0.611l2.322-1.341c0.215-0.122,0.489-0.051,0.612,0.163c0.123,0.214,0.05,0.488-0.163,0.611
						l-2.322,1.341C312.098,169.331,312.021,169.35,311.944,169.35z M357.742,166.161c-0.247,0-0.447-0.201-0.447-0.447v-2.683
						c0-0.247,0.201-0.447,0.447-0.447c0.247,0,0.447,0.2,0.447,0.447v2.683C358.19,165.96,357.989,166.161,357.742,166.161z
						 M318.14,165.773c-0.154,0-0.305-0.08-0.387-0.224c-0.123-0.213-0.05-0.487,0.164-0.611l2.323-1.341
						c0.211-0.122,0.487-0.051,0.611,0.164c0.123,0.213,0.05,0.487-0.164,0.611l-2.323,1.341
						C318.293,165.754,318.216,165.773,318.14,165.773z M324.335,162.197c-0.154,0-0.305-0.08-0.387-0.223
						c-0.123-0.214-0.05-0.488,0.163-0.611l2.323-1.342c0.214-0.122,0.489-0.051,0.612,0.163c0.123,0.214,0.05,0.488-0.163,0.611
						l-2.323,1.342C324.488,162.177,324.411,162.197,324.335,162.197z M357.741,159.007c-0.247,0-0.447-0.201-0.447-0.447
						l-0.001-2.682c0-0.247,0.201-0.447,0.447-0.447c0.247,0,0.447,0.201,0.447,0.447l0.001,2.682
						C358.189,158.806,357.988,159.007,357.741,159.007z M330.53,158.619c-0.154,0-0.305-0.08-0.387-0.223
						c-0.123-0.214-0.05-0.488,0.163-0.611l2.323-1.342c0.214-0.122,0.488-0.05,0.612,0.163c0.123,0.214,0.05,0.488-0.163,0.611
						l-2.323,1.342C330.684,158.6,330.607,158.619,330.53,158.619z M336.726,155.042c-0.154,0-0.305-0.08-0.387-0.224
						c-0.123-0.213-0.05-0.487,0.164-0.611l2.323-1.341c0.212-0.123,0.488-0.051,0.611,0.164c0.123,0.213,0.05,0.487-0.164,0.611
						l-2.323,1.341C336.879,155.023,336.802,155.042,336.726,155.042z M357.74,151.853c-0.247,0-0.447-0.201-0.447-0.447v-2.684
						c0-0.247,0.201-0.447,0.447-0.447c0.247,0,0.447,0.201,0.447,0.447v2.684C358.187,151.653,357.986,151.853,357.74,151.853z
						 M342.921,151.466c-0.154,0-0.305-0.08-0.387-0.223c-0.123-0.214-0.05-0.488,0.163-0.611l2.323-1.342
						c0.215-0.123,0.489-0.051,0.612,0.163c0.123,0.214,0.05,0.488-0.163,0.611l-2.323,1.342
						C343.074,151.447,342.997,151.466,342.921,151.466z M349.116,147.889c-0.154,0-0.305-0.08-0.387-0.223
						c-0.123-0.214-0.05-0.488,0.163-0.611l2.323-1.342c0.215-0.123,0.488-0.051,0.612,0.163c0.123,0.214,0.05,0.488-0.163,0.611
						l-2.323,1.342C349.27,147.87,349.193,147.889,349.116,147.889z M357.583,144.719c-0.175,0-0.342-0.103-0.413-0.276
						c-0.24-0.578-0.836-0.653-1.533-0.25l-0.103,0.059c-0.212,0.124-0.487,0.05-0.611-0.164c-0.123-0.214-0.05-0.488,0.164-0.611
						l0.103-0.059c1.185-0.684,2.367-0.378,2.805,0.682c0.095,0.229-0.014,0.49-0.241,0.584
						C357.699,144.708,357.641,144.719,357.583,144.719z"/>
				</g>
				<g>
					<path style="fill:#BA68C8;" d="M298.771,203.859c-0.076,0-0.153-0.019-0.223-0.06l-2.324-1.342
						c-0.214-0.123-0.288-0.397-0.164-0.611c0.124-0.215,0.4-0.287,0.611-0.164l2.324,1.342c0.214,0.123,0.288,0.397,0.164,0.611
						C299.076,203.779,298.925,203.859,298.771,203.859z M292.573,200.281c-0.076,0-0.153-0.019-0.223-0.06l-2.324-1.342
						c-0.214-0.123-0.288-0.397-0.164-0.611c0.124-0.215,0.4-0.287,0.611-0.164l2.324,1.342c0.214,0.124,0.288,0.397,0.164,0.611
						C292.878,200.201,292.727,200.281,292.573,200.281z M286.376,196.703c-0.076,0-0.153-0.019-0.224-0.06l-2.324-1.343
						c-0.213-0.123-0.287-0.397-0.163-0.611c0.124-0.214,0.399-0.286,0.612-0.163l2.324,1.343c0.213,0.123,0.287,0.397,0.163,0.611
						C286.68,196.623,286.53,196.703,286.376,196.703z M280.178,193.124c-0.076,0-0.153-0.019-0.223-0.06l-2.324-1.342
						c-0.214-0.123-0.288-0.397-0.164-0.611c0.123-0.215,0.4-0.287,0.611-0.164l2.324,1.342c0.214,0.123,0.288,0.397,0.164,0.611
						C280.482,193.044,280.332,193.124,280.178,193.124z"/>
				</g>
				<g>
					<g>
						<path style="fill:#FAFAFA;" d="M356.987,132.672c5.173-2.987,9.367-0.566,9.367,5.408c0,5.974-4.194,13.237-9.367,16.225
							c-5.173,2.987-9.367,0.566-9.367-5.408S351.814,135.659,356.987,132.672z"/>
						<path style="fill:#BA68C8;" d="M352.803,155.97c-0.958,0-1.846-0.225-2.631-0.678c-1.893-1.093-2.935-3.364-2.935-6.396
							c0-6.086,4.288-13.513,9.559-16.556c2.626-1.517,5.112-1.749,7.005-0.656c1.893,1.093,2.935,3.364,2.935,6.396
							c0,6.086-4.288,13.513-9.558,16.556C355.643,155.523,354.153,155.97,352.803,155.97z M361.169,131.772
							c-1.215,0-2.574,0.413-3.99,1.231l0,0c-5.06,2.921-9.176,10.05-9.176,15.893c0,2.747,0.906,4.783,2.552,5.733
							c1.647,0.951,3.862,0.717,6.241-0.657c5.06-2.921,9.175-10.05,9.175-15.893c0-2.747-0.906-4.783-2.552-5.733
							C362.753,131.963,361.994,131.772,361.169,131.772z"/>
					</g>
					<path style="fill:#BA68C8;" d="M363.001,141.124v-2.214c0-0.401-0.282-0.564-0.629-0.363l-3.798,2.192l0-4.385
						c0-0.401-0.281-0.564-0.629-0.363l-1.918,1.107c-0.347,0.201-0.629,0.688-0.629,1.089l0,4.385l-3.797,2.192
						c-0.347,0.201-0.629,0.688-0.629,1.09v2.214c0,0.401,0.282,0.564,0.629,0.363l3.797-2.192l0,4.385
						c0,0.401,0.282,0.564,0.629,0.363l1.917-1.107c0.348-0.201,0.629-0.688,0.629-1.09v-4.383l3.797-2.192
						C362.719,142.013,363.001,141.525,363.001,141.124z"/>
				</g>
			</g>
			<g id="Document_1_">
				<g>
					<path style="fill:#F0F0F0;" d="M360.534,166.657v69.299c0,0.949-0.667,2.105-1.493,2.58l-50.123,28.944
						c-0.406,0.234-0.784,0.261-1.053,0.103c-0.268-0.158-2.525-1.459-2.793-1.617c-0.268-0.151-0.434-0.488-0.434-0.963V181.29
						c0-0.95,0.661-2.105,1.486-2.58l37.639-21.73L360.534,166.657z"/>
					<path style="fill:#E0E0E0;" d="M310.225,182.8l-5.201-2.882c-0.239,0.443-0.389,0.931-0.389,1.375l0,83.713
						c0,0.475,0.167,0.809,0.436,0.964c0.27,0.156,2.525,1.458,2.795,1.614c0.27,0.156,0.642,0.133,1.053-0.104l1.305-0.753V182.8z"
						/>
				</g>
				<g>
					<path style="fill:#FAFAFA;" d="M360.532,166.658v69.301c0,0.95-0.668,2.105-1.493,2.58l-50.118,28.939
						c-0.819,0.475-1.486,0.09-1.486-0.86v-83.708c0-0.95,0.667-2.105,1.486-2.58l29.249-16.899l8.387-4.844L360.532,166.658z"/>
					<path style="fill:#E0E0E0;" d="M346.557,159.442l13.234,7.643v68.873c0,0.689-0.524,1.595-1.123,1.939l-50.119,28.94
						c-0.165,0.096-0.265,0.103-0.304,0.106c-0.015-0.014-0.07-0.109-0.07-0.326v-83.708c0-0.688,0.522-1.594,1.116-1.939
						l29.249-16.898L346.557,159.442 M346.557,158.587l-8.388,4.844l-29.249,16.899c-0.819,0.475-1.486,1.631-1.486,2.58v83.708
						c0,0.674,0.336,1.063,0.823,1.063c0.2,0,0.425-0.065,0.663-0.203l50.118-28.939c0.826-0.475,1.493-1.631,1.493-2.58v-69.301
						L346.557,158.587L346.557,158.587z"/>
				</g>
				<g>
					<g>
						<path style="fill:#BA68C8;" d="M353.203,167.207c0.542,0,0.914,0.432,0.914,1.178l0,59.036c0,1.053-0.739,2.333-1.651,2.859
							l-36.964,21.341c-0.265,0.153-0.516,0.225-0.737,0.225c-0.542,0-0.914-0.432-0.914-1.179l0-59.036
							c0-1.053,0.739-2.333,1.651-2.859l25-14.434l11.964-6.908C352.73,167.279,352.981,167.207,353.203,167.207 M353.203,166.519
							c-0.353,0-0.716,0.107-1.081,0.318l-11.965,6.908l-25,14.434c-1.119,0.646-1.995,2.164-1.995,3.456l0,59.036
							c0,1.099,0.659,1.867,1.602,1.867c0.352,0,0.716-0.107,1.081-0.318l36.965-21.341c1.119-0.646,1.995-2.164,1.995-3.455
							l0-59.036C354.804,167.286,354.146,166.519,353.203,166.519L353.203,166.519z"/>
					</g>
				</g>
				<path style="fill:#E0E0E0;" d="M346.56,173.001v-14.415l13.974,8.071l-12.481,7.204
					C347.228,174.335,346.56,173.95,346.56,173.001z"/>
				<g>
					<path style="fill:#BA68C8;" d="M321.385,211.109l25.196-14.688c1.07-0.618,1.937-2.057,1.937-3.216
						c0-1.159-0.867-1.597-1.937-0.98l-25.197,14.687c-1.069,0.618-1.936,2.058-1.936,3.217
						C319.448,211.288,320.316,211.727,321.385,211.109z M346.581,201.512l-25.197,14.687c-1.069,0.618-1.936,2.058-1.936,3.216
						c0,1.159,0.868,1.598,1.937,0.98l25.196-14.688c1.07-0.618,1.937-2.058,1.937-3.216
						C348.518,201.333,347.651,200.895,346.581,201.512z M346.581,210.798l-25.197,14.687c-1.069,0.617-1.936,2.058-1.936,3.216
						c0,1.159,0.868,1.598,1.937,0.98l25.196-14.688c1.07-0.618,1.937-2.057,1.937-3.216
						C348.518,210.62,347.651,210.181,346.581,210.798z"/>
					<path style="opacity:0.3;fill:#FFFFFF;" d="M321.385,211.109l25.196-14.688c1.07-0.618,1.937-2.057,1.937-3.216
						c0-1.159-0.867-1.597-1.937-0.98l-25.197,14.687c-1.069,0.618-1.936,2.058-1.936,3.217
						C319.448,211.288,320.316,211.727,321.385,211.109z M346.581,201.512l-25.197,14.687c-1.069,0.618-1.936,2.058-1.936,3.216
						c0,1.159,0.868,1.598,1.937,0.98l25.196-14.688c1.07-0.618,1.937-2.058,1.937-3.216
						C348.518,201.333,347.651,200.895,346.581,201.512z M346.581,210.798l-25.197,14.687c-1.069,0.617-1.936,2.058-1.936,3.216
						c0,1.159,0.868,1.598,1.937,0.98l25.196-14.688c1.07-0.618,1.937-2.057,1.937-3.216
						C348.518,210.62,347.651,210.181,346.581,210.798z"/>
				</g>
			</g>
		</g>
		<g id="Document">
			<g>
				<path style="fill:#F0F0F0;" d="M279.322,170.187v69.299c0,0.95-0.667,2.105-1.493,2.58l-50.123,28.944
					c-0.406,0.234-0.785,0.262-1.053,0.103c-0.268-0.158-2.525-1.459-2.794-1.617c-0.268-0.151-0.434-0.488-0.434-0.963v-83.713
					c0-0.949,0.661-2.105,1.486-2.58l37.639-21.73L279.322,170.187z"/>
				<path style="fill:#E0E0E0;" d="M229.013,186.33l-5.201-2.883c-0.239,0.443-0.389,0.931-0.389,1.375l0,83.712
					c0,0.475,0.167,0.809,0.436,0.964c0.27,0.156,2.525,1.458,2.795,1.614c0.27,0.156,0.642,0.133,1.053-0.104l1.305-0.753V186.33z"
					/>
			</g>
			<g>
				<path style="fill:#FAFAFA;" d="M279.319,170.188v69.301c0,0.95-0.668,2.105-1.493,2.58l-50.118,28.94
					c-0.819,0.475-1.486,0.09-1.486-0.86V186.44c0-0.949,0.667-2.105,1.486-2.58l29.249-16.899l8.387-4.844L279.319,170.188z"/>
				<path style="fill:#E0E0E0;" d="M265.345,162.972l13.234,7.643v68.873c0,0.689-0.524,1.595-1.123,1.939l-50.119,28.94
					c-0.165,0.096-0.264,0.103-0.303,0.107c-0.015-0.014-0.07-0.109-0.07-0.326V186.44c0-0.688,0.522-1.594,1.116-1.939
					l29.249-16.899L265.345,162.972 M265.345,162.117l-8.387,4.844l-29.249,16.899c-0.819,0.475-1.486,1.631-1.486,2.58v83.709
					c0,0.674,0.336,1.063,0.824,1.063c0.2,0,0.425-0.065,0.663-0.203l50.118-28.94c0.826-0.475,1.493-1.631,1.493-2.58v-69.301
					L265.345,162.117L265.345,162.117z"/>
			</g>
			<g>
				<g>
					<path style="fill:#BA68C8;" d="M271.99,170.737c0.542,0,0.914,0.432,0.914,1.178l0,59.036c0,1.053-0.739,2.333-1.651,2.859
						l-36.964,21.341c-0.265,0.153-0.516,0.226-0.737,0.226c-0.542,0-0.914-0.432-0.914-1.179l0-59.036
						c0-1.053,0.739-2.333,1.651-2.859l25-14.434l11.965-6.908C271.518,170.81,271.768,170.737,271.99,170.737 M271.99,170.049
						c-0.352,0-0.716,0.107-1.081,0.318l-11.964,6.908l-25,14.434c-1.119,0.646-1.995,2.163-1.995,3.455l0,59.036
						c0,1.099,0.659,1.867,1.602,1.867c0.353,0,0.716-0.107,1.081-0.318l36.964-21.341c1.119-0.646,1.995-2.164,1.995-3.455
						l0-59.036C273.592,170.817,272.933,170.049,271.99,170.049L271.99,170.049z"/>
				</g>
			</g>
			<path style="fill:#E0E0E0;" d="M265.348,176.531v-14.415l13.974,8.071l-12.481,7.204
				C266.015,177.866,265.348,177.481,265.348,176.531z"/>
			<g>
				<path style="fill:#BA68C8;" d="M240.173,214.64l25.196-14.687c1.07-0.618,1.937-2.058,1.937-3.216s-0.867-1.597-1.937-0.98
					l-25.197,14.687c-1.069,0.618-1.936,2.058-1.936,3.216C238.236,214.819,239.103,215.258,240.173,214.64z M265.369,205.043
					l-25.197,14.687c-1.069,0.618-1.936,2.058-1.936,3.217c0,1.159,0.868,1.598,1.937,0.98l25.196-14.688
					c1.07-0.618,1.937-2.057,1.937-3.216S266.439,204.425,265.369,205.043z M265.369,214.329l-25.197,14.687
					c-1.069,0.617-1.936,2.058-1.936,3.216c0,1.159,0.868,1.598,1.937,0.98l25.196-14.688c1.07-0.618,1.937-2.058,1.937-3.216
					C267.306,214.15,266.439,213.711,265.369,214.329z"/>
				<path style="opacity:0.3;fill:#FFFFFF;" d="M240.173,214.64l25.196-14.687c1.07-0.618,1.937-2.058,1.937-3.216
					s-0.867-1.597-1.937-0.98l-25.197,14.687c-1.069,0.618-1.936,2.058-1.936,3.216C238.236,214.819,239.103,215.258,240.173,214.64
					z M265.369,205.043l-25.197,14.687c-1.069,0.618-1.936,2.058-1.936,3.217c0,1.159,0.868,1.598,1.937,0.98l25.196-14.688
					c1.07-0.618,1.937-2.057,1.937-3.216S266.439,204.425,265.369,205.043z M265.369,214.329l-25.197,14.687
					c-1.069,0.617-1.936,2.058-1.936,3.216c0,1.159,0.868,1.598,1.937,0.98l25.196-14.688c1.07-0.618,1.937-2.058,1.937-3.216
					C267.306,214.15,266.439,213.711,265.369,214.329z"/>
			</g>
		</g>
	</g>
</g>
<g id="Character">
	<g id="Character_1_">
		<g id="Bottom_14_">
			<g>
				<path style="fill:#FFBDA7;" d="M388.522,399.318c0.083,4.341,0.422,10.655,0,12.457c-0.422,1.801-7.656,3.554-13.313,3.819
					c-5.657,0.265-12.465-0.615-12.874,3.355c-0.414,4.015,3.133,6.672,5.734,7.875c4.414,2.042,9.335,1.597,13.662,0.962
					c4.327-0.635,6.637-0.173,11.208,0.943c4.571,1.116,7.151,0.429,9.107-0.549c2.895-1.448,2.129-6.4,1.102-9.62
					c-1.027-3.22-0.909-6.167-0.524-10.637c0.384-4.47,1.653-10.994,1.653-10.994L388.522,399.318z"/>
				<path style="fill:#455A64;" d="M403.147,418.561c0,0,0.007,1.367-2.963,1.991c-2.97,0.624-7.886,0.462-11.334,0.684
					c-5.169,0.333-9.09,0.926-15.018,0c-5.197-0.811-4.979-4.935-0.323-5.592l0-0.001c-5.238,0.088-10.804-0.273-11.173,3.306
					c-0.414,4.015,3.133,6.672,5.734,7.875c4.414,2.042,9.335,1.597,13.662,0.962s6.637-0.173,11.208,0.943
					c4.571,1.116,7.151,0.429,9.107-0.549C404.94,426.733,404.173,421.781,403.147,418.561z"/>
			</g>
			<g>
				<path style="fill:#FFBDA7;" d="M442.262,388.547c2.423,3.527,6.432,10.179,6.985,11.837c0.553,1.658,1.059,7.854,0,9.688
					c-1.515,1.11-3.898,1.744-5.932,2.75c-2.934,1.452-3.565,3.856-1.647,5.696c2.677,2.567,6.995,2.871,9.606,2.717
					c3.792-0.579,4.053-4.829,4.6-8.592c0.547-3.763-0.071-11.166,2.782-15.714c2.853-4.547,7.911-4.974,8.57-3.46
					c-0.311-2.286-1.572-2.355-4.308-3.902c-2.736-1.546-5.118-1.499-6.632-5.09c-1.792-4.25-3.422-9.322-3.422-9.322
					L442.262,388.547z"/>
				<path style="fill:#263238;" d="M447.596,421.305c2.728,0.457,4.64,0.455,9.479-1.919c4.176-2.049,5.236-2.913,5.874-4.051
					c1.008-1.796-0.083-6.232,0.796-10.055s1.809-5.487,2.756-7.809c0.948-2.323,0.875-3.326,0.725-4.001
					c-0.324-1.453-3.28-1.632-6.088,0c-2.808,1.632-4.628,4.739-5.556,12.146C454.654,413.024,456.084,421.128,447.596,421.305z"/>
				<path style="fill:#455A64;" d="M467.226,393.471c-0.311-2.286-1.101-2.627-3.838-4.173c-1.017-0.575-2.016-0.987-2.948-1.462v0
					c-2.648-0.499-6.819,1.589-7.033,7.146c-0.215,5.557,0.741,12.607-0.932,15.22c-1.425,2.226-3.768,2.075-3.228-0.129
					c-3.754,1.377-5.043,1.395-7.164,2.556c-2.446,1.339-3.268,4.836-1.007,6.234c3.154,1.951,6.406,2.952,10.197,2.373
					c3.792-0.579,4.053-4.829,4.6-8.592c0.547-3.763-0.071-11.166,2.782-15.714C461.509,392.383,466.567,391.956,467.226,393.471z"
					/>
			</g>
			<g>
				<path id="XMLID_568_" style="fill:#455A64;" d="M442.98,390.757c0,0-13.787-20.251-21.153-33.369
					c-5.446-9.698-5.941-11.578-7.276-17.924c-2.868-13.636-3.54-16.832-3.54-16.832l-4.278,27.537
					c0.683,2.991,2.066,8.91,2.121,12.391c0.067,4.626-0.353,11.137-1.657,20.3c-2.074,14.573-4.19,22.498-4.19,22.498
					c-1.071,0.747-4.181,0.888-6.881,0.802c-3.743-0.118-7.735-1.445-7.735-1.445s-2.247-32.452-2.771-41.38
					c-0.63-10.716-0.85-14.921-1.185-20.806c-0.533-9.367-1.807-22.933-1.444-40.145c0.724-34.242,8.35-49.871,8.35-49.871
					l38.652-5.368c3.209,11.535,9.876,12.876,10.575,28.624c0.159,3.577-1.731,10.669-1.794,16.216
					c-0.205,17.991-1.814,46.253-1.814,46.253c4.243,3.912,7.352,7.449,10.285,16.524c1.78,5.509,5.728,19.466,7.392,25.125
					C449.765,379.887,442.922,388.548,442.98,390.757z"/>
				<g>
					<path style="fill:#37474F;" d="M403.905,272.25l1.023-0.156c0.901,6.202,2.38,13.241,3.197,13.801
						c1.416,0.963,6.677,1.755,7.857,1.459c1.217-0.299,2.227-1.259,4.325-4.109c1.473-2.002,1.315-3.25,0.97-5.982
						c-0.129-1.024-0.277-2.185-0.371-3.642l1.033-0.07c0.091,1.423,0.236,2.567,0.364,3.576c0.347,2.748,0.558,4.407-1.169,6.755
						c-2.269,3.083-3.416,4.135-4.911,4.502c-0.173,0.042-0.397,0.069-0.659,0.081c-2.084,0.095-6.606-0.732-8.012-1.689
						C405.969,285.7,404.359,275.385,403.905,272.25z"/>
					<path style="fill:#37474F;" d="M388.081,271.336l0.996,0.29c-2.927,10.516-2.286,20.143,2.951,23.07
						c0.956-7.099,2.301-14.435,4.151-22.289l1.007,0.248c-5.957,25.285-6.678,45.202-5.909,69.14
						c0.585,18.231,1.738,49.58,2.279,64.121c-0.356-0.053-0.704-0.111-1.043-0.173c-0.543-14.636-1.688-45.77-2.271-63.913
						c-0.52-16.206-0.352-30.581,1.643-46.014C385.884,292.763,384.943,282.614,388.081,271.336z"/>
					<path style="fill:#37474F;" d="M440.121,280.775c-0.562,0.554-1.807,1.303-2.27,1.333l-0.031,0.001
						c-1.632,0.074-4.332-2.25-5.098-4.001c-0.373-0.851-0.496-1.877-0.652-3.178c-0.162-1.353-0.346-2.885-0.864-4.704l0.993-0.296
						c0.542,1.9,0.74,3.547,0.899,4.871c0.146,1.212,0.26,2.17,0.569,2.875c0.649,1.481,3.015,3.424,4.102,3.375l0.016-0.001
						c0.281-0.018,1.802-1.1,2.581-2.043C440.299,279.529,440.199,280.244,440.121,280.775z"/>
					<path style="fill:#37474F;" d="M446.225,385.306c0.239-0.273,0.483-0.547,0.738-0.816
						c-6.599-11.507-20.772-36.678-22.037-42.79c-1.619-7.823-4.41-34.049-4.521-48.158l-1.036,0.008
						c0.111,14.164,2.916,40.508,4.544,48.37C425.237,348.314,439.666,373.892,446.225,385.306z"/>
					<path style="fill:#37474F;" d="M426.005,268.138c2.622,4.171,4.217,11.489,0.832,19.516l-0.951-0.418
						c3.225-7.646,1.726-14.583-0.752-18.524L426.005,268.138z"/>
				</g>
				<path style="fill:#37474F;" d="M411.011,322.631l4.199-28.872c0,0,10.87-1.521,12.37-11.714
					c0.263,6.047-2.15,11.25-8.903,14.043l-5.394,26.65l1.268,16.725L411.011,322.631z"/>
			</g>
		</g>
		<g id="Top_3_">
			<g>
				<path id="XMLID_535_" style="fill:#FFBDA7;" d="M433.26,200.499c7.036,1.67,10.845,3.619,13.741,13.182
					c2.741,9.051,7.331,24.33,8.534,30.808c0.587,3.16,0.852,6.167-3.535,8.023c-9.922,4.198-19.49,7.139-19.49,7.139l-3.875-11.713
					l10.609-5.3l-2.647-8.536L433.26,200.499z"/>
				<path style="fill:#F0997A;" d="M439.245,242.639c0.756,1.657,2.262,3.744,4.37,4.779c-2.584,0.312-5.107-2.389-5.762-4.083
					L439.245,242.639z"/>
				<g>
					<path style="fill:#BA68C8;" d="M433.761,200.424c3.141,0.566,7.441,1.224,10.577,5.979c3.136,4.755,8.245,21.398,8.245,21.398
						s-2.494,3.095-8.969,4.842c-6.475,1.747-9.242,0.261-9.242,0.261l-4.907-15.946L433.761,200.424z"/>
					<path style="opacity:0.2;" d="M433.761,200.424c3.141,0.566,7.441,1.224,10.577,5.979c3.136,4.755,8.245,21.398,8.245,21.398
						s-2.494,3.095-8.969,4.842c-6.475,1.747-9.242,0.261-9.242,0.261l-4.907-15.946L433.761,200.424z"/>
				</g>
			</g>
			<g id="XMLID_525_">
				<path id="XMLID_534_" style="fill:#263238;" d="M399.099,165.491c-1.227-1.642-1.054-4.098-0.173-5.948
					c0.881-1.851,2.58-3.754,7.293-5.783c5.597-2.41,20.878-4.012,26.738,6.219c0.875,1.527-15.101,28.561-14.784,34.307
					c-3.504-4.252-15.014-19.147-15.014-19.147c-2.873-1.471-4.589-2.669-5.015-5.508
					C398.022,168.822,398.204,166.788,399.099,165.491z"/>
				<g id="XMLID_531_">
					<path id="XMLID_533_" style="fill:#F0997A;" d="M400.772,173.416c0,0-4.464,6.253-4.059,6.818
						c0.404,0.565,2.824,2.17,2.824,2.17L400.772,173.416z"/>
					<path id="XMLID_532_" style="fill:#FFBDA7;" d="M406.591,161.854c-2.773,1.077-5.247,2.971-6.5,8.803
						c-0.327,1.524,0.725,3.715,0.033,5.724c-2.96,8.603-0.706,16.112,0.885,17.847c1.075,1.171,7.063,2.082,10.285,1.427
						c4.032-0.821,12.896-4.089,17.431-9.978c5.335-6.929,7.156-16.625,2.069-20.931
						C423.636,158.686,409.551,160.704,406.591,161.854z"/>
					<path style="fill:#FFBDA7;" d="M425.79,190.449l0.503,8.739l0,0c4.852,2.835-5.187,6.536-15.83,1.981l-0.768-7.881
						L425.79,190.449z"/>
					<path style="fill:#FFBDA7;" d="M410.045,196.88c0.197,2.022,0.393,5.044-2.739,5.878c-2.946,0.785-7.71,1.275-12.351,3.009
						c0,0,16.729,2.64,25.502,1.193c8.773-1.448,10.3-7.094,10.3-7.094c-3.16-0.424-4.48-0.948-4.598-2.986H410.045z"/>
					<path style="fill:#F0997A;" d="M401.313,194.471c1.346,0.877,4.395,1.671,8.632,1.384l-0.189-2.187c0,0-1.734,0.604-4.085,0.91
						C403.336,194.881,401.338,194.476,401.313,194.471z"/>
				</g>
				<g>
					<path id="XMLID_527_" style="fill:#263238;" d="M402.396,164.716c-0.419,3.809,1.891,5.182,3.544,6.055
						c-0.689,1.061-1.176,3.215-1.021,4.452c0.245,1.963,0.868,3.601,2.728,4.377c1.138,0.475,1.518-0.015,1.999-0.904
						c0.685-1.265,1.569-3.219,4.349-2.633c3.188,0.671,3.692,5.578,1.59,8.619c-0.926,1.341-2.364,2.204-3.801,2.184
						c-1.288-0.018-2.118-1.189-2.118-1.189s-0.088,4.248,5.174,7.14c0,0,5.27,3.48,11.018,2.218
						c2.282-2.357,4.953-4.779,7.787-8.307c6.548-8.155,7.918-23.649-1.998-27.183c-0.473-0.168-8.613-2.227-13.149-1.576
						C404.581,159.965,402.469,164.056,402.396,164.716z"/>
				</g>
				<path style="fill:#263238;" d="M432.957,159.978c1.565,0,6.289,2.41,6.277,12.915c-0.008,7.093-1.719,16.59-4.019,21.035
					c-6.08,6.702-23.681,7.981-31.468,5.176c5.039-2.312,5.948-8.578,5.918-13.428c2.305,3.488,6.517,4.312,11.612,1.756
					S432.957,159.978,432.957,159.978z"/>
			</g>
			<g id="XMLID_521_">
				<path id="XMLID_524_" style="fill:#BA68C8;" d="M440.081,209.191c-1.456-7.09-5.302-8.632-7.016-8.937
					c-2.734-0.488-4.429-0.77-4.429-0.77c0.048,0.839,0.607,2.846-7.24,3.827c-5.049,0.632-13.75-0.662-13.75-0.662
					s-4.477,0.662-9.911,2.216c-5.091,1.456-7.778,7.396-11.101,15.242c-2.626,6.201-1.643,12.515,3.044,17.128
					c0.358,3.895-0.28,11.609-0.28,11.609c-3.38,13.378-3.517,22.933-3.517,22.933s3.005,2.801,26.831,2.269
					c18.454-0.412,26.971-8.661,26.971-8.661c-0.531-2.757-2.461-8.662-5.948-17.846
					C434.204,238.563,443.232,224.536,440.081,209.191z"/>
			</g>
			<g>
				<path id="XMLID_520_" style="fill:#FFBDA7;" d="M357.046,227.81c0,0-26.236-5.221-27.733-6.303
					c-1.274-0.921-1.685-2.429-2.319-3.775c-0.728-1.545-1.769-2.933-2.902-4.202c-0.746-0.835-1.645-1.555-2.341-2.427
					c-0.646-0.808-0.914-1.826-1.536-2.643c-0.675-0.886-1.474-0.23-1.871,0.559c-0.528,1.049-0.325,2.522,0.085,3.571
					c0.196,0.501,0.367,1.011,0.566,1.511c0.181,0.455,0.455,0.91,0.543,1.397c0.042,0.235,0.072,0.545-0.054,0.755
					c-0.284,0.471-1.17,0.155-1.565-0.002c-2.595-1.032-5.102-2.704-7.061-4.689c-0.86-0.871-1.536-1.848-2.46-2.663
					c-0.814-0.717-1.823-1.454-2.83-1.878c-0.523-0.22-1.645-0.614-2.224-0.399c-1.136,0.421,0.131,2.226,0.424,2.836
					c0.364,0.758,0.569,1.334,0.528,2.19c-0.053,1.118,0.157,1.589,0.775,2.516c0.521,0.781,1.321,1.604,1.437,2.551
					c0.04,0.327,0.002,0.686,0,1.015c-0.005,0.934,0.623,2.111,1.208,2.802c0.752,0.889,0.933,1.479,1.054,2.628
					c0.232,2.215,2.552,3.849,4.28,4.913c1.988,1.224,4.173,2.095,6.386,2.819c1.193,0.391,2.353,0.874,3.554,1.235
					c1.075,0.323,2.182,0.531,3.23,0.932c2.494,0.953,21.813,8.313,29.514,10.445c3.796,1.051,4.823,1.994,10.167-0.796
					c9.626-5.025,19.064-8.463,24.602-11.856c7.587-4.649,10.813-7.254,11.846-12.204c2.395-11.475-5.169-13.6-5.169-13.6
					c-2.764,0.711-4.199,1.357-12.626,6.229C375.547,216.481,357.046,227.81,357.046,227.81z"/>
				<g>
					<path style="fill:#BA68C8;" d="M397.177,205.047c-4.651,0.535-7.064,1.813-12.23,5.061c-5.166,3.247-13.945,8.94-13.945,8.94
						s0.455,7.461,6.14,13.957c4.134,4.723,7.5,4.331,7.5,4.331s13.863-10.193,16.671-14.122
						C404.121,219.283,406.187,207.504,397.177,205.047z"/>
					<path style="opacity:0.2;" d="M397.177,205.047c-4.651,0.535-7.064,1.813-12.23,5.061c-5.166,3.247-13.945,8.94-13.945,8.94
						s0.455,7.461,6.14,13.957c4.134,4.723,7.5,4.331,7.5,4.331s13.863-10.193,16.671-14.122
						C404.121,219.283,406.187,207.504,397.177,205.047z"/>
				</g>
			</g>
		</g>
	</g>
</g>
<g id="Speech_Bubble">
	<g id="Speech_Bubble_1_">
		<g id="Speech_Bubble_2_">
			<path id="XMLID_684_" style="fill:#BA68C8;" d="M420.456,134.442l-2.613-4.913l2.102-6.068v-3.714l-6.433,3.714v3.715
				l2.766,4.791c0.047,0.081,0.114,0.134,0.188,0.167l-0.001,0.002L420.456,134.442z"/>
			<path id="XMLID_683_" style="opacity:0.2;" d="M420.456,134.442l-2.613-4.913l2.102-6.068v-3.714l-6.433,3.714v3.715l2.766,4.791
				c0.047,0.081,0.114,0.134,0.188,0.167l-0.001,0.002L420.456,134.442z"/>
			<path id="XMLID_681_" style="fill:#BA68C8;" d="M435.819,90.219c0-1.23-0.863-2.726-1.929-3.341l-1.57-0.907
				c-1.065-0.615-2.792-0.615-3.858,0l-24.086,13.93c-1.065,0.615-1.929,2.111-1.929,3.341v26.501c0,1.23,0.864,2.726,1.929,3.341
				l1.57,0.907c1.065,0.615,2.793,0.615,3.858,0l7.746-4.476l2.76,4.781c0.176,0.306,0.63,0.262,0.746-0.071l2.917-8.421
				l9.916-5.744c1.065-0.615,1.929-2.11,1.929-3.341L435.819,90.219z"/>
			<path style="fill:#FAFAFA;" d="M429.666,108.363v-3.009c0-0.545-0.383-0.766-0.855-0.494l-5.161,2.979l0.001-5.958
				c0-0.545-0.383-0.766-0.855-0.494l-2.606,1.504c-0.472,0.273-0.855,0.936-0.855,1.481l0,5.959l-5.16,2.979
				c-0.472,0.273-0.855,0.936-0.855,1.481v3.008c0,0.545,0.383,0.766,0.855,0.494l5.16-2.979l0,5.958
				c0,0.545,0.383,0.766,0.855,0.494l2.606-1.505c0.472-0.272,0.855-0.936,0.855-1.481v-5.957l5.16-2.979
				C429.283,109.571,429.666,108.908,429.666,108.363z"/>
			<path id="XMLID_679_" style="opacity:0.2;" d="M402.448,129.743c0,1.23,0.864,2.726,1.929,3.341l1.57,0.907
				c0.963,0.556,2.461,0.604,3.528,0.155c-0.908,0.343-1.599-0.169-1.599-1.269l0-26.501c0-0.615,0.216-1.296,0.565-1.901
				l-5.428-3.134c-0.349,0.604-0.565,1.286-0.565,1.901V129.743z"/>
			<path id="XMLID_638_" style="opacity:0.3;fill:#FFFFFF;" d="M435.756,89.671c-0.225-0.819-0.972-1.08-1.862-0.567l-24.09,13.934
				c-0.531,0.306-1.017,0.828-1.359,1.44l-5.426-3.131c0.351-0.612,0.828-1.134,1.359-1.44l24.081-13.934
				c1.071-0.612,2.798-0.612,3.861,0l1.575,0.909C434.802,87.403,435.567,88.573,435.756,89.671z"/>
		</g>
	</g>
</g>
</svg>
