<?xml version="1.0" encoding="UTF-8" standalone="no" ?>
<!DOCTYPE svg PUBLIC "-//W3C//DTD SVG 1.1//EN" "http://www.w3.org/Graphics/SVG/1.1/DTD/svg11.dtd">
<svg xmlns="http://www.w3.org/2000/svg" xmlns:xlink="http://www.w3.org/1999/xlink" version="1.1" width="1080" height="1080" viewBox="0 0 1080 1080" xml:space="preserve">
<desc>Created with Fabric.js 5.2.4</desc>
<defs>
</defs>
<g transform="matrix(1 0 0 1 540 540)" id="a5f6ec80-db5c-4376-bbec-4f9f9799c72a"  >
<rect style="stroke: none; stroke-width: 1; stroke-dasharray: none; stroke-linecap: butt; stroke-dashoffset: 0; stroke-linejoin: miter; stroke-miterlimit: 4; fill: rgb(255,255,255); fill-rule: nonzero; opacity: 1; visibility: hidden;" vector-effect="non-scaling-stroke"  x="-540" y="-540" rx="0" ry="0" width="1080" height="1080" />
</g>
<g transform="matrix(1 0 0 1 540 540)" id="39cbf3f7-3f4c-48fa-944f-427a56676a2f"  >
</g>
<g transform="matrix(1 0 0 1 540 515.15)"  >
<g style="" vector-effect="non-scaling-stroke"   >
		<g transform="matrix(1 0 0 1 -234.58 12.14)"  >
<path style="stroke: none; stroke-width: 1; stroke-dasharray: none; stroke-linecap: butt; stroke-dashoffset: 0; stroke-linejoin: miter; stroke-miterlimit: 4; fill: rgb(255,255,255); fill-rule: nonzero; opacity: 1;" vector-effect="non-scaling-stroke"  transform=" translate(-275.2, -524.81)" d="M 172.619537 552.999878 C 172.618576 524.184753 172.607132 495.869659 172.624695 467.554565 C 172.629898 459.168396 173.15947 458.650269 181.281845 458.649872 C 243.908203 458.646667 306.534576 458.646301 369.160919 458.651642 C 377.815247 458.652374 378.26947 459.117889 378.271118 467.616333 C 378.27774 501.927551 378.367523 536.239197 378.197235 570.5495 C 378.17392 575.251404 379.357697 577.295227 384.30191 576.813293 C 387.931549 576.459412 391.625549 576.676453 395.287354 576.773132 C 397.803925 576.839539 401.05304 575.962891 401.186157 580.15155 C 401.312195 584.117493 402.043274 588.50415 396.956177 590.176819 C 395.101532 590.786499 393.026794 590.940491 391.052307 590.941284 C 313.935333 590.973633 236.818375 590.971252 159.701416 590.93988 C 155.672699 590.938232 151.297913 590.97113 149.849213 586.052734 C 147.82251 579.172058 149.824493 576.752136 157.061615 576.736145 C 160.725906 576.728027 164.396317 576.589417 168.052734 576.755981 C 171.566483 576.916016 172.749939 575.372437 172.660889 571.987061 C 172.498901 565.828613 172.618225 559.662659 172.619537 552.999878 M 212.5 470.137421 C 204.83551 470.128082 197.158783 470.377258 189.510956 470.015503 C 184.674255 469.786743 183.24147 471.414185 183.273773 476.234131 C 183.461334 504.225311 183.350693 532.218445 183.330887 560.210938 C 183.325653 567.593079 183.309448 567.609192 190.731445 567.594543 C 247.378647 567.482544 304.025848 567.359985 360.673065 567.251831 C 367.658264 567.238525 367.660126 567.26886 367.659332 560.173401 C 367.656189 532.347473 367.654022 504.521606 367.646332 476.695709 C 367.644531 470.138885 367.635223 470.130005 360.960632 470.130096 C 311.807098 470.130707 262.653534 470.135132 212.5 470.137421 z" stroke-linecap="round" />
</g>
		<g transform="matrix(1 0 0 1 324.34 -0.06)"  >
<path style="stroke: none; stroke-width: 1; stroke-dasharray: none; stroke-linecap: butt; stroke-dashoffset: 0; stroke-linejoin: miter; stroke-miterlimit: 4; fill: rgb(255,255,255); fill-rule: nonzero; opacity: 1;" vector-effect="non-scaling-stroke"  transform=" translate(-834.12, -512.61)" d="M 799.236572 594.619995 C 797.682556 588.459473 798.849976 582.642822 798.846802 576.854309 C 798.838562 561.920898 798.371765 547.000183 798.065369 532.073853 C 797.567627 507.824585 797.87561 483.558838 797.840027 459.300049 C 797.828064 451.141602 797.741882 442.982666 797.809509 434.824921 C 797.857849 428.99472 799.806885 427.040985 805.648071 426.942963 C 813.292725 426.814636 820.980713 427.686554 828.542542 427.399109 C 834.479797 427.173462 840.061523 427.354492 845.721741 428.929871 C 856.274841 431.866974 862.198669 439.382416 865.114502 449.301575 C 868.353943 460.321503 868.026855 471.76712 866.757935 483.014282 C 865.686096 492.514771 860.905945 500.555267 853.815491 506.982574 C 854.183716 507.742462 854.274841 508.366852 854.619873 508.579651 C 867.50708 516.528809 869.467346 529.495972 870.158691 542.887756 C 870.527222 550.026123 870.583557 557.22113 870.152161 564.352478 C 868.995361 583.474792 856.512146 597.621338 836.058716 598.162231 C 826.24408 598.421814 816.416992 598.22113 806.595581 598.204773 C 803.730774 598.200012 800.827637 598.199524 799.236572 594.619995 M 841.111084 573.794189 C 846.295898 570.655823 847.151855 564.78418 846.967773 560.150085 C 846.561707 549.9245 847.359192 539.521912 844.793091 529.441406 C 843.846375 525.722534 842.866638 521.635193 838.135742 521.14801 C 834.189453 520.741638 830.172791 521.045105 826.188293 520.974365 C 823.18103 520.920959 822.256226 522.406555 822.182617 525.302734 C 821.777344 541.246033 822.818909 557.158813 822.990723 573.087891 C 823.008728 574.762817 823.654541 575.715149 825.249146 575.67865 C 830.347839 575.562073 835.593872 576.829407 841.111084 573.794189 M 840.8078 492.111481 C 845.424377 480.267792 843.544739 468.204926 841.430481 456.322815 C 840.387817 450.463135 832.73114 447.661804 824.23999 449.250671 C 818.018555 450.414856 823.121277 454.923553 822.062744 457.659637 C 821.892456 458.099823 821.977905 458.647522 821.981873 459.145233 C 822.072144 470.411255 822.171204 481.677246 822.25885 492.943298 C 822.276917 495.263641 822.608459 497.394623 825.534973 497.585205 C 831.12207 497.949005 836.594055 497.865906 840.8078 492.111481 z" stroke-linecap="round" />
</g>
		<g transform="matrix(1 0 0 1 141.01 0.84)"  >
<path style="stroke: none; stroke-width: 1; stroke-dasharray: none; stroke-linecap: butt; stroke-dashoffset: 0; stroke-linejoin: miter; stroke-miterlimit: 4; fill: rgb(255,255,255); fill-rule: nonzero; opacity: 1;" vector-effect="non-scaling-stroke"  transform=" translate(-650.78, -513.51)" d="M 638.111145 463.160706 C 638.155212 473.430725 639.053772 483.212982 638.38446 493.015167 C 638.244446 495.066254 638.51825 497.587433 641.115356 497.552216 C 647.067444 497.471527 652.958923 498.939545 658.949402 497.9617 C 661.924438 497.476044 662.667786 496.028351 662.628418 493.210358 C 662.379761 475.395905 662.211182 457.57962 662.152832 439.763489 C 662.114136 427.940369 663.227905 426.917084 674.957581 426.978302 C 676.950928 426.988708 678.967651 427.011322 680.931152 427.308472 C 684.81897 427.896881 687.308533 430.000641 687.613159 434.165894 C 687.661621 434.828918 687.873169 435.486969 687.867432 436.146088 C 687.707581 454.593445 687.942627 473.056976 687.214966 491.482391 C 686.692749 504.707214 687.455322 517.886047 687.287842 531.086914 C 687.049438 549.874084 688.133057 568.660583 687.42865 587.452087 C 687.385559 588.60083 687.695007 589.759766 687.800964 590.917603 C 688.349548 596.910095 685.535095 600.059937 679.51239 600.040771 C 676.203125 600.030273 672.912842 599.752686 669.579651 599.85083 C 664.883484 599.989075 662.733521 596.95874 662.746887 591.418152 C 662.797913 570.261658 662.837463 549.105103 662.858826 527.948608 C 662.865479 521.398438 662.582336 521.123901 656.194336 521.079651 C 652.196289 521.052002 648.1875 521.264282 644.202271 521.038086 C 639.817017 520.789246 638.117371 522.064392 638.255676 526.950562 C 638.862915 548.408752 639.049988 569.879395 639.311462 591.346497 C 639.40686 599.178833 638.458618 600.044617 630.854431 600.131714 C 613.994568 600.324707 614.693665 600.249878 614.7276 585.055359 C 614.758423 571.250122 613.971313 557.444702 613.879578 543.637146 C 613.70636 517.560852 613.610657 491.481628 613.822327 465.406372 C 613.905518 455.162781 614.47699 444.92392 613.980469 434.675171 C 613.949036 434.025482 614.113098 433.349731 614.278137 432.709808 C 615.526794 427.866882 620.143799 426.185486 629.672424 427.083405 C 635.956177 427.675507 637.934204 429.324158 638.020752 434.730743 C 638.169922 444.046051 638.088013 453.365051 638.111145 463.160706 z" stroke-linecap="round" />
</g>
		<g transform="matrix(1 0 0 1 236.14 0.85)"  >
<path style="stroke: none; stroke-width: 1; stroke-dasharray: none; stroke-linecap: butt; stroke-dashoffset: 0; stroke-linejoin: miter; stroke-miterlimit: 4; fill: rgb(255,255,255); fill-rule: nonzero; opacity: 1;" vector-effect="non-scaling-stroke"  transform=" translate(-745.92, -513.52)" d="M 729.434326 595.998291 C 726.304932 599.684692 717.502441 601.487183 712.574463 599.468323 C 707.743408 597.489136 707.188354 592.981201 707.151184 588.5802 C 706.975464 567.767822 706.909912 546.954346 706.852295 526.141174 C 706.828369 517.494934 706.936768 508.880615 707.986816 500.241669 C 708.509277 495.943085 707.154419 491.412018 706.937988 486.927307 C 706.102112 469.608917 707.290894 452.306702 706.979065 435.000977 C 706.910217 431.1828 708.607849 429.054596 712.09314 428.093292 C 713.374329 427.739868 714.686462 427.468872 716.001038 427.270447 C 727.771057 425.493958 730.389526 427.77478 730.36615 439.538513 C 730.32782 458.862305 730.3302 478.18631 730.375732 497.510101 C 730.380127 499.383331 729.727905 501.552246 732.024963 503.125 C 734.102722 501.515717 734.848633 499.007568 735.435425 496.804962 C 741.270996 474.89743 749.640137 453.841187 756.81366 432.385345 C 757.916443 429.087006 760.084534 427.352753 763.371521 427.212738 C 768.357605 427.000336 773.365601 426.860474 778.345642 427.091248 C 782.082581 427.264343 783.812195 429.38559 782.343018 433.214539 C 776.682251 447.967773 771.471191 462.878174 765.455261 477.517242 C 761.316833 487.587708 757.946716 498.094727 754.558228 508.513794 C 753.433899 511.970856 754.720459 515.389832 756.099426 518.677368 C 766.016846 542.321289 774.831177 566.39093 783.700317 590.43866 C 784.158447 591.680847 784.336853 593.024292 784.764282 594.280151 C 786.003052 597.919617 784.622681 599.699219 780.89978 599.891113 C 780.400818 599.91687 779.901123 599.933533 779.401611 599.942383 C 761.033264 600.266113 761.092712 599.967468 755.671753 584.146484 C 748.550232 563.362427 740.566833 542.874084 734.459778 521.741943 C 734.037048 520.278992 734.005066 518.307129 731.228943 517.775818 C 730.109863 523.49469 730.46875 529.181091 730.522156 534.898743 C 730.70697 554.673035 731.591797 574.45636 730.121826 594.219482 C 730.086304 594.697754 729.799011 595.157227 729.434326 595.998291 z" stroke-linecap="round" />
</g>
		<g transform="matrix(1 0 0 1 -11.36 0)"  >
<path style="stroke: none; stroke-width: 1; stroke-dasharray: none; stroke-linecap: butt; stroke-dashoffset: 0; stroke-linejoin: miter; stroke-miterlimit: 4; fill: rgb(255,255,255); fill-rule: nonzero; opacity: 1;" vector-effect="non-scaling-stroke"  transform=" translate(-498.42, -512.67)" d="M 495.640686 423.999878 C 495.640137 402.51001 495.637207 381.520111 495.644958 360.530243 C 495.645508 359.032776 495.665222 357.53064 495.784302 356.039276 C 495.890198 354.712891 496.636444 353.929382 498.043091 353.873291 C 499.550781 353.813202 500.764374 354.345673 501.004242 355.905029 C 501.255615 357.539398 501.260284 359.221863 501.260406 360.883301 C 501.268066 462.167816 501.276276 563.452332 501.189331 664.736755 C 501.187225 667.193176 502.803528 671.409668 498.433685 671.469482 C 493.909698 671.531433 495.718353 667.258667 495.715485 664.88385 C 495.619263 584.755981 495.638489 504.62793 495.640686 423.999878 z" stroke-linecap="round" />
</g>
		<g transform="matrix(1 0 0 1 -252.99 10.31)"  >
<path style="stroke: none; stroke-width: 1; stroke-dasharray: none; stroke-linecap: butt; stroke-dashoffset: 0; stroke-linejoin: miter; stroke-miterlimit: 4; fill: rgb(255,255,255); fill-rule: nonzero; opacity: 1;" vector-effect="non-scaling-stroke"  transform=" translate(-256.79, -522.98)" d="M 297.098358 520.257751 C 297.074615 522.221191 297.050873 524.184631 296.896851 526.809265 C 296.53064 527.944824 296.294769 528.419128 296.058899 528.893494 C 293.526398 533.082031 290.310913 536.241028 284.999451 536.267761 C 282.788635 536.27887 282.124634 537.692688 282.227692 539.576721 C 282.493622 544.439453 279.222504 544.178223 275.891327 544.218628 C 272.174866 544.263611 271.407257 542.185364 271.576691 539.077271 C 271.628296 538.130798 271.357574 537.166748 271.206207 535.991089 C 269.828094 536.05426 268.700287 536.119385 267.571564 536.155396 C 261.463593 536.350647 258.253906 533.777039 257.179596 527.764526 C 256.975677 526.62323 256.972046 525.446899 256.861938 524.288025 C 256.711029 522.700256 257.178894 520.745972 254.775513 520.402588 C 253.676834 520.245544 252.697647 520.668823 252.495834 521.823181 C 252.185364 523.599304 251.663177 525.625488 253.875839 526.605042 C 255.460724 527.306641 256.219788 528.386414 256.268066 530.035828 C 256.330719 532.176147 256.826691 534.624146 254.160385 535.588989 C 250.814667 536.799683 247.52681 536.431885 244.802673 534.001709 C 242.716049 532.140259 241.925446 529.587219 241.835297 526.814392 C 241.777252 525.029114 241.68219 523.245056 241.603729 521.460449 C 241.116913 521.445801 240.630096 521.431213 240.14328 521.416626 C 240.14328 524.734802 240.0457 528.056641 240.16864 531.3703 C 240.31337 535.271362 238.08876 536.078186 234.780334 536.105469 C 231.349091 536.13385 229.506485 535.102844 229.584259 531.2453 C 229.651947 527.887329 230.324219 524.378784 228.667862 520.420227 C 226.112747 523.937317 227.26033 527.309998 227.262299 530.370667 C 227.264862 534.352966 225.941376 536.097595 221.780991 536.15387 C 217.358856 536.213623 216.544815 534.045105 216.617035 530.243591 C 216.76564 522.421265 216.677811 514.590271 216.485489 506.767761 C 216.406006 503.535339 217.203217 501.660522 220.856369 501.747986 C 224.137177 501.826599 227.556839 501.431183 227.195618 506.34845 C 226.970184 509.417297 228.047821 511.121704 231.407166 510.890533 C 234.347427 510.688171 236.277451 512.666443 238.246445 514.440735 C 240.915359 511.006042 241.968399 506.115662 247.462494 505.725586 C 249.773529 505.561493 251.624893 505.167236 252.315598 508.303925 C 253.093018 511.834351 255.202682 511.738312 256.959412 509.003296 C 258.771973 506.181488 261.619476 506.096558 264.326752 505.508087 C 265.569946 505.237885 267.001312 505.593353 267.065704 506.955811 C 267.285675 511.609955 270.541321 511.009094 273.520111 510.93399 C 277.652527 510.829803 281.752533 511.430756 285.929077 510.913177 C 290.423889 510.356201 293.299133 513.350891 296.115967 517.249512 C 296.706787 518.603149 296.902588 519.43042 297.098358 520.257751 M 270.814514 520.757935 C 267.903564 519.590149 267.334778 521.260132 267.376465 523.619507 C 267.401123 525.01532 267.690399 526.464172 269.414124 526.403076 C 271.798553 526.318604 271.546387 524.363525 271.552124 522.737366 C 271.553833 522.260071 271.362091 521.782104 270.814514 520.757935 M 284.321808 526.275391 C 286.469391 524.880676 286.271942 523.061707 285.079895 521.230103 C 284.571838 520.449402 283.469177 520.4151 282.9935 521.196045 C 281.905487 522.982422 281.526794 524.841919 284.321808 526.275391 z" stroke-linecap="round" />
</g>
		<g transform="matrix(1 0 0 1 -200.36 7.44)"  >
<path style="stroke: none; stroke-width: 1; stroke-dasharray: none; stroke-linecap: butt; stroke-dashoffset: 0; stroke-linejoin: miter; stroke-miterlimit: 4; fill: rgb(255,255,255); fill-rule: nonzero; opacity: 1;" vector-effect="non-scaling-stroke"  transform=" translate(-309.42, -520.11)" d="M 296.081665 529.277222 C 296.294769 528.419128 296.53064 527.944824 296.885071 527.231567 C 301.837921 523.594177 302.338074 523.575317 307.436005 526.811157 C 310.394318 520.832214 311.482727 514.283813 313.634949 508.110168 C 314.015625 507.018066 314.22171 505.83429 314.771332 504.83783 C 316.209259 502.230804 318.703827 502.589325 320.933502 503.189117 C 323.454987 503.867432 322.803406 505.935944 322.282562 507.71051 C 319.76001 516.305481 317.141693 524.872864 314.697021 533.489685 C 313.812897 536.606079 312.026123 537.703796 308.856293 537.426575 C 299.328339 536.593323 297.610626 535.618042 296.081665 529.277222 z" stroke-linecap="round" />
</g>
		<g transform="matrix(1 0 0 1 -181.68 7.56)"  >
<path style="stroke: none; stroke-width: 1; stroke-dasharray: none; stroke-linecap: butt; stroke-dashoffset: 0; stroke-linejoin: miter; stroke-miterlimit: 4; fill: rgb(255,255,255); fill-rule: nonzero; opacity: 1;" vector-effect="non-scaling-stroke"  transform=" translate(-328.1, -520.23)" d="M 336.485291 504.315796 C 334.581604 514.951782 330.9505 524.7995 328.009613 534.843994 C 327.035461 538.171204 324.175659 537.686279 321.766571 537.186951 C 318.701752 536.551758 319.829865 534.198364 320.353516 532.369324 C 322.691559 524.202942 325.066559 516.046509 327.519073 507.913879 C 329.166687 502.450195 330.639465 501.840698 336.485291 504.315796 z" stroke-linecap="round" />
</g>
		<g transform="matrix(1 0 0 1 -207.85 3.96)"  >
<path style="stroke: none; stroke-width: 1; stroke-dasharray: none; stroke-linecap: butt; stroke-dashoffset: 0; stroke-linejoin: miter; stroke-miterlimit: 4; fill: rgb(255,255,255); fill-rule: nonzero; opacity: 1;" vector-effect="non-scaling-stroke"  transform=" translate(-301.93, -516.63)" d="M 297.366638 520.433044 C 296.902588 519.43042 296.706787 518.603149 296.369141 517.502441 C 297.360748 512.529114 300.001495 510.255066 303.471497 511.201599 C 307.367798 512.264404 308.003967 515.260925 307.161835 518.612671 C 306.132965 522.707642 302.310852 523.429688 297.366638 520.433044 z" stroke-linecap="round" />
</g>
</g>
</g>
</svg>